%TF.GenerationSoftware,KiCad,Pcbnew,(5.99.0-11177-g6c67dfa032)*%
%TF.CreationDate,2021-09-17T12:08:34+03:00*%
%TF.ProjectId,SunsetterR2_Hotswap,53756e73-6574-4746-9572-52325f486f74,rev?*%
%TF.SameCoordinates,Original*%
%TF.FileFunction,Paste,Bot*%
%TF.FilePolarity,Positive*%
%FSLAX46Y46*%
G04 Gerber Fmt 4.6, Leading zero omitted, Abs format (unit mm)*
G04 Created by KiCad (PCBNEW (5.99.0-11177-g6c67dfa032)) date 2021-09-17 12:08:34*
%MOMM*%
%LPD*%
G01*
G04 APERTURE LIST*
G04 Aperture macros list*
%AMRoundRect*
0 Rectangle with rounded corners*
0 $1 Rounding radius*
0 $2 $3 $4 $5 $6 $7 $8 $9 X,Y pos of 4 corners*
0 Add a 4 corners polygon primitive as box body*
4,1,4,$2,$3,$4,$5,$6,$7,$8,$9,$2,$3,0*
0 Add four circle primitives for the rounded corners*
1,1,$1+$1,$2,$3*
1,1,$1+$1,$4,$5*
1,1,$1+$1,$6,$7*
1,1,$1+$1,$8,$9*
0 Add four rect primitives between the rounded corners*
20,1,$1+$1,$2,$3,$4,$5,0*
20,1,$1+$1,$4,$5,$6,$7,0*
20,1,$1+$1,$6,$7,$8,$9,0*
20,1,$1+$1,$8,$9,$2,$3,0*%
%AMRotRect*
0 Rectangle, with rotation*
0 The origin of the aperture is its center*
0 $1 length*
0 $2 width*
0 $3 Rotation angle, in degrees counterclockwise*
0 Add horizontal line*
21,1,$1,$2,0,0,$3*%
G04 Aperture macros list end*
%ADD10R,1.500000X1.000000*%
%ADD11R,2.550000X2.500000*%
%ADD12R,2.200000X2.500000*%
%ADD13RoundRect,0.200000X-0.275000X0.200000X-0.275000X-0.200000X0.275000X-0.200000X0.275000X0.200000X0*%
%ADD14RoundRect,0.225000X0.250000X-0.225000X0.250000X0.225000X-0.250000X0.225000X-0.250000X-0.225000X0*%
%ADD15R,2.500000X2.550000*%
%ADD16RoundRect,0.150000X-0.150000X0.587500X-0.150000X-0.587500X0.150000X-0.587500X0.150000X0.587500X0*%
%ADD17RoundRect,0.225000X0.225000X0.250000X-0.225000X0.250000X-0.225000X-0.250000X0.225000X-0.250000X0*%
%ADD18R,1.700000X1.000000*%
%ADD19RoundRect,0.225000X-0.250000X0.225000X-0.250000X-0.225000X0.250000X-0.225000X0.250000X0.225000X0*%
%ADD20R,1.400000X1.200000*%
%ADD21R,0.375000X0.500000*%
%ADD22R,0.300000X0.650000*%
%ADD23RoundRect,0.243750X-0.456250X0.243750X-0.456250X-0.243750X0.456250X-0.243750X0.456250X0.243750X0*%
%ADD24R,0.600000X1.450000*%
%ADD25R,0.300000X1.450000*%
%ADD26RoundRect,0.200000X0.275000X-0.200000X0.275000X0.200000X-0.275000X0.200000X-0.275000X-0.200000X0*%
%ADD27RoundRect,0.225000X-0.225000X-0.250000X0.225000X-0.250000X0.225000X0.250000X-0.225000X0.250000X0*%
%ADD28RoundRect,0.200000X0.200000X0.275000X-0.200000X0.275000X-0.200000X-0.275000X0.200000X-0.275000X0*%
%ADD29RotRect,1.500000X0.550000X315.000000*%
%ADD30RotRect,1.500000X0.550000X225.000000*%
%ADD31RoundRect,0.200000X-0.200000X-0.275000X0.200000X-0.275000X0.200000X0.275000X-0.200000X0.275000X0*%
%ADD32RoundRect,0.218750X-0.381250X0.218750X-0.381250X-0.218750X0.381250X-0.218750X0.381250X0.218750X0*%
G04 APERTURE END LIST*
D10*
%TO.C,RGB5*%
X342968750Y-46025000D03*
X342968750Y-49225000D03*
X338068750Y-49225000D03*
X338068750Y-46025000D03*
%TD*%
%TO.C,RGB8*%
X199956250Y-106375000D03*
X199956250Y-103175000D03*
X204856250Y-103175000D03*
X204856250Y-106375000D03*
%TD*%
D11*
%TO.C,K21*%
X102177500Y-54610000D03*
X115627500Y-52070000D03*
%TD*%
%TO.C,K80*%
X359352500Y-92710000D03*
X372802500Y-90170000D03*
%TD*%
D12*
%TO.C,K35*%
X30915000Y-73660000D03*
D11*
X44190000Y-71120000D03*
%TD*%
%TO.C,K30*%
X273627500Y-54610000D03*
X287077500Y-52070000D03*
%TD*%
D13*
%TO.C,R6*%
X67792600Y-38494200D03*
X67792600Y-40144200D03*
%TD*%
D11*
%TO.C,K31*%
X292677500Y-54610000D03*
X306127500Y-52070000D03*
%TD*%
D14*
%TO.C,C4*%
X74803000Y-55131000D03*
X74803000Y-53581000D03*
%TD*%
D15*
%TO.C,K33*%
X345440000Y-49790000D03*
X347980000Y-63240000D03*
%TD*%
D16*
%TO.C,KD20*%
X99062500Y-77643750D03*
X100962500Y-77643750D03*
X100012500Y-79518750D03*
%TD*%
D13*
%TO.C,R2*%
X70586600Y-32576000D03*
X70586600Y-34226000D03*
%TD*%
D16*
%TO.C,KD4*%
X165737500Y-39543750D03*
X167637500Y-39543750D03*
X166687500Y-41418750D03*
%TD*%
D11*
%TO.C,K73*%
X156946250Y-111760000D03*
X170396250Y-109220000D03*
%TD*%
D12*
%TO.C,K51*%
X30915000Y-92710000D03*
D11*
X44190000Y-90170000D03*
%TD*%
%TO.C,K78*%
X340302500Y-111760000D03*
X353752500Y-109220000D03*
%TD*%
%TO.C,K23*%
X140277500Y-54610000D03*
X153727500Y-52070000D03*
%TD*%
%TO.C,K58*%
X173615000Y-92710000D03*
X187065000Y-90170000D03*
%TD*%
D17*
%TO.C,C10*%
X346469000Y-46025000D03*
X344919000Y-46025000D03*
%TD*%
D11*
%TO.C,K56*%
X135515000Y-92710000D03*
X148965000Y-90170000D03*
%TD*%
D16*
%TO.C,KD13*%
X175262500Y-58593750D03*
X177162500Y-58593750D03*
X176212500Y-60468750D03*
%TD*%
D11*
%TO.C,K9*%
X187902500Y-35560000D03*
X201352500Y-33020000D03*
%TD*%
D14*
%TO.C,C6*%
X66167000Y-47575000D03*
X66167000Y-46025000D03*
%TD*%
D11*
%TO.C,K10*%
X206952500Y-35560000D03*
X220402500Y-33020000D03*
%TD*%
D16*
%TO.C,KD30*%
X170500000Y-96693750D03*
X172400000Y-96693750D03*
X171450000Y-98568750D03*
%TD*%
D11*
%TO.C,K6*%
X130752500Y-35560000D03*
X144202500Y-33020000D03*
%TD*%
D18*
%TO.C,SW1*%
X103162500Y-49525000D03*
X96862500Y-49525000D03*
X96862500Y-45725000D03*
X103162500Y-45725000D03*
%TD*%
D19*
%TO.C,C2*%
X69494400Y-70675200D03*
X69494400Y-72225200D03*
%TD*%
D16*
%TO.C,KD9*%
X356237500Y-45544500D03*
X358137500Y-45544500D03*
X357187500Y-47419500D03*
%TD*%
%TO.C,KD25*%
X294325000Y-77643750D03*
X296225000Y-77643750D03*
X295275000Y-79518750D03*
%TD*%
D10*
%TO.C,RGB1*%
X64362500Y-46025000D03*
X64362500Y-49225000D03*
X59462500Y-49225000D03*
X59462500Y-46025000D03*
%TD*%
D16*
%TO.C,KD18*%
X356237500Y-50116500D03*
X358137500Y-50116500D03*
X357187500Y-51991500D03*
%TD*%
D11*
%TO.C,K25*%
X178377500Y-54610000D03*
X191827500Y-52070000D03*
%TD*%
D16*
%TO.C,KD41*%
X356237500Y-115743750D03*
X358137500Y-115743750D03*
X357187500Y-117618750D03*
%TD*%
%TO.C,KD17*%
X327662500Y-58593750D03*
X329562500Y-58593750D03*
X328612500Y-60468750D03*
%TD*%
D11*
%TO.C,K67*%
X340302500Y-92710000D03*
X353752500Y-90170000D03*
%TD*%
D16*
%TO.C,KD31*%
X208600000Y-96693750D03*
X210500000Y-96693750D03*
X209550000Y-98568750D03*
%TD*%
D11*
%TO.C,K46*%
X259340000Y-73660000D03*
X272790000Y-71120000D03*
%TD*%
D10*
%TO.C,RGB4*%
X275103125Y-46025000D03*
X275103125Y-49225000D03*
X270203125Y-49225000D03*
X270203125Y-46025000D03*
%TD*%
D15*
%TO.C,K49*%
X333216250Y-83560000D03*
X330676250Y-70110000D03*
%TD*%
D11*
%TO.C,K11*%
X226002500Y-35560000D03*
X239452500Y-33020000D03*
%TD*%
%TO.C,K14*%
X283152500Y-35560000D03*
X296602500Y-33020000D03*
%TD*%
D19*
%TO.C,C17*%
X72263000Y-50279000D03*
X72263000Y-51829000D03*
%TD*%
D16*
%TO.C,KD39*%
X215743750Y-115743750D03*
X217643750Y-115743750D03*
X216693750Y-117618750D03*
%TD*%
D20*
%TO.C,Y1*%
X74084000Y-50204000D03*
X76284000Y-50204000D03*
X76284000Y-51904000D03*
X74084000Y-51904000D03*
%TD*%
D15*
%TO.C,K49A1*%
X321310000Y-83560000D03*
X318770000Y-70110000D03*
%TD*%
D16*
%TO.C,KD19*%
X46675000Y-77643750D03*
X48575000Y-77643750D03*
X47625000Y-79518750D03*
%TD*%
%TO.C,KD28*%
X93792000Y-99075000D03*
X95692000Y-99075000D03*
X94742000Y-100950000D03*
%TD*%
%TO.C,KD40*%
X278450000Y-115743750D03*
X280350000Y-115743750D03*
X279400000Y-117618750D03*
%TD*%
D21*
%TO.C,U1*%
X67991700Y-32601800D03*
D22*
X68529200Y-32526800D03*
D21*
X69066700Y-32601800D03*
X69066700Y-34301800D03*
D22*
X68529200Y-34376800D03*
D21*
X67991700Y-34301800D03*
%TD*%
D12*
%TO.C,K18*%
X30915000Y-54610000D03*
D11*
X44190000Y-52070000D03*
%TD*%
D13*
%TO.C,R7*%
X73533000Y-70549000D03*
X73533000Y-72199000D03*
%TD*%
D16*
%TO.C,KD26*%
X344331250Y-77643750D03*
X346231250Y-77643750D03*
X345281250Y-79518750D03*
%TD*%
D11*
%TO.C,K66*%
X359352500Y-73660000D03*
X372802500Y-71120000D03*
%TD*%
D10*
%TO.C,RGB7*%
X270203125Y-106375000D03*
X270203125Y-103175000D03*
X275103125Y-103175000D03*
X275103125Y-106375000D03*
%TD*%
D11*
%TO.C,K36*%
X49790000Y-73660000D03*
X63240000Y-71120000D03*
%TD*%
%TO.C,K32*%
X311727500Y-54610000D03*
X325177500Y-52070000D03*
%TD*%
D23*
%TO.C,F1*%
X66116200Y-36730700D03*
X66116200Y-38605700D03*
%TD*%
D16*
%TO.C,KD1*%
X46675000Y-39543750D03*
X48575000Y-39543750D03*
X47625000Y-41418750D03*
%TD*%
D14*
%TO.C,C7*%
X136398000Y-47575000D03*
X136398000Y-46025000D03*
%TD*%
D11*
%TO.C,K8*%
X168852500Y-35560000D03*
X182302500Y-33020000D03*
%TD*%
D16*
%TO.C,KD22*%
X180025000Y-77643750D03*
X181925000Y-77643750D03*
X180975000Y-79518750D03*
%TD*%
D11*
%TO.C,K72*%
X123608750Y-111760000D03*
X137058750Y-109220000D03*
%TD*%
%TO.C,K63*%
X268865000Y-92710000D03*
X282315000Y-90170000D03*
%TD*%
D14*
%TO.C,C9*%
X276987000Y-47638000D03*
X276987000Y-46088000D03*
%TD*%
D10*
%TO.C,RGB3*%
X204856250Y-46025000D03*
X204856250Y-49225000D03*
X199956250Y-49225000D03*
X199956250Y-46025000D03*
%TD*%
D11*
%TO.C,K53*%
X90703750Y-97790000D03*
X77253750Y-100330000D03*
%TD*%
D16*
%TO.C,KD32*%
X246700000Y-96693750D03*
X248600000Y-96693750D03*
X247650000Y-98568750D03*
%TD*%
%TO.C,KD6*%
X241937500Y-39543750D03*
X243837500Y-39543750D03*
X242887500Y-41418750D03*
%TD*%
%TO.C,KD36*%
X46675000Y-115743750D03*
X48575000Y-115743750D03*
X47625000Y-117618750D03*
%TD*%
D11*
%TO.C,K22*%
X121227500Y-54610000D03*
X134677500Y-52070000D03*
%TD*%
%TO.C,K7*%
X149802500Y-35560000D03*
X163252500Y-33020000D03*
%TD*%
D17*
%TO.C,C1*%
X63055800Y-64262000D03*
X61505800Y-64262000D03*
%TD*%
D11*
%TO.C,K13*%
X264102500Y-35560000D03*
X277552500Y-33020000D03*
%TD*%
D16*
%TO.C,KD2*%
X89537500Y-39543750D03*
X91437500Y-39543750D03*
X90487500Y-41418750D03*
%TD*%
D14*
%TO.C,C16*%
X78105000Y-51829000D03*
X78105000Y-50279000D03*
%TD*%
D10*
%TO.C,RGB6*%
X340450000Y-106375000D03*
X340450000Y-103175000D03*
X345350000Y-103175000D03*
X345350000Y-106375000D03*
%TD*%
D11*
%TO.C,K74A1*%
X209772500Y-116840000D03*
X196322500Y-119380000D03*
%TD*%
%TO.C,K27*%
X216477500Y-54610000D03*
X229927500Y-52070000D03*
%TD*%
D16*
%TO.C,KD15*%
X251462500Y-58593750D03*
X253362500Y-58593750D03*
X252412500Y-60468750D03*
%TD*%
D11*
%TO.C,K43*%
X202190000Y-73660000D03*
X215640000Y-71120000D03*
%TD*%
D10*
%TO.C,RGB2*%
X134609375Y-46025000D03*
X134609375Y-49225000D03*
X129709375Y-49225000D03*
X129709375Y-46025000D03*
%TD*%
D24*
%TO.C,J1*%
X65806250Y-30022600D03*
X66606250Y-30022600D03*
D25*
X67806250Y-30022600D03*
X68806250Y-30022600D03*
X69306250Y-30022600D03*
X70306250Y-30022600D03*
D24*
X71506250Y-30022600D03*
X72306250Y-30022600D03*
X72306250Y-30022600D03*
X71506250Y-30022600D03*
D25*
X70806250Y-30022600D03*
X69806250Y-30022600D03*
X68306250Y-30022600D03*
X67306250Y-30022600D03*
D24*
X66606250Y-30022600D03*
X65806250Y-30022600D03*
%TD*%
D11*
%TO.C,K71*%
X99796250Y-111760000D03*
X113246250Y-109220000D03*
%TD*%
%TO.C,K16A1*%
X330771250Y-35560000D03*
X344221250Y-33020000D03*
%TD*%
%TO.C,K29*%
X254577500Y-54610000D03*
X268027500Y-52070000D03*
%TD*%
%TO.C,K69*%
X49790000Y-111760000D03*
X63240000Y-109220000D03*
%TD*%
%TO.C,K59*%
X192665000Y-92710000D03*
X206115000Y-90170000D03*
%TD*%
D12*
%TO.C,K1*%
X30915000Y-35560000D03*
D11*
X44190000Y-33020000D03*
%TD*%
%TO.C,K77*%
X321252500Y-111760000D03*
X334702500Y-109220000D03*
%TD*%
D16*
%TO.C,KD34*%
X330043750Y-96693750D03*
X331943750Y-96693750D03*
X330993750Y-98568750D03*
%TD*%
%TO.C,KD12*%
X137162500Y-58593750D03*
X139062500Y-58593750D03*
X138112500Y-60468750D03*
%TD*%
%TO.C,KD16*%
X289562500Y-58593750D03*
X291462500Y-58593750D03*
X290512500Y-60468750D03*
%TD*%
D19*
%TO.C,C15*%
X57658000Y-104889000D03*
X57658000Y-106439000D03*
%TD*%
D11*
%TO.C,K20*%
X78365000Y-54610000D03*
X91815000Y-52070000D03*
%TD*%
D26*
%TO.C,R5*%
X69265800Y-40144200D03*
X69265800Y-38494200D03*
%TD*%
D27*
%TO.C,C3*%
X79616000Y-64643000D03*
X81166000Y-64643000D03*
%TD*%
D11*
%TO.C,K76*%
X264102500Y-111760000D03*
X277552500Y-109220000D03*
%TD*%
%TO.C,K45*%
X240290000Y-73660000D03*
X253740000Y-71120000D03*
%TD*%
%TO.C,K42*%
X183140000Y-73660000D03*
X196590000Y-71120000D03*
%TD*%
D16*
%TO.C,KD29*%
X132400000Y-96693750D03*
X134300000Y-96693750D03*
X133350000Y-98568750D03*
%TD*%
D11*
%TO.C,K16*%
X335972500Y-40640000D03*
X322522500Y-43180000D03*
%TD*%
%TO.C,K44*%
X221240000Y-73660000D03*
X234690000Y-71120000D03*
%TD*%
%TO.C,K3*%
X73602500Y-35560000D03*
X87052500Y-33020000D03*
%TD*%
D10*
%TO.C,RGB10*%
X59462500Y-106375000D03*
X59462500Y-103175000D03*
X64362500Y-103175000D03*
X64362500Y-106375000D03*
%TD*%
D16*
%TO.C,KD23*%
X218125000Y-77643750D03*
X220025000Y-77643750D03*
X219075000Y-79518750D03*
%TD*%
%TO.C,KD42*%
X356301000Y-100789500D03*
X358201000Y-100789500D03*
X357251000Y-102664500D03*
%TD*%
D11*
%TO.C,K34*%
X359352500Y-35560000D03*
X372802500Y-33020000D03*
%TD*%
D16*
%TO.C,KD7*%
X280037500Y-39543750D03*
X281937500Y-39543750D03*
X280987500Y-41418750D03*
%TD*%
D19*
%TO.C,C14*%
X127889000Y-104762000D03*
X127889000Y-106312000D03*
%TD*%
D11*
%TO.C,K55*%
X116465000Y-92710000D03*
X129915000Y-90170000D03*
%TD*%
%TO.C,K4*%
X92652500Y-35560000D03*
X106102500Y-33020000D03*
%TD*%
%TO.C,K70*%
X75983750Y-111760000D03*
X89433750Y-109220000D03*
%TD*%
D16*
%TO.C,KD10*%
X46675000Y-58593750D03*
X48575000Y-58593750D03*
X47625000Y-60468750D03*
%TD*%
%TO.C,KD14*%
X213362500Y-58593750D03*
X215262500Y-58593750D03*
X214312500Y-60468750D03*
%TD*%
D11*
%TO.C,K62*%
X249815000Y-92710000D03*
X263265000Y-90170000D03*
%TD*%
D28*
%TO.C,R3*%
X85407000Y-49022000D03*
X83757000Y-49022000D03*
%TD*%
D10*
%TO.C,RGB9*%
X129709375Y-106375000D03*
X129709375Y-103175000D03*
X134609375Y-103175000D03*
X134609375Y-106375000D03*
%TD*%
D16*
%TO.C,KD27*%
X46675000Y-96693750D03*
X48575000Y-96693750D03*
X47625000Y-98568750D03*
%TD*%
D11*
%TO.C,K15*%
X302202500Y-35560000D03*
X315652500Y-33020000D03*
%TD*%
%TO.C,K61*%
X230765000Y-92710000D03*
X244215000Y-90170000D03*
%TD*%
D16*
%TO.C,KD21*%
X141925000Y-77643750D03*
X143825000Y-77643750D03*
X142875000Y-79518750D03*
%TD*%
D14*
%TO.C,C5*%
X67767200Y-55131000D03*
X67767200Y-53581000D03*
%TD*%
D19*
%TO.C,C18*%
X66294000Y-55511400D03*
X66294000Y-57061400D03*
%TD*%
%TO.C,C11*%
X338582000Y-104889000D03*
X338582000Y-106439000D03*
%TD*%
D11*
%TO.C,K53A1*%
X85508750Y-92710000D03*
X98958750Y-90170000D03*
%TD*%
%TO.C,K38*%
X106940000Y-73660000D03*
X120390000Y-71120000D03*
%TD*%
D19*
%TO.C,C13*%
X198120000Y-104762000D03*
X198120000Y-106312000D03*
%TD*%
D11*
%TO.C,K17*%
X355022500Y-40640000D03*
X341572500Y-43180000D03*
%TD*%
D12*
%TO.C,K68*%
X30915000Y-111760000D03*
D11*
X44190000Y-109220000D03*
%TD*%
D14*
%TO.C,C8*%
X206756000Y-47638000D03*
X206756000Y-46088000D03*
%TD*%
D11*
%TO.C,K64*%
X287915000Y-92710000D03*
X301365000Y-90170000D03*
%TD*%
D16*
%TO.C,KD37*%
X94300000Y-115743750D03*
X96200000Y-115743750D03*
X95250000Y-117618750D03*
%TD*%
%TO.C,KD11*%
X96681250Y-58593750D03*
X98581250Y-58593750D03*
X97631250Y-60468750D03*
%TD*%
D11*
%TO.C,K65*%
X314108750Y-92710000D03*
X327558750Y-90170000D03*
%TD*%
%TO.C,K37A1*%
X75983750Y-73660000D03*
X89433750Y-71120000D03*
%TD*%
%TO.C,K28*%
X235527500Y-54610000D03*
X248977500Y-52070000D03*
%TD*%
D16*
%TO.C,KD5*%
X203837500Y-39543750D03*
X205737500Y-39543750D03*
X204787500Y-41418750D03*
%TD*%
D11*
%TO.C,K2*%
X49790000Y-35560000D03*
X63240000Y-33020000D03*
%TD*%
%TO.C,K50*%
X359352500Y-54610000D03*
X372802500Y-52070000D03*
%TD*%
%TO.C,K12*%
X245052500Y-35560000D03*
X258502500Y-33020000D03*
%TD*%
D16*
%TO.C,KD35*%
X337187500Y-96693750D03*
X339087500Y-96693750D03*
X338137500Y-98568750D03*
%TD*%
D11*
%TO.C,K41*%
X164090000Y-73660000D03*
X177540000Y-71120000D03*
%TD*%
D13*
%TO.C,R1*%
X66421000Y-32576000D03*
X66421000Y-34226000D03*
%TD*%
D16*
%TO.C,KD38*%
X144306250Y-115743750D03*
X146206250Y-115743750D03*
X145256250Y-117618750D03*
%TD*%
D11*
%TO.C,K75*%
X228383750Y-111760000D03*
X241833750Y-109220000D03*
%TD*%
D29*
%TO.C,U2*%
X64578564Y-61027918D03*
X65144250Y-60462233D03*
X65709935Y-59896548D03*
X66275620Y-59330862D03*
X66841306Y-58765177D03*
X67406991Y-58199491D03*
X67972677Y-57633806D03*
X68538362Y-57068120D03*
X69104048Y-56502435D03*
X69669733Y-55936750D03*
X70235418Y-55371064D03*
D30*
X72639582Y-55371064D03*
X73205267Y-55936750D03*
X73770952Y-56502435D03*
X74336638Y-57068120D03*
X74902323Y-57633806D03*
X75468009Y-58199491D03*
X76033694Y-58765177D03*
X76599380Y-59330862D03*
X77165065Y-59896548D03*
X77730750Y-60462233D03*
X78296436Y-61027918D03*
D29*
X78296436Y-63432082D03*
X77730750Y-63997767D03*
X77165065Y-64563452D03*
X76599380Y-65129138D03*
X76033694Y-65694823D03*
X75468009Y-66260509D03*
X74902323Y-66826194D03*
X74336638Y-67391880D03*
X73770952Y-67957565D03*
X73205267Y-68523250D03*
X72639582Y-69088936D03*
D30*
X70235418Y-69088936D03*
X69669733Y-68523250D03*
X69104048Y-67957565D03*
X68538362Y-67391880D03*
X67972677Y-66826194D03*
X67406991Y-66260509D03*
X66841306Y-65694823D03*
X66275620Y-65129138D03*
X65709935Y-64563452D03*
X65144250Y-63997767D03*
X64578564Y-63432082D03*
%TD*%
D11*
%TO.C,K74*%
X190283750Y-111760000D03*
X203733750Y-109220000D03*
%TD*%
%TO.C,K57*%
X154565000Y-92710000D03*
X168015000Y-90170000D03*
%TD*%
%TO.C,K24*%
X159327500Y-54610000D03*
X172777500Y-52070000D03*
%TD*%
%TO.C,K60*%
X211715000Y-92710000D03*
X225165000Y-90170000D03*
%TD*%
D31*
%TO.C,R4*%
X78067400Y-81255000D03*
X79717400Y-81255000D03*
%TD*%
D16*
%TO.C,KD33*%
X284800000Y-96693750D03*
X286700000Y-96693750D03*
X285750000Y-98568750D03*
%TD*%
%TO.C,KD8*%
X318137500Y-39543750D03*
X320037500Y-39543750D03*
X319087500Y-41418750D03*
%TD*%
D11*
%TO.C,K52*%
X49790000Y-92710000D03*
X63240000Y-90170000D03*
%TD*%
%TO.C,K26*%
X197427500Y-54610000D03*
X210877500Y-52070000D03*
%TD*%
D16*
%TO.C,KD24*%
X256225000Y-77643750D03*
X258125000Y-77643750D03*
X257175000Y-79518750D03*
%TD*%
D11*
%TO.C,K39*%
X125990000Y-73660000D03*
X139440000Y-71120000D03*
%TD*%
%TO.C,K47*%
X278390000Y-73660000D03*
X291840000Y-71120000D03*
%TD*%
D19*
%TO.C,C12*%
X268351000Y-104889000D03*
X268351000Y-106439000D03*
%TD*%
D16*
%TO.C,KD3*%
X127637500Y-39543750D03*
X129537500Y-39543750D03*
X128587500Y-41418750D03*
%TD*%
D32*
%TO.C,FB1*%
X73710800Y-31322500D03*
X73710800Y-33447500D03*
%TD*%
D11*
%TO.C,K5*%
X111702500Y-35560000D03*
X125152500Y-33020000D03*
%TD*%
%TO.C,K37*%
X95466250Y-78740000D03*
X82016250Y-81280000D03*
%TD*%
%TO.C,K19*%
X49790000Y-54610000D03*
X63240000Y-52070000D03*
%TD*%
%TO.C,K54*%
X112135000Y-97790000D03*
X98685000Y-100330000D03*
%TD*%
D15*
%TO.C,K33A1*%
X342741250Y-74035000D03*
X340201250Y-60585000D03*
%TD*%
D11*
%TO.C,K48*%
X297440000Y-73660000D03*
X310890000Y-71120000D03*
%TD*%
%TO.C,K79*%
X359352500Y-111760000D03*
X372802500Y-109220000D03*
%TD*%
%TO.C,K40*%
X145040000Y-73660000D03*
X158490000Y-71120000D03*
%TD*%
M02*
