M48
; DRILL file {KiCad (5.99.0-11177-g6c67dfa032)} date Friday, September 17, 2021 at 12:08:25 PM
; FORMAT={-:-/ absolute / inch / decimal}
; #@! TF.CreationDate,2021-09-17T12:08:25+03:00
; #@! TF.GenerationSoftware,Kicad,Pcbnew,(5.99.0-11177-g6c67dfa032)
; #@! TF.FileFunction,NonPlated,1,2,NPTH
FMAT,2
INCH
; #@! TA.AperFunction,NonPlated,NPTH,ComponentDrill
T1C0.0256
; #@! TA.AperFunction,NonPlated,NPTH,ComponentDrill
T2C0.0669
; #@! TA.AperFunction,NonPlated,NPTH,ComponentDrill
T3C0.1161
; #@! TA.AperFunction,NonPlated,NPTH,ComponentDrill
T4C0.1181
; #@! TA.AperFunction,NonPlated,NPTH,ComponentDrill
T5C0.1200
; #@! TA.AperFunction,NonPlated,NPTH,ComponentDrill
T6C0.1201
; #@! TA.AperFunction,NonPlated,NPTH,ComponentDrill
T7C0.1570
; #@! TA.AperFunction,NonPlated,NPTH,ComponentDrill
T8C0.1575
%
G90
G05
T1
X2.605Y-1.1251
X2.8325Y-1.1251
T2
X1.3Y-1.5
X1.3Y-2.25
X1.3Y-3.0
X1.3Y-3.75
X1.3Y-4.5
X1.7Y-1.5
X1.7Y-2.25
X1.7Y-3.0
X1.7Y-3.75
X1.7Y-4.5
X2.05Y-1.5
X2.05Y-2.25
X2.05Y-3.0
X2.05Y-3.75
X2.05Y-4.5
X2.45Y-1.5
X2.45Y-2.25
X2.45Y-3.0
X2.45Y-3.75
X2.45Y-4.5
X2.9875Y-1.5
X3.0812Y-3.0
X3.0812Y-3.75
X3.0812Y-4.5
X3.175Y-2.25
X3.2687Y-3.0
X3.3875Y-1.5
X3.4562Y-3.75
X3.4812Y-3.0
X3.4812Y-3.75
X3.4812Y-4.5
X3.575Y-2.25
X3.6687Y-3.0
X3.7375Y-1.5
X3.8562Y-3.75
X3.925Y-3.75
X4.0187Y-4.5
X4.1125Y-2.25
X4.1375Y-1.5
X4.3Y-3.0
X4.325Y-3.75
X4.4188Y-4.5
X4.4875Y-1.5
X4.5125Y-2.25
X4.675Y-3.75
X4.7Y-3.0
X4.8625Y-2.25
X4.8875Y-1.5
X4.9562Y-4.5
X5.05Y-3.0
X5.075Y-3.75
X5.2375Y-1.5
X5.2625Y-2.25
X5.3563Y-4.5
X5.425Y-3.75
X5.45Y-3.0
X5.6125Y-2.25
X5.6375Y-1.5
X5.8Y-3.0
X5.825Y-3.75
X5.9875Y-1.5
X6.0125Y-2.25
X6.175Y-3.75
X6.2Y-3.0
X6.2687Y-4.5
X6.3625Y-2.25
X6.3875Y-1.5
X6.55Y-3.0
X6.575Y-3.75
X6.6688Y-4.5
X6.7375Y-1.5
X6.7625Y-2.25
X6.925Y-3.75
X6.95Y-3.0
X7.1125Y-2.25
X7.1375Y-1.5
X7.3Y-3.0
X7.325Y-3.75
X7.4875Y-1.5
X7.5125Y-2.25
X7.5812Y-4.5
X7.675Y-3.75
X7.7Y-3.0
X7.769Y-4.5
X7.8625Y-2.25
X7.8875Y-1.5
X7.9813Y-4.5
X8.05Y-3.0
X8.075Y-3.75
X8.169Y-4.5
X8.2375Y-1.5
X8.2625Y-2.25
X8.425Y-3.75
X8.45Y-3.0
X8.6125Y-2.25
X8.6375Y-1.5
X8.8Y-3.0
X8.825Y-3.75
X8.9875Y-1.5
X9.0125Y-2.25
X9.0812Y-4.5
X9.175Y-3.75
X9.2Y-3.0
X9.3625Y-2.25
X9.3875Y-1.5
X9.4812Y-4.5
X9.55Y-3.0
X9.575Y-3.75
X9.7375Y-1.5
X9.7625Y-2.25
X9.925Y-3.75
X9.95Y-3.0
X10.1125Y-2.25
X10.1375Y-1.5
X10.3Y-3.0
X10.325Y-3.75
X10.4875Y-1.5
X10.4875Y-4.5
X10.5125Y-2.25
X10.675Y-3.75
X10.7Y-3.0
X10.8625Y-2.25
X10.8875Y-1.5
X10.8875Y-4.5
X11.05Y-3.0
X11.075Y-3.75
X11.2375Y-1.5
X11.2625Y-2.25
X11.425Y-3.75
X11.45Y-3.0
X11.6125Y-2.25
X11.6375Y-1.5
X11.8Y-3.0
X11.825Y-3.75
X11.9875Y-1.5
X12.0125Y-2.25
X12.2Y-3.0
X12.3625Y-2.25
X12.3875Y-1.5
X12.4562Y-3.75
X12.7375Y-1.5
X12.7375Y-4.5
X12.75Y-2.8
X12.75Y-3.2
X12.7625Y-2.25
X12.8562Y-3.75
X13.1123Y-1.5
X13.1375Y-1.5
X13.1375Y-4.5
X13.2188Y-2.8
X13.2188Y-3.2
X13.4875Y-1.5
X13.4875Y-3.75
X13.4875Y-4.5
X13.5Y-2.05
X13.5Y-2.45
X13.5123Y-1.5
X13.5938Y-2.425
X13.5938Y-2.825
X13.8875Y-1.5
X13.8875Y-3.75
X13.8875Y-4.5
X14.2375Y-1.5
X14.2375Y-2.25
X14.2375Y-3.0
X14.2375Y-3.75
X14.2375Y-4.5
X14.6375Y-1.5
X14.6375Y-2.25
X14.6375Y-3.0
X14.6375Y-3.75
X14.6375Y-4.5
T3
X3.1313Y-2.9
X3.1313Y-4.4
X3.1812Y-3.95
X3.225Y-2.15
X3.3687Y-3.2
X3.3813Y-2.8
X3.3813Y-4.3
X3.4312Y-3.85
X3.475Y-2.05
X3.5063Y-3.65
X3.6187Y-3.1
X3.7563Y-3.55
X4.0687Y-4.4
X4.3187Y-4.3
X5.0062Y-4.4
X5.2562Y-4.3
X6.3187Y-4.4
X6.5687Y-4.3
X7.6312Y-4.4
X7.869Y-4.7
X7.8812Y-4.3
X8.119Y-4.6
X9.1312Y-4.4
X9.3812Y-4.3
X12.5062Y-3.65
X12.7562Y-3.55
X13.0187Y-2.9
X13.1188Y-3.15
X13.1623Y-1.4
X13.4123Y-1.3
T4
X1.35Y-1.4
X1.35Y-2.15
X1.35Y-2.9
X1.35Y-3.65
X1.35Y-4.4
X1.6Y-1.3
X1.6Y-2.05
X1.6Y-2.8
X1.6Y-3.55
X1.6Y-4.3
X2.1Y-1.4
X2.1Y-2.15
X2.1Y-2.9
X2.1Y-3.65
X2.1Y-4.4
X2.35Y-1.3
X2.35Y-2.05
X2.35Y-2.8
X2.35Y-3.55
X2.35Y-4.3
X3.0375Y-1.4
X3.2875Y-1.3
X3.7875Y-1.4
X4.025Y-3.95
X4.0375Y-1.3
X4.1625Y-2.15
X4.275Y-3.85
X4.35Y-2.9
X4.4125Y-2.05
X4.5375Y-1.4
X4.6Y-2.8
X4.725Y-3.65
X4.7875Y-1.3
X4.9125Y-2.15
X4.975Y-3.55
X5.1Y-2.9
X5.1625Y-2.05
X5.2875Y-1.4
X5.35Y-2.8
X5.475Y-3.65
X5.5375Y-1.3
X5.6625Y-2.15
X5.725Y-3.55
X5.85Y-2.9
X5.9125Y-2.05
X6.0375Y-1.4
X6.1Y-2.8
X6.225Y-3.65
X6.2875Y-1.3
X6.4125Y-2.15
X6.475Y-3.55
X6.6Y-2.9
X6.6625Y-2.05
X6.7875Y-1.4
X6.85Y-2.8
X6.975Y-3.65
X7.0375Y-1.3
X7.1625Y-2.15
X7.225Y-3.55
X7.35Y-2.9
X7.4125Y-2.05
X7.5375Y-1.4
X7.6Y-2.8
X7.725Y-3.65
X7.7875Y-1.3
X7.9125Y-2.15
X7.975Y-3.55
X8.1Y-2.9
X8.1625Y-2.05
X8.2875Y-1.4
X8.35Y-2.8
X8.475Y-3.65
X8.5375Y-1.3
X8.6625Y-2.15
X8.725Y-3.55
X8.85Y-2.9
X8.9125Y-2.05
X9.0375Y-1.4
X9.1Y-2.8
X9.225Y-3.65
X9.2875Y-1.3
X9.4125Y-2.15
X9.475Y-3.55
X9.6Y-2.9
X9.6625Y-2.05
X9.7875Y-1.4
X9.85Y-2.8
X9.975Y-3.65
X10.0375Y-1.3
X10.1625Y-2.15
X10.225Y-3.55
X10.35Y-2.9
X10.4125Y-2.05
X10.5375Y-1.4
X10.5375Y-4.4
X10.6Y-2.8
X10.725Y-3.65
X10.7875Y-1.3
X10.7875Y-4.3
X10.9125Y-2.15
X10.975Y-3.55
X11.1Y-2.9
X11.1625Y-2.05
X11.2875Y-1.4
X11.35Y-2.8
X11.475Y-3.65
X11.5375Y-1.3
X11.6625Y-2.15
X11.725Y-3.55
X11.85Y-2.9
X11.9125Y-2.05
X12.0375Y-1.4
X12.1Y-2.8
X12.2875Y-1.3
X12.4125Y-2.15
X12.55Y-2.9
X12.65Y-3.15
X12.6625Y-2.05
X12.7875Y-4.4
X12.8375Y-1.7
X13.0375Y-4.3
X13.0875Y-1.6
X13.3937Y-2.525
X13.4938Y-2.775
X13.5375Y-3.65
X13.5375Y-4.4
X13.5875Y-1.7
X13.6Y-2.1
X13.7Y-2.35
X13.7875Y-3.55
X13.7875Y-4.3
X13.8375Y-1.6
X14.2875Y-1.4
X14.2875Y-2.15
X14.2875Y-2.9
X14.2875Y-3.65
X14.2875Y-4.4
X14.5375Y-1.3
X14.5375Y-2.05
X14.5375Y-2.8
X14.5375Y-3.55
X14.5375Y-4.3
T5
X3.1862Y-3.475
X4.1262Y-3.475
X5.9988Y-4.775
X5.999Y-4.775
X6.9387Y-4.775
X8.8112Y-4.775
X9.7513Y-4.775
X9.939Y-4.775
X12.7487Y-2.725
X12.8425Y-1.225
X13.6887Y-2.725
X13.7825Y-1.225
T6
X13.3182Y-2.1565
X13.3182Y-3.0935
T7
X3.1862Y-4.075
X4.1262Y-4.075
X5.9988Y-4.175
X5.999Y-4.175
X6.9387Y-4.175
X8.8112Y-4.175
X9.7513Y-4.175
X9.939Y-4.175
X12.7487Y-3.325
X12.8425Y-1.825
X13.6887Y-3.325
X13.7825Y-1.825
T8
X1.5Y-1.5
X1.5Y-2.25
X1.5Y-3.0
X1.5Y-3.75
X1.5Y-4.5
X2.25Y-1.5
X2.25Y-2.25
X2.25Y-3.0
X2.25Y-3.75
X2.25Y-4.5
X3.1875Y-1.5
X3.2812Y-3.0
X3.2812Y-3.75
X3.2812Y-4.5
X3.375Y-2.25
X3.4688Y-3.0
X3.6562Y-3.75
X3.9375Y-1.5
X4.125Y-3.75
X4.2188Y-4.5
X4.3125Y-2.25
X4.5Y-3.0
X4.6875Y-1.5
X4.875Y-3.75
X5.0625Y-2.25
X5.1562Y-4.5
X5.25Y-3.0
X5.4375Y-1.5
X5.625Y-3.75
X5.8125Y-2.25
X6.0Y-3.0
X6.1875Y-1.5
X6.375Y-3.75
X6.4688Y-4.5
X6.5625Y-2.25
X6.75Y-3.0
X6.9375Y-1.5
X7.125Y-3.75
X7.3125Y-2.25
X7.5Y-3.0
X7.6875Y-1.5
X7.7812Y-4.5
X7.875Y-3.75
X7.969Y-4.5
X8.0625Y-2.25
X8.25Y-3.0
X8.4375Y-1.5
X8.625Y-3.75
X8.8125Y-2.25
X9.0Y-3.0
X9.1875Y-1.5
X9.2812Y-4.5
X9.375Y-3.75
X9.5625Y-2.25
X9.75Y-3.0
X9.9375Y-1.5
X10.125Y-3.75
X10.3125Y-2.25
X10.5Y-3.0
X10.6875Y-1.5
X10.6875Y-4.5
X10.875Y-3.75
X11.0625Y-2.25
X11.25Y-3.0
X11.4375Y-1.5
X11.625Y-3.75
X11.8125Y-2.25
X12.0Y-3.0
X12.1875Y-1.5
X12.5625Y-2.25
X12.6562Y-3.75
X12.75Y-3.0
X12.9375Y-1.5
X12.9375Y-4.5
X13.2188Y-3.0
X13.3123Y-1.5
X13.5Y-2.25
X13.5938Y-2.625
X13.6875Y-1.5
X13.6875Y-3.75
X13.6875Y-4.5
X13.9182Y-2.1565
X13.9182Y-3.0935
X14.4375Y-1.5
X14.4375Y-2.25
X14.4375Y-3.0
X14.4375Y-3.75
X14.4375Y-4.5
T0
M30
