%TF.GenerationSoftware,KiCad,Pcbnew,(5.99.0-11177-g6c67dfa032)*%
%TF.CreationDate,2021-09-17T12:08:35+03:00*%
%TF.ProjectId,SunsetterR2_Hotswap,53756e73-6574-4746-9572-52325f486f74,rev?*%
%TF.SameCoordinates,Original*%
%TF.FileFunction,Soldermask,Bot*%
%TF.FilePolarity,Negative*%
%FSLAX46Y46*%
G04 Gerber Fmt 4.6, Leading zero omitted, Abs format (unit mm)*
G04 Created by KiCad (PCBNEW (5.99.0-11177-g6c67dfa032)) date 2021-09-17 12:08:35*
%MOMM*%
%LPD*%
G01*
G04 APERTURE LIST*
G04 Aperture macros list*
%AMRoundRect*
0 Rectangle with rounded corners*
0 $1 Rounding radius*
0 $2 $3 $4 $5 $6 $7 $8 $9 X,Y pos of 4 corners*
0 Add a 4 corners polygon primitive as box body*
4,1,4,$2,$3,$4,$5,$6,$7,$8,$9,$2,$3,0*
0 Add four circle primitives for the rounded corners*
1,1,$1+$1,$2,$3*
1,1,$1+$1,$4,$5*
1,1,$1+$1,$6,$7*
1,1,$1+$1,$8,$9*
0 Add four rect primitives between the rounded corners*
20,1,$1+$1,$2,$3,$4,$5,0*
20,1,$1+$1,$4,$5,$6,$7,0*
20,1,$1+$1,$6,$7,$8,$9,0*
20,1,$1+$1,$8,$9,$2,$3,0*%
%AMRotRect*
0 Rectangle, with rotation*
0 The origin of the aperture is its center*
0 $1 length*
0 $2 width*
0 $3 Rotation angle, in degrees counterclockwise*
0 Add horizontal line*
21,1,$1,$2,0,0,$3*%
G04 Aperture macros list end*
%ADD10C,3.987800*%
%ADD11C,3.048000*%
%ADD12C,3.050000*%
%ADD13C,4.000000*%
%ADD14R,1.500000X1.000000*%
%ADD15C,1.700000*%
%ADD16C,3.000000*%
%ADD17C,1.200000*%
%ADD18R,2.550000X2.500000*%
%ADD19R,2.200000X2.500000*%
%ADD20RoundRect,0.200000X-0.275000X0.200000X-0.275000X-0.200000X0.275000X-0.200000X0.275000X0.200000X0*%
%ADD21RoundRect,0.225000X0.250000X-0.225000X0.250000X0.225000X-0.250000X0.225000X-0.250000X-0.225000X0*%
%ADD22R,2.500000X2.550000*%
%ADD23RoundRect,0.150000X-0.150000X0.587500X-0.150000X-0.587500X0.150000X-0.587500X0.150000X0.587500X0*%
%ADD24C,2.950000*%
%ADD25RoundRect,0.225000X0.225000X0.250000X-0.225000X0.250000X-0.225000X-0.250000X0.225000X-0.250000X0*%
%ADD26R,1.700000X1.000000*%
%ADD27RoundRect,0.225000X-0.250000X0.225000X-0.250000X-0.225000X0.250000X-0.225000X0.250000X0.225000X0*%
%ADD28R,1.400000X1.200000*%
%ADD29R,0.375000X0.500000*%
%ADD30R,0.300000X0.650000*%
%ADD31R,1.700000X1.700000*%
%ADD32O,1.700000X1.700000*%
%ADD33RoundRect,0.243750X-0.456250X0.243750X-0.456250X-0.243750X0.456250X-0.243750X0.456250X0.243750X0*%
%ADD34C,0.650000*%
%ADD35R,0.600000X1.450000*%
%ADD36R,0.300000X1.450000*%
%ADD37O,1.000000X2.100000*%
%ADD38O,1.000000X1.600000*%
%ADD39RoundRect,0.200000X0.275000X-0.200000X0.275000X0.200000X-0.275000X0.200000X-0.275000X-0.200000X0*%
%ADD40RoundRect,0.225000X-0.225000X-0.250000X0.225000X-0.250000X0.225000X0.250000X-0.225000X0.250000X0*%
%ADD41RoundRect,0.200000X0.200000X0.275000X-0.200000X0.275000X-0.200000X-0.275000X0.200000X-0.275000X0*%
%ADD42RotRect,1.500000X0.550000X315.000000*%
%ADD43RotRect,1.500000X0.550000X225.000000*%
%ADD44RoundRect,0.200000X-0.200000X-0.275000X0.200000X-0.275000X0.200000X0.275000X-0.200000X0.275000X0*%
%ADD45RoundRect,0.218750X-0.381250X0.218750X-0.381250X-0.218750X0.381250X-0.218750X0.381250X0.218750X0*%
G04 APERTURE END LIST*
%TO.C,G\u002A\u002A\u002A*%
G36*
X311274163Y-110428049D02*
G01*
X311274246Y-110588510D01*
X311274781Y-110886123D01*
X311276081Y-111138895D01*
X311278484Y-111351405D01*
X311282329Y-111528236D01*
X311287955Y-111673966D01*
X311295699Y-111793178D01*
X311305899Y-111890451D01*
X311318895Y-111970367D01*
X311335023Y-112037505D01*
X311354622Y-112096447D01*
X311378030Y-112151774D01*
X311405587Y-112208065D01*
X311408366Y-112213438D01*
X311490520Y-112337429D01*
X311601917Y-112461738D01*
X311726376Y-112570298D01*
X311847716Y-112647042D01*
X312032760Y-112717066D01*
X312270016Y-112762358D01*
X312518601Y-112767553D01*
X312765762Y-112731479D01*
X312853928Y-112708037D01*
X313037253Y-112635411D01*
X313185607Y-112535077D01*
X313304482Y-112401472D01*
X313399367Y-112229032D01*
X313475756Y-112012194D01*
X313484830Y-111979134D01*
X313495074Y-111935380D01*
X313503682Y-111886635D01*
X313510841Y-111828235D01*
X313516739Y-111755518D01*
X313521563Y-111663819D01*
X313525502Y-111548475D01*
X313528743Y-111404822D01*
X313531474Y-111228198D01*
X313533882Y-111013939D01*
X313536155Y-110757381D01*
X313538481Y-110453862D01*
X313548586Y-109079319D01*
X314500407Y-109079319D01*
X314500407Y-110216707D01*
X314500067Y-110452742D01*
X314497932Y-110800738D01*
X314493627Y-111104194D01*
X314486910Y-111367494D01*
X314477538Y-111595020D01*
X314465268Y-111791154D01*
X314449857Y-111960280D01*
X314431064Y-112106780D01*
X314408646Y-112235037D01*
X314382359Y-112349433D01*
X314283973Y-112647756D01*
X314153693Y-112906390D01*
X313991457Y-113124573D01*
X313796927Y-113302613D01*
X313569761Y-113440824D01*
X313309618Y-113539516D01*
X313016159Y-113599001D01*
X313004912Y-113600381D01*
X312871580Y-113609745D01*
X312711146Y-113611572D01*
X312539327Y-113606578D01*
X312371837Y-113595480D01*
X312224391Y-113578994D01*
X312112704Y-113557834D01*
X311959191Y-113509449D01*
X311693398Y-113385938D01*
X311449909Y-113220415D01*
X311273781Y-113078110D01*
X311273781Y-113570782D01*
X310344513Y-113570782D01*
X310344513Y-109079319D01*
X311273781Y-109079319D01*
X311274163Y-110428049D01*
G37*
G36*
X307493763Y-109058130D02*
G01*
X307774946Y-109114122D01*
X308034252Y-109204863D01*
X308264726Y-109328420D01*
X308459410Y-109482861D01*
X308489694Y-109511167D01*
X308540289Y-109553221D01*
X308569116Y-109569766D01*
X308574315Y-109561406D01*
X308581987Y-109512605D01*
X308587265Y-109429914D01*
X308589228Y-109324543D01*
X308589228Y-109079319D01*
X309518496Y-109079319D01*
X309518496Y-113570782D01*
X308589228Y-113570782D01*
X308589228Y-112176066D01*
X308589226Y-112098456D01*
X308589119Y-111805623D01*
X308588740Y-111558783D01*
X308587933Y-111353396D01*
X308586540Y-111184919D01*
X308584403Y-111048810D01*
X308581366Y-110940527D01*
X308577272Y-110855529D01*
X308571964Y-110789273D01*
X308565285Y-110737217D01*
X308557077Y-110694820D01*
X308547184Y-110657539D01*
X308535448Y-110620832D01*
X308481685Y-110484730D01*
X308365305Y-110288589D01*
X308212864Y-110127712D01*
X308021347Y-109998449D01*
X307922917Y-109955117D01*
X307746561Y-109908583D01*
X307548676Y-109884511D01*
X307342929Y-109882767D01*
X307142983Y-109903219D01*
X306962506Y-109945733D01*
X306815162Y-110010178D01*
X306704722Y-110084645D01*
X306592060Y-110190278D01*
X306503473Y-110317863D01*
X306432453Y-110477224D01*
X306372488Y-110678187D01*
X306361982Y-110721300D01*
X306351441Y-110770625D01*
X306342717Y-110823008D01*
X306335637Y-110883306D01*
X306330032Y-110956374D01*
X306325729Y-111047071D01*
X306322557Y-111160252D01*
X306320346Y-111300775D01*
X306318925Y-111473496D01*
X306318121Y-111683273D01*
X306317764Y-111934962D01*
X306317683Y-112233420D01*
X306317683Y-113570782D01*
X305357694Y-113570782D01*
X305369532Y-112196240D01*
X305370582Y-112076249D01*
X305373311Y-111787848D01*
X305376076Y-111544174D01*
X305379075Y-111340201D01*
X305382507Y-111170904D01*
X305386571Y-111031258D01*
X305391468Y-110916237D01*
X305397395Y-110820816D01*
X305404552Y-110739970D01*
X305413139Y-110668674D01*
X305423354Y-110601901D01*
X305435397Y-110534628D01*
X305442770Y-110496286D01*
X305503506Y-110235953D01*
X305577243Y-110015779D01*
X305668484Y-109826184D01*
X305781732Y-109657590D01*
X305921488Y-109500416D01*
X305939959Y-109482135D01*
X306101855Y-109341080D01*
X306269752Y-109232738D01*
X306454636Y-109152208D01*
X306667488Y-109094584D01*
X306919293Y-109054964D01*
X307197659Y-109038819D01*
X307493763Y-109058130D01*
G37*
G36*
X317293010Y-109037741D02*
G01*
X317591312Y-109067903D01*
X317882637Y-109130532D01*
X318138217Y-109225246D01*
X318361486Y-109353345D01*
X318555878Y-109516131D01*
X318613199Y-109575823D01*
X318748134Y-109748240D01*
X318842258Y-109929939D01*
X318903067Y-110134269D01*
X318932284Y-110322058D01*
X318934354Y-110577769D01*
X318889707Y-110813263D01*
X318799193Y-111026715D01*
X318663658Y-111216299D01*
X318483951Y-111380190D01*
X318260919Y-111516565D01*
X318212122Y-111540303D01*
X318128833Y-111577159D01*
X318041473Y-111609977D01*
X317943329Y-111640418D01*
X317827688Y-111670149D01*
X317687838Y-111700831D01*
X317517064Y-111734130D01*
X317308654Y-111771708D01*
X317055895Y-111815231D01*
X317039624Y-111817999D01*
X316814718Y-111858240D01*
X316634583Y-111895710D01*
X316493069Y-111933115D01*
X316384031Y-111973157D01*
X316301319Y-112018541D01*
X316238788Y-112071969D01*
X316190288Y-112136145D01*
X316149673Y-112213773D01*
X316121465Y-112284562D01*
X316104839Y-112375608D01*
X316118649Y-112468162D01*
X316163634Y-112581759D01*
X316248699Y-112713795D01*
X316379865Y-112827691D01*
X316549681Y-112910112D01*
X316756327Y-112960197D01*
X316997984Y-112977083D01*
X317070735Y-112975617D01*
X317304569Y-112949057D01*
X317510098Y-112890627D01*
X317679789Y-112802257D01*
X317727410Y-112764841D01*
X317817902Y-112672402D01*
X317901415Y-112563446D01*
X317966479Y-112453767D01*
X318001625Y-112359155D01*
X318017429Y-112280132D01*
X319042206Y-112280132D01*
X319027286Y-112364024D01*
X319015527Y-112425655D01*
X318958001Y-112640221D01*
X318876979Y-112825551D01*
X318765857Y-112997647D01*
X318686225Y-113090479D01*
X318562248Y-113209326D01*
X318425576Y-113320110D01*
X318294919Y-113406583D01*
X318244382Y-113432927D01*
X318105988Y-113491937D01*
X317942409Y-113548893D01*
X317771440Y-113597902D01*
X317610874Y-113633073D01*
X317478907Y-113651328D01*
X317263873Y-113667263D01*
X317028743Y-113672235D01*
X316791160Y-113666391D01*
X316568770Y-113649878D01*
X316379219Y-113622841D01*
X316159527Y-113572992D01*
X315874784Y-113479514D01*
X315633359Y-113360701D01*
X315433568Y-113215248D01*
X315273724Y-113041850D01*
X315152145Y-112839200D01*
X315067146Y-112605994D01*
X315047529Y-112523620D01*
X315018985Y-112285680D01*
X315030051Y-112051976D01*
X315078576Y-111830224D01*
X315162409Y-111628136D01*
X315279401Y-111453429D01*
X315427399Y-111313815D01*
X315454792Y-111294026D01*
X315537658Y-111238849D01*
X315623949Y-111190128D01*
X315719599Y-111145982D01*
X315830545Y-111104531D01*
X315962721Y-111063896D01*
X316122062Y-111022195D01*
X316314505Y-110977549D01*
X316545985Y-110928078D01*
X316822436Y-110871900D01*
X317037658Y-110827752D01*
X317230541Y-110784728D01*
X317384683Y-110745030D01*
X317506510Y-110706303D01*
X317602449Y-110666192D01*
X317678925Y-110622343D01*
X317742363Y-110572402D01*
X317799190Y-110514014D01*
X317874329Y-110398621D01*
X317905817Y-110271985D01*
X317890350Y-110145496D01*
X317829726Y-110024820D01*
X317725742Y-109915624D01*
X317580195Y-109823575D01*
X317573035Y-109820052D01*
X317501198Y-109785895D01*
X317441527Y-109762782D01*
X317381265Y-109748576D01*
X317307652Y-109741142D01*
X317207931Y-109738342D01*
X317069344Y-109738042D01*
X316978262Y-109738431D01*
X316861915Y-109740890D01*
X316777378Y-109747144D01*
X316712316Y-109758952D01*
X316654389Y-109778076D01*
X316591261Y-109806276D01*
X316511866Y-109848554D01*
X316363742Y-109962411D01*
X316258627Y-110103091D01*
X316194330Y-110273171D01*
X316177269Y-110344156D01*
X315700220Y-110344156D01*
X315659099Y-110344190D01*
X315494119Y-110344425D01*
X315373919Y-110342277D01*
X315292874Y-110334337D01*
X315245355Y-110317199D01*
X315225736Y-110287458D01*
X315228390Y-110241705D01*
X315247691Y-110176535D01*
X315278011Y-110088540D01*
X315303951Y-110015854D01*
X315385477Y-109836361D01*
X315488308Y-109681226D01*
X315624892Y-109530419D01*
X315774249Y-109401984D01*
X316012346Y-109254931D01*
X316284871Y-109144508D01*
X316590224Y-109071186D01*
X316926803Y-109035440D01*
X317293010Y-109037741D01*
G37*
%TD*%
D10*
%TO.C,>NAME*%
X176244250Y-106045000D03*
D11*
X152368250Y-121285000D03*
X176244250Y-121285000D03*
D10*
X152368250Y-106045000D03*
%TD*%
%TO.C,>NAME*%
X252450500Y-106045000D03*
D11*
X152374500Y-121285000D03*
D10*
X152374500Y-106045000D03*
D11*
X252450500Y-121285000D03*
%TD*%
D10*
%TO.C,>NAME*%
X247681750Y-106045000D03*
D11*
X247681750Y-121285000D03*
X223805750Y-121285000D03*
D10*
X223805750Y-106045000D03*
%TD*%
%TO.C,>NAME*%
X323818250Y-84455000D03*
D11*
X347694250Y-69215000D03*
X323818250Y-69215000D03*
D10*
X347694250Y-84455000D03*
%TD*%
D12*
%TO.C,REF\u002A\u002A*%
X338281250Y-54775000D03*
X338281250Y-78575000D03*
D13*
X353521250Y-54775000D03*
X353521250Y-78575000D03*
%TD*%
D10*
%TO.C,>NAME*%
X104806750Y-103505000D03*
D11*
X80930750Y-88265000D03*
X104806750Y-88265000D03*
D10*
X80930750Y-103505000D03*
%TD*%
%TO.C,ST72*%
X350075500Y-46355000D03*
X326199500Y-46355000D03*
D11*
X326199500Y-31115000D03*
X350075500Y-31115000D03*
%TD*%
D14*
%TO.C,RGB5*%
X342968750Y-46025000D03*
X342968750Y-49225000D03*
X338068750Y-49225000D03*
X338068750Y-46025000D03*
%TD*%
%TO.C,RGB8*%
X199956250Y-106375000D03*
X199956250Y-103175000D03*
X204856250Y-103175000D03*
X204856250Y-106375000D03*
%TD*%
D15*
%TO.C,K21*%
X114617500Y-57150000D03*
D13*
X109537500Y-57150000D03*
D16*
X105727500Y-54610000D03*
D15*
X104457500Y-57150000D03*
D16*
X112077500Y-52070000D03*
D17*
X102177500Y-54610000D03*
D18*
X102177500Y-54610000D03*
X115627500Y-52070000D03*
D17*
X115627500Y-52070000D03*
%TD*%
D15*
%TO.C,K80*%
X361632500Y-95250000D03*
D13*
X366712500Y-95250000D03*
D16*
X369252500Y-90170000D03*
X362902500Y-92710000D03*
D15*
X371792500Y-95250000D03*
D18*
X359352500Y-92710000D03*
D17*
X359352500Y-92710000D03*
D18*
X372802500Y-90170000D03*
D17*
X372802500Y-90170000D03*
%TD*%
D15*
%TO.C,K35*%
X43180000Y-76200000D03*
X33020000Y-76200000D03*
D13*
X38100000Y-76200000D03*
D16*
X40640000Y-71120000D03*
X34290000Y-73660000D03*
D19*
X30915000Y-73660000D03*
D17*
X30740000Y-73660000D03*
D18*
X44190000Y-71120000D03*
D17*
X44190000Y-71120000D03*
%TD*%
D16*
%TO.C,K30*%
X277177500Y-54610000D03*
D13*
X280987500Y-57150000D03*
D15*
X286067500Y-57150000D03*
D16*
X283527500Y-52070000D03*
D15*
X275907500Y-57150000D03*
D17*
X273627500Y-54610000D03*
D18*
X273627500Y-54610000D03*
D17*
X287077500Y-52070000D03*
D18*
X287077500Y-52070000D03*
%TD*%
D20*
%TO.C,R6*%
X67792600Y-38494200D03*
X67792600Y-40144200D03*
%TD*%
D13*
%TO.C,K31*%
X300037500Y-57150000D03*
D16*
X296227500Y-54610000D03*
D15*
X305117500Y-57150000D03*
X294957500Y-57150000D03*
D16*
X302577500Y-52070000D03*
D18*
X292677500Y-54610000D03*
D17*
X292677500Y-54610000D03*
X306127500Y-52070000D03*
D18*
X306127500Y-52070000D03*
%TD*%
D21*
%TO.C,C4*%
X74803000Y-55131000D03*
X74803000Y-53581000D03*
%TD*%
D13*
%TO.C,K33*%
X342900000Y-57150000D03*
D15*
X342900000Y-62230000D03*
D16*
X347980000Y-59690000D03*
X345440000Y-53340000D03*
D15*
X342900000Y-52070000D03*
D22*
X345440000Y-49790000D03*
D17*
X345440000Y-49790000D03*
X347980000Y-63240000D03*
D22*
X347980000Y-63240000D03*
%TD*%
D23*
%TO.C,KD20*%
X99062500Y-77643750D03*
X100962500Y-77643750D03*
X100012500Y-79518750D03*
%TD*%
D20*
%TO.C,R2*%
X70586600Y-32576000D03*
X70586600Y-34226000D03*
%TD*%
D23*
%TO.C,KD4*%
X165737500Y-39543750D03*
X167637500Y-39543750D03*
X166687500Y-41418750D03*
%TD*%
D15*
%TO.C,K73*%
X159226250Y-114300000D03*
D24*
X160496250Y-111760000D03*
X166846250Y-109220000D03*
D15*
X169386250Y-114300000D03*
D13*
X164306250Y-114300000D03*
D17*
X156946250Y-111760000D03*
D18*
X156946250Y-111760000D03*
X170396250Y-109220000D03*
D17*
X170396250Y-109220000D03*
%TD*%
D16*
%TO.C,K51*%
X40640000Y-90170000D03*
D13*
X38100000Y-95250000D03*
D16*
X34290000Y-92710000D03*
D15*
X43180000Y-95250000D03*
X33020000Y-95250000D03*
D19*
X30915000Y-92710000D03*
D17*
X30740000Y-92710000D03*
D18*
X44190000Y-90170000D03*
D17*
X44190000Y-90170000D03*
%TD*%
D16*
%TO.C,K78*%
X343852500Y-111760000D03*
D13*
X347662500Y-114300000D03*
D15*
X342582500Y-114300000D03*
D16*
X350202500Y-109220000D03*
D15*
X352742500Y-114300000D03*
D18*
X340302500Y-111760000D03*
D17*
X340302500Y-111760000D03*
X353752500Y-109220000D03*
D18*
X353752500Y-109220000D03*
%TD*%
D15*
%TO.C,K23*%
X142557500Y-57150000D03*
D16*
X150177500Y-52070000D03*
X143827500Y-54610000D03*
D13*
X147637500Y-57150000D03*
D15*
X152717500Y-57150000D03*
D18*
X140277500Y-54610000D03*
D17*
X140277500Y-54610000D03*
X153727500Y-52070000D03*
D18*
X153727500Y-52070000D03*
%TD*%
D15*
%TO.C,K58*%
X175895000Y-95250000D03*
D13*
X180975000Y-95250000D03*
D15*
X186055000Y-95250000D03*
D16*
X183515000Y-90170000D03*
X177165000Y-92710000D03*
D17*
X173615000Y-92710000D03*
D18*
X173615000Y-92710000D03*
D17*
X187065000Y-90170000D03*
D18*
X187065000Y-90170000D03*
%TD*%
D25*
%TO.C,C10*%
X346469000Y-46025000D03*
X344919000Y-46025000D03*
%TD*%
D13*
%TO.C,K56*%
X142875000Y-95250000D03*
D16*
X145415000Y-90170000D03*
D15*
X137795000Y-95250000D03*
X147955000Y-95250000D03*
D16*
X139065000Y-92710000D03*
D17*
X135515000Y-92710000D03*
D18*
X135515000Y-92710000D03*
D17*
X148965000Y-90170000D03*
D18*
X148965000Y-90170000D03*
%TD*%
D23*
%TO.C,KD13*%
X175262500Y-58593750D03*
X177162500Y-58593750D03*
X176212500Y-60468750D03*
%TD*%
D16*
%TO.C,K9*%
X191452500Y-35560000D03*
X197802500Y-33020000D03*
D15*
X200342500Y-38100000D03*
D13*
X195262500Y-38100000D03*
D15*
X190182500Y-38100000D03*
D17*
X187902500Y-35560000D03*
D18*
X187902500Y-35560000D03*
D17*
X201352500Y-33020000D03*
D18*
X201352500Y-33020000D03*
%TD*%
D21*
%TO.C,C6*%
X66167000Y-47575000D03*
X66167000Y-46025000D03*
%TD*%
D13*
%TO.C,K10*%
X214312500Y-38100000D03*
D16*
X210502500Y-35560000D03*
X216852500Y-33020000D03*
D15*
X209232500Y-38100000D03*
X219392500Y-38100000D03*
D17*
X206952500Y-35560000D03*
D18*
X206952500Y-35560000D03*
X220402500Y-33020000D03*
D17*
X220402500Y-33020000D03*
%TD*%
D23*
%TO.C,KD30*%
X170500000Y-96693750D03*
X172400000Y-96693750D03*
X171450000Y-98568750D03*
%TD*%
D15*
%TO.C,K6*%
X143192500Y-38100000D03*
D13*
X138112500Y-38100000D03*
D16*
X140652500Y-33020000D03*
X134302500Y-35560000D03*
D15*
X133032500Y-38100000D03*
D18*
X130752500Y-35560000D03*
D17*
X130752500Y-35560000D03*
D18*
X144202500Y-33020000D03*
D17*
X144202500Y-33020000D03*
%TD*%
D26*
%TO.C,SW1*%
X103162500Y-49525000D03*
X96862500Y-49525000D03*
X96862500Y-45725000D03*
X103162500Y-45725000D03*
%TD*%
D27*
%TO.C,C2*%
X69494400Y-70675200D03*
X69494400Y-72225200D03*
%TD*%
D23*
%TO.C,KD9*%
X356237500Y-45544500D03*
X358137500Y-45544500D03*
X357187500Y-47419500D03*
%TD*%
%TO.C,KD25*%
X294325000Y-77643750D03*
X296225000Y-77643750D03*
X295275000Y-79518750D03*
%TD*%
D14*
%TO.C,RGB1*%
X64362500Y-46025000D03*
X64362500Y-49225000D03*
X59462500Y-49225000D03*
X59462500Y-46025000D03*
%TD*%
D23*
%TO.C,KD18*%
X356237500Y-50116500D03*
X358137500Y-50116500D03*
X357187500Y-51991500D03*
%TD*%
D16*
%TO.C,K25*%
X188277500Y-52070000D03*
D15*
X190817500Y-57150000D03*
D13*
X185737500Y-57150000D03*
D16*
X181927500Y-54610000D03*
D15*
X180657500Y-57150000D03*
D18*
X178377500Y-54610000D03*
D17*
X178377500Y-54610000D03*
D18*
X191827500Y-52070000D03*
D17*
X191827500Y-52070000D03*
%TD*%
D23*
%TO.C,KD41*%
X356237500Y-115743750D03*
X358137500Y-115743750D03*
X357187500Y-117618750D03*
%TD*%
%TO.C,KD17*%
X327662500Y-58593750D03*
X329562500Y-58593750D03*
X328612500Y-60468750D03*
%TD*%
D15*
%TO.C,K67*%
X352742500Y-95250000D03*
D16*
X350202500Y-90170000D03*
D13*
X347662500Y-95250000D03*
D15*
X342582500Y-95250000D03*
D16*
X343852500Y-92710000D03*
D17*
X340302500Y-92710000D03*
D18*
X340302500Y-92710000D03*
D17*
X353752500Y-90170000D03*
D18*
X353752500Y-90170000D03*
%TD*%
D23*
%TO.C,KD31*%
X208600000Y-96693750D03*
X210500000Y-96693750D03*
X209550000Y-98568750D03*
%TD*%
D15*
%TO.C,K46*%
X261620000Y-76200000D03*
D16*
X269240000Y-71120000D03*
D15*
X271780000Y-76200000D03*
D16*
X262890000Y-73660000D03*
D13*
X266700000Y-76200000D03*
D17*
X259340000Y-73660000D03*
D18*
X259340000Y-73660000D03*
X272790000Y-71120000D03*
D17*
X272790000Y-71120000D03*
%TD*%
D14*
%TO.C,RGB4*%
X275103125Y-46025000D03*
X275103125Y-49225000D03*
X270203125Y-49225000D03*
X270203125Y-46025000D03*
%TD*%
D24*
%TO.C,K49*%
X330676250Y-73660000D03*
D15*
X335756250Y-81280000D03*
X335756250Y-71120000D03*
D13*
X335756250Y-76200000D03*
D24*
X333216250Y-80010000D03*
D17*
X333216250Y-83560000D03*
D22*
X333216250Y-83560000D03*
X330676250Y-70110000D03*
D17*
X330676250Y-70110000D03*
%TD*%
D15*
%TO.C,K11*%
X228282500Y-38100000D03*
D16*
X229552500Y-35560000D03*
D13*
X233362500Y-38100000D03*
D16*
X235902500Y-33020000D03*
D15*
X238442500Y-38100000D03*
D18*
X226002500Y-35560000D03*
D17*
X226002500Y-35560000D03*
D18*
X239452500Y-33020000D03*
D17*
X239452500Y-33020000D03*
%TD*%
D16*
%TO.C,K14*%
X286702500Y-35560000D03*
X293052500Y-33020000D03*
D15*
X285432500Y-38100000D03*
X295592500Y-38100000D03*
D13*
X290512500Y-38100000D03*
D17*
X283152500Y-35560000D03*
D18*
X283152500Y-35560000D03*
D17*
X296602500Y-33020000D03*
D18*
X296602500Y-33020000D03*
%TD*%
D27*
%TO.C,C17*%
X72263000Y-50279000D03*
X72263000Y-51829000D03*
%TD*%
D23*
%TO.C,KD39*%
X215743750Y-115743750D03*
X217643750Y-115743750D03*
X216693750Y-117618750D03*
%TD*%
D28*
%TO.C,Y1*%
X74084000Y-50204000D03*
X76284000Y-50204000D03*
X76284000Y-51904000D03*
X74084000Y-51904000D03*
%TD*%
D15*
%TO.C,K49A1*%
X323850000Y-71120000D03*
X323850000Y-81280000D03*
D13*
X323850000Y-76200000D03*
D16*
X318770000Y-73660000D03*
X321310000Y-80010000D03*
D22*
X321310000Y-83560000D03*
D17*
X321310000Y-83560000D03*
X318770000Y-70110000D03*
D22*
X318770000Y-70110000D03*
%TD*%
D23*
%TO.C,KD19*%
X46675000Y-77643750D03*
X48575000Y-77643750D03*
X47625000Y-79518750D03*
%TD*%
%TO.C,KD28*%
X93792000Y-99075000D03*
X95692000Y-99075000D03*
X94742000Y-100950000D03*
%TD*%
%TO.C,KD40*%
X278450000Y-115743750D03*
X280350000Y-115743750D03*
X279400000Y-117618750D03*
%TD*%
D29*
%TO.C,U1*%
X67991700Y-32601800D03*
D30*
X68529200Y-32526800D03*
D29*
X69066700Y-32601800D03*
X69066700Y-34301800D03*
D30*
X68529200Y-34376800D03*
D29*
X67991700Y-34301800D03*
%TD*%
D15*
%TO.C,K18*%
X43180000Y-57150000D03*
D16*
X34290000Y-54610000D03*
X40640000Y-52070000D03*
D15*
X33020000Y-57150000D03*
D13*
X38100000Y-57150000D03*
D19*
X30915000Y-54610000D03*
D17*
X30740000Y-54610000D03*
X44190000Y-52070000D03*
D18*
X44190000Y-52070000D03*
%TD*%
D20*
%TO.C,R7*%
X73533000Y-70549000D03*
X73533000Y-72199000D03*
%TD*%
D23*
%TO.C,KD26*%
X344331250Y-77643750D03*
X346231250Y-77643750D03*
X345281250Y-79518750D03*
%TD*%
D15*
%TO.C,K66*%
X361632500Y-76200000D03*
D16*
X362902500Y-73660000D03*
D15*
X371792500Y-76200000D03*
D16*
X369252500Y-71120000D03*
D13*
X366712500Y-76200000D03*
D18*
X359352500Y-73660000D03*
D17*
X359352500Y-73660000D03*
X372802500Y-71120000D03*
D18*
X372802500Y-71120000D03*
%TD*%
D14*
%TO.C,RGB7*%
X270203125Y-106375000D03*
X270203125Y-103175000D03*
X275103125Y-103175000D03*
X275103125Y-106375000D03*
%TD*%
D13*
%TO.C,K36*%
X57150000Y-76200000D03*
D16*
X59690000Y-71120000D03*
D15*
X62230000Y-76200000D03*
X52070000Y-76200000D03*
D16*
X53340000Y-73660000D03*
D18*
X49790000Y-73660000D03*
D17*
X49790000Y-73660000D03*
D18*
X63240000Y-71120000D03*
D17*
X63240000Y-71120000D03*
%TD*%
D15*
%TO.C,K32*%
X314007500Y-57150000D03*
D13*
X319087500Y-57150000D03*
D16*
X321627500Y-52070000D03*
D15*
X324167500Y-57150000D03*
D16*
X315277500Y-54610000D03*
D17*
X311727500Y-54610000D03*
D18*
X311727500Y-54610000D03*
X325177500Y-52070000D03*
D17*
X325177500Y-52070000D03*
%TD*%
D31*
%TO.C,LED1*%
X84633750Y-78182000D03*
D32*
X82093750Y-78182000D03*
%TD*%
D33*
%TO.C,F1*%
X66116200Y-36730700D03*
X66116200Y-38605700D03*
%TD*%
D23*
%TO.C,KD1*%
X46675000Y-39543750D03*
X48575000Y-39543750D03*
X47625000Y-41418750D03*
%TD*%
D21*
%TO.C,C7*%
X136398000Y-47575000D03*
X136398000Y-46025000D03*
%TD*%
D15*
%TO.C,K8*%
X171132500Y-38100000D03*
D13*
X176212500Y-38100000D03*
D16*
X178752500Y-33020000D03*
D15*
X181292500Y-38100000D03*
D16*
X172402500Y-35560000D03*
D17*
X168852500Y-35560000D03*
D18*
X168852500Y-35560000D03*
D17*
X182302500Y-33020000D03*
D18*
X182302500Y-33020000D03*
%TD*%
D23*
%TO.C,KD22*%
X180025000Y-77643750D03*
X181925000Y-77643750D03*
X180975000Y-79518750D03*
%TD*%
D24*
%TO.C,K72*%
X133508750Y-109220000D03*
D13*
X130968750Y-114300000D03*
D15*
X136048750Y-114300000D03*
X125888750Y-114300000D03*
D24*
X127158750Y-111760000D03*
D18*
X123608750Y-111760000D03*
D17*
X123608750Y-111760000D03*
D18*
X137058750Y-109220000D03*
D17*
X137058750Y-109220000D03*
%TD*%
D15*
%TO.C,K63*%
X271145000Y-95250000D03*
X281305000Y-95250000D03*
D16*
X272415000Y-92710000D03*
D13*
X276225000Y-95250000D03*
D16*
X278765000Y-90170000D03*
D18*
X268865000Y-92710000D03*
D17*
X268865000Y-92710000D03*
X282315000Y-90170000D03*
D18*
X282315000Y-90170000D03*
%TD*%
D21*
%TO.C,C9*%
X276987000Y-47638000D03*
X276987000Y-46088000D03*
%TD*%
D14*
%TO.C,RGB3*%
X204856250Y-46025000D03*
X204856250Y-49225000D03*
X199956250Y-49225000D03*
X199956250Y-46025000D03*
%TD*%
D13*
%TO.C,K53*%
X83343750Y-95250000D03*
D24*
X87153750Y-97790000D03*
D15*
X78263750Y-95250000D03*
D24*
X80803750Y-100330000D03*
D15*
X88423750Y-95250000D03*
D18*
X90703750Y-97790000D03*
D17*
X90703750Y-97790000D03*
X77253750Y-100330000D03*
D18*
X77253750Y-100330000D03*
%TD*%
D23*
%TO.C,KD32*%
X246700000Y-96693750D03*
X248600000Y-96693750D03*
X247650000Y-98568750D03*
%TD*%
%TO.C,KD6*%
X241937500Y-39543750D03*
X243837500Y-39543750D03*
X242887500Y-41418750D03*
%TD*%
%TO.C,KD36*%
X46675000Y-115743750D03*
X48575000Y-115743750D03*
X47625000Y-117618750D03*
%TD*%
D15*
%TO.C,K22*%
X123507500Y-57150000D03*
X133667500Y-57150000D03*
D13*
X128587500Y-57150000D03*
D16*
X131127500Y-52070000D03*
X124777500Y-54610000D03*
D17*
X121227500Y-54610000D03*
D18*
X121227500Y-54610000D03*
X134677500Y-52070000D03*
D17*
X134677500Y-52070000D03*
%TD*%
D15*
%TO.C,K7*%
X162242500Y-38100000D03*
D13*
X157162500Y-38100000D03*
D16*
X159702500Y-33020000D03*
D15*
X152082500Y-38100000D03*
D16*
X153352500Y-35560000D03*
D18*
X149802500Y-35560000D03*
D17*
X149802500Y-35560000D03*
D18*
X163252500Y-33020000D03*
D17*
X163252500Y-33020000D03*
%TD*%
D25*
%TO.C,C1*%
X63055800Y-64262000D03*
X61505800Y-64262000D03*
%TD*%
D16*
%TO.C,K13*%
X267652500Y-35560000D03*
D13*
X271462500Y-38100000D03*
D15*
X276542500Y-38100000D03*
X266382500Y-38100000D03*
D16*
X274002500Y-33020000D03*
D17*
X264102500Y-35560000D03*
D18*
X264102500Y-35560000D03*
D17*
X277552500Y-33020000D03*
D18*
X277552500Y-33020000D03*
%TD*%
D23*
%TO.C,KD2*%
X89537500Y-39543750D03*
X91437500Y-39543750D03*
X90487500Y-41418750D03*
%TD*%
D21*
%TO.C,C16*%
X78105000Y-51829000D03*
X78105000Y-50279000D03*
%TD*%
D14*
%TO.C,RGB6*%
X340450000Y-106375000D03*
X340450000Y-103175000D03*
X345350000Y-103175000D03*
X345350000Y-106375000D03*
%TD*%
D15*
%TO.C,K74A1*%
X207492500Y-114300000D03*
D24*
X199872500Y-119380000D03*
X206222500Y-116840000D03*
D15*
X197332500Y-114300000D03*
D13*
X202412500Y-114300000D03*
D17*
X209772500Y-116840000D03*
D18*
X209772500Y-116840000D03*
D17*
X196322500Y-119380000D03*
D18*
X196322500Y-119380000D03*
%TD*%
D15*
%TO.C,K27*%
X228917500Y-57150000D03*
D16*
X226377500Y-52070000D03*
D13*
X223837500Y-57150000D03*
D16*
X220027500Y-54610000D03*
D15*
X218757500Y-57150000D03*
D18*
X216477500Y-54610000D03*
D17*
X216477500Y-54610000D03*
D18*
X229927500Y-52070000D03*
D17*
X229927500Y-52070000D03*
%TD*%
D23*
%TO.C,KD15*%
X251462500Y-58593750D03*
X253362500Y-58593750D03*
X252412500Y-60468750D03*
%TD*%
D15*
%TO.C,K43*%
X214630000Y-76200000D03*
D16*
X205740000Y-73660000D03*
D15*
X204470000Y-76200000D03*
D16*
X212090000Y-71120000D03*
D13*
X209550000Y-76200000D03*
D17*
X202190000Y-73660000D03*
D18*
X202190000Y-73660000D03*
X215640000Y-71120000D03*
D17*
X215640000Y-71120000D03*
%TD*%
D14*
%TO.C,RGB2*%
X134609375Y-46025000D03*
X134609375Y-49225000D03*
X129709375Y-49225000D03*
X129709375Y-46025000D03*
%TD*%
D34*
%TO.C,J1*%
X71946250Y-28577600D03*
X66166250Y-28577600D03*
D35*
X65806250Y-30022600D03*
X66606250Y-30022600D03*
D36*
X67806250Y-30022600D03*
X68806250Y-30022600D03*
X69306250Y-30022600D03*
X70306250Y-30022600D03*
D35*
X71506250Y-30022600D03*
X72306250Y-30022600D03*
X72306250Y-30022600D03*
X71506250Y-30022600D03*
D36*
X70806250Y-30022600D03*
X69806250Y-30022600D03*
X68306250Y-30022600D03*
X67306250Y-30022600D03*
D35*
X66606250Y-30022600D03*
X65806250Y-30022600D03*
D37*
X73376250Y-29107600D03*
D38*
X64736250Y-24927600D03*
X73376250Y-24927600D03*
D37*
X64736250Y-29107600D03*
%TD*%
D24*
%TO.C,K71*%
X109696250Y-109220000D03*
D13*
X107156250Y-114300000D03*
D24*
X103346250Y-111760000D03*
D15*
X112236250Y-114300000D03*
X102076250Y-114300000D03*
D17*
X99796250Y-111760000D03*
D18*
X99796250Y-111760000D03*
X113246250Y-109220000D03*
D17*
X113246250Y-109220000D03*
%TD*%
D15*
%TO.C,K16A1*%
X343211250Y-38100000D03*
X333051250Y-38100000D03*
D13*
X338131250Y-38100000D03*
D24*
X340671250Y-33020000D03*
X334321250Y-35560000D03*
D17*
X330771250Y-35560000D03*
D18*
X330771250Y-35560000D03*
D17*
X344221250Y-33020000D03*
D18*
X344221250Y-33020000D03*
%TD*%
D15*
%TO.C,K29*%
X267017500Y-57150000D03*
D13*
X261937500Y-57150000D03*
D16*
X258127500Y-54610000D03*
X264477500Y-52070000D03*
D15*
X256857500Y-57150000D03*
D17*
X254577500Y-54610000D03*
D18*
X254577500Y-54610000D03*
D17*
X268027500Y-52070000D03*
D18*
X268027500Y-52070000D03*
%TD*%
D15*
%TO.C,K69*%
X52070000Y-114300000D03*
X62230000Y-114300000D03*
D16*
X59690000Y-109220000D03*
D13*
X57150000Y-114300000D03*
D16*
X53340000Y-111760000D03*
D18*
X49790000Y-111760000D03*
D17*
X49790000Y-111760000D03*
X63240000Y-109220000D03*
D18*
X63240000Y-109220000D03*
%TD*%
D16*
%TO.C,K59*%
X196215000Y-92710000D03*
D13*
X200025000Y-95250000D03*
D15*
X205105000Y-95250000D03*
X194945000Y-95250000D03*
D16*
X202565000Y-90170000D03*
D18*
X192665000Y-92710000D03*
D17*
X192665000Y-92710000D03*
D18*
X206115000Y-90170000D03*
D17*
X206115000Y-90170000D03*
%TD*%
D15*
%TO.C,K1*%
X33020000Y-38100000D03*
X43180000Y-38100000D03*
D16*
X34290000Y-35560000D03*
D13*
X38100000Y-38100000D03*
D16*
X40640000Y-33020000D03*
D19*
X30915000Y-35560000D03*
D17*
X30740000Y-35560000D03*
D18*
X44190000Y-33020000D03*
D17*
X44190000Y-33020000D03*
%TD*%
D16*
%TO.C,K77*%
X331152500Y-109220000D03*
X324802500Y-111760000D03*
D15*
X323532500Y-114300000D03*
D13*
X328612500Y-114300000D03*
D15*
X333692500Y-114300000D03*
D18*
X321252500Y-111760000D03*
D17*
X321252500Y-111760000D03*
D18*
X334702500Y-109220000D03*
D17*
X334702500Y-109220000D03*
%TD*%
D23*
%TO.C,KD34*%
X330043750Y-96693750D03*
X331943750Y-96693750D03*
X330993750Y-98568750D03*
%TD*%
%TO.C,KD12*%
X137162500Y-58593750D03*
X139062500Y-58593750D03*
X138112500Y-60468750D03*
%TD*%
D31*
%TO.C,LED1a1*%
X89396250Y-74143000D03*
D32*
X86856250Y-74143000D03*
%TD*%
D23*
%TO.C,KD16*%
X289562500Y-58593750D03*
X291462500Y-58593750D03*
X290512500Y-60468750D03*
%TD*%
D27*
%TO.C,C15*%
X57658000Y-104889000D03*
X57658000Y-106439000D03*
%TD*%
D15*
%TO.C,K20*%
X80645000Y-57150000D03*
X90805000Y-57150000D03*
D13*
X85725000Y-57150000D03*
D24*
X88265000Y-52070000D03*
X81915000Y-54610000D03*
D18*
X78365000Y-54610000D03*
D17*
X78365000Y-54610000D03*
D18*
X91815000Y-52070000D03*
D17*
X91815000Y-52070000D03*
%TD*%
D39*
%TO.C,R5*%
X69265800Y-40144200D03*
X69265800Y-38494200D03*
%TD*%
D40*
%TO.C,C3*%
X79616000Y-64643000D03*
X81166000Y-64643000D03*
%TD*%
D15*
%TO.C,K76*%
X276542500Y-114300000D03*
D16*
X267652500Y-111760000D03*
X274002500Y-109220000D03*
D15*
X266382500Y-114300000D03*
D13*
X271462500Y-114300000D03*
D17*
X264102500Y-111760000D03*
D18*
X264102500Y-111760000D03*
X277552500Y-109220000D03*
D17*
X277552500Y-109220000D03*
%TD*%
D16*
%TO.C,K45*%
X243840000Y-73660000D03*
X250190000Y-71120000D03*
D15*
X242570000Y-76200000D03*
D13*
X247650000Y-76200000D03*
D15*
X252730000Y-76200000D03*
D18*
X240290000Y-73660000D03*
D17*
X240290000Y-73660000D03*
X253740000Y-71120000D03*
D18*
X253740000Y-71120000D03*
%TD*%
D16*
%TO.C,K42*%
X186690000Y-73660000D03*
D15*
X195580000Y-76200000D03*
D16*
X193040000Y-71120000D03*
D13*
X190500000Y-76200000D03*
D15*
X185420000Y-76200000D03*
D17*
X183140000Y-73660000D03*
D18*
X183140000Y-73660000D03*
D17*
X196590000Y-71120000D03*
D18*
X196590000Y-71120000D03*
%TD*%
D23*
%TO.C,KD29*%
X132400000Y-96693750D03*
X134300000Y-96693750D03*
X133350000Y-98568750D03*
%TD*%
D15*
%TO.C,K16*%
X323532500Y-38100000D03*
D13*
X328612500Y-38100000D03*
D16*
X332422500Y-40640000D03*
X326072500Y-43180000D03*
D15*
X333692500Y-38100000D03*
D18*
X335972500Y-40640000D03*
D17*
X335972500Y-40640000D03*
X322522500Y-43180000D03*
D18*
X322522500Y-43180000D03*
%TD*%
D16*
%TO.C,K44*%
X224790000Y-73660000D03*
D15*
X223520000Y-76200000D03*
D16*
X231140000Y-71120000D03*
D13*
X228600000Y-76200000D03*
D15*
X233680000Y-76200000D03*
D18*
X221240000Y-73660000D03*
D17*
X221240000Y-73660000D03*
D18*
X234690000Y-71120000D03*
D17*
X234690000Y-71120000D03*
%TD*%
D16*
%TO.C,K3*%
X77152500Y-35560000D03*
D15*
X86042500Y-38100000D03*
D16*
X83502500Y-33020000D03*
D15*
X75882500Y-38100000D03*
D13*
X80962500Y-38100000D03*
D17*
X73602500Y-35560000D03*
D18*
X73602500Y-35560000D03*
X87052500Y-33020000D03*
D17*
X87052500Y-33020000D03*
%TD*%
D14*
%TO.C,RGB10*%
X59462500Y-106375000D03*
X59462500Y-103175000D03*
X64362500Y-103175000D03*
X64362500Y-106375000D03*
%TD*%
D23*
%TO.C,KD23*%
X218125000Y-77643750D03*
X220025000Y-77643750D03*
X219075000Y-79518750D03*
%TD*%
%TO.C,KD42*%
X356301000Y-100789500D03*
X358201000Y-100789500D03*
X357251000Y-102664500D03*
%TD*%
D15*
%TO.C,K34*%
X371792500Y-38100000D03*
X361632500Y-38100000D03*
D13*
X366712500Y-38100000D03*
D16*
X362902500Y-35560000D03*
X369252500Y-33020000D03*
D17*
X359352500Y-35560000D03*
D18*
X359352500Y-35560000D03*
D17*
X372802500Y-33020000D03*
D18*
X372802500Y-33020000D03*
%TD*%
D23*
%TO.C,KD7*%
X280037500Y-39543750D03*
X281937500Y-39543750D03*
X280987500Y-41418750D03*
%TD*%
D27*
%TO.C,C14*%
X127889000Y-104762000D03*
X127889000Y-106312000D03*
%TD*%
D15*
%TO.C,K55*%
X128905000Y-95250000D03*
D13*
X123825000Y-95250000D03*
D16*
X126365000Y-90170000D03*
D15*
X118745000Y-95250000D03*
D16*
X120015000Y-92710000D03*
D18*
X116465000Y-92710000D03*
D17*
X116465000Y-92710000D03*
D18*
X129915000Y-90170000D03*
D17*
X129915000Y-90170000D03*
%TD*%
D16*
%TO.C,K4*%
X96202500Y-35560000D03*
D15*
X94932500Y-38100000D03*
D16*
X102552500Y-33020000D03*
D13*
X100012500Y-38100000D03*
D15*
X105092500Y-38100000D03*
D18*
X92652500Y-35560000D03*
D17*
X92652500Y-35560000D03*
X106102500Y-33020000D03*
D18*
X106102500Y-33020000D03*
%TD*%
D15*
%TO.C,K70*%
X88423750Y-114300000D03*
D24*
X85883750Y-109220000D03*
D15*
X78263750Y-114300000D03*
D13*
X83343750Y-114300000D03*
D24*
X79533750Y-111760000D03*
D18*
X75983750Y-111760000D03*
D17*
X75983750Y-111760000D03*
D18*
X89433750Y-109220000D03*
D17*
X89433750Y-109220000D03*
%TD*%
D23*
%TO.C,KD10*%
X46675000Y-58593750D03*
X48575000Y-58593750D03*
X47625000Y-60468750D03*
%TD*%
%TO.C,KD14*%
X213362500Y-58593750D03*
X215262500Y-58593750D03*
X214312500Y-60468750D03*
%TD*%
D15*
%TO.C,K62*%
X262255000Y-95250000D03*
X252095000Y-95250000D03*
D13*
X257175000Y-95250000D03*
D16*
X253365000Y-92710000D03*
X259715000Y-90170000D03*
D17*
X249815000Y-92710000D03*
D18*
X249815000Y-92710000D03*
D17*
X263265000Y-90170000D03*
D18*
X263265000Y-90170000D03*
%TD*%
D41*
%TO.C,R3*%
X85407000Y-49022000D03*
X83757000Y-49022000D03*
%TD*%
D14*
%TO.C,RGB9*%
X129709375Y-106375000D03*
X129709375Y-103175000D03*
X134609375Y-103175000D03*
X134609375Y-106375000D03*
%TD*%
D23*
%TO.C,KD27*%
X46675000Y-96693750D03*
X48575000Y-96693750D03*
X47625000Y-98568750D03*
%TD*%
D15*
%TO.C,K15*%
X314642500Y-38100000D03*
D13*
X309562500Y-38100000D03*
D16*
X305752500Y-35560000D03*
X312102500Y-33020000D03*
D15*
X304482500Y-38100000D03*
D18*
X302202500Y-35560000D03*
D17*
X302202500Y-35560000D03*
X315652500Y-33020000D03*
D18*
X315652500Y-33020000D03*
%TD*%
D16*
%TO.C,K61*%
X240665000Y-90170000D03*
D13*
X238125000Y-95250000D03*
D16*
X234315000Y-92710000D03*
D15*
X243205000Y-95250000D03*
X233045000Y-95250000D03*
D17*
X230765000Y-92710000D03*
D18*
X230765000Y-92710000D03*
D17*
X244215000Y-90170000D03*
D18*
X244215000Y-90170000D03*
%TD*%
D23*
%TO.C,KD21*%
X141925000Y-77643750D03*
X143825000Y-77643750D03*
X142875000Y-79518750D03*
%TD*%
D21*
%TO.C,C5*%
X67767200Y-55131000D03*
X67767200Y-53581000D03*
%TD*%
D27*
%TO.C,C18*%
X66294000Y-55511400D03*
X66294000Y-57061400D03*
%TD*%
%TO.C,C11*%
X338582000Y-104889000D03*
X338582000Y-106439000D03*
%TD*%
D13*
%TO.C,K53A1*%
X92868750Y-95250000D03*
D15*
X87788750Y-95250000D03*
D24*
X95408750Y-90170000D03*
D15*
X97948750Y-95250000D03*
D24*
X89058750Y-92710000D03*
D18*
X85508750Y-92710000D03*
D17*
X85508750Y-92710000D03*
D18*
X98958750Y-90170000D03*
D17*
X98958750Y-90170000D03*
%TD*%
D15*
%TO.C,K38*%
X109220000Y-76200000D03*
D16*
X110490000Y-73660000D03*
D15*
X119380000Y-76200000D03*
D16*
X116840000Y-71120000D03*
D13*
X114300000Y-76200000D03*
D17*
X106940000Y-73660000D03*
D18*
X106940000Y-73660000D03*
D17*
X120390000Y-71120000D03*
D18*
X120390000Y-71120000D03*
%TD*%
D27*
%TO.C,C13*%
X198120000Y-104762000D03*
X198120000Y-106312000D03*
%TD*%
D15*
%TO.C,K17*%
X342582500Y-38100000D03*
D16*
X351472500Y-40640000D03*
D15*
X352742500Y-38100000D03*
D13*
X347662500Y-38100000D03*
D16*
X345122500Y-43180000D03*
D18*
X355022500Y-40640000D03*
D17*
X355022500Y-40640000D03*
D18*
X341572500Y-43180000D03*
D17*
X341572500Y-43180000D03*
%TD*%
D15*
%TO.C,K68*%
X33020000Y-114300000D03*
D16*
X40640000Y-109220000D03*
D15*
X43180000Y-114300000D03*
D16*
X34290000Y-111760000D03*
D13*
X38100000Y-114300000D03*
D17*
X30740000Y-111760000D03*
D19*
X30915000Y-111760000D03*
D17*
X44190000Y-109220000D03*
D18*
X44190000Y-109220000D03*
%TD*%
D21*
%TO.C,C8*%
X206756000Y-47638000D03*
X206756000Y-46088000D03*
%TD*%
D15*
%TO.C,K64*%
X300355000Y-95250000D03*
D13*
X295275000Y-95250000D03*
D16*
X291465000Y-92710000D03*
X297815000Y-90170000D03*
D15*
X290195000Y-95250000D03*
D18*
X287915000Y-92710000D03*
D17*
X287915000Y-92710000D03*
D18*
X301365000Y-90170000D03*
D17*
X301365000Y-90170000D03*
%TD*%
D23*
%TO.C,KD37*%
X94300000Y-115743750D03*
X96200000Y-115743750D03*
X95250000Y-117618750D03*
%TD*%
%TO.C,KD11*%
X96681250Y-58593750D03*
X98581250Y-58593750D03*
X97631250Y-60468750D03*
%TD*%
D24*
%TO.C,K65*%
X324008750Y-90170000D03*
D15*
X316388750Y-95250000D03*
D24*
X317658750Y-92710000D03*
D13*
X321468750Y-95250000D03*
D15*
X326548750Y-95250000D03*
D18*
X314108750Y-92710000D03*
D17*
X314108750Y-92710000D03*
X327558750Y-90170000D03*
D18*
X327558750Y-90170000D03*
%TD*%
D15*
%TO.C,K37A1*%
X78263750Y-76200000D03*
D24*
X85883750Y-71120000D03*
X79533750Y-73660000D03*
D13*
X83343750Y-76200000D03*
D15*
X88423750Y-76200000D03*
D18*
X75983750Y-73660000D03*
D17*
X75983750Y-73660000D03*
D18*
X89433750Y-71120000D03*
D17*
X89433750Y-71120000D03*
%TD*%
D15*
%TO.C,K28*%
X247967500Y-57150000D03*
D13*
X242887500Y-57150000D03*
D16*
X239077500Y-54610000D03*
X245427500Y-52070000D03*
D15*
X237807500Y-57150000D03*
D17*
X235527500Y-54610000D03*
D18*
X235527500Y-54610000D03*
D17*
X248977500Y-52070000D03*
D18*
X248977500Y-52070000D03*
%TD*%
D23*
%TO.C,KD5*%
X203837500Y-39543750D03*
X205737500Y-39543750D03*
X204787500Y-41418750D03*
%TD*%
D13*
%TO.C,K2*%
X57150000Y-38100000D03*
D16*
X59690000Y-33020000D03*
D15*
X52070000Y-38100000D03*
X62230000Y-38100000D03*
D16*
X53340000Y-35560000D03*
D17*
X49790000Y-35560000D03*
D18*
X49790000Y-35560000D03*
D17*
X63240000Y-33020000D03*
D18*
X63240000Y-33020000D03*
%TD*%
D16*
%TO.C,K50*%
X362902500Y-54610000D03*
D15*
X371792500Y-57150000D03*
D16*
X369252500Y-52070000D03*
D15*
X361632500Y-57150000D03*
D13*
X366712500Y-57150000D03*
D17*
X359352500Y-54610000D03*
D18*
X359352500Y-54610000D03*
D17*
X372802500Y-52070000D03*
D18*
X372802500Y-52070000D03*
%TD*%
D15*
%TO.C,K12*%
X257492500Y-38100000D03*
D16*
X254952500Y-33020000D03*
X248602500Y-35560000D03*
D13*
X252412500Y-38100000D03*
D15*
X247332500Y-38100000D03*
D17*
X245052500Y-35560000D03*
D18*
X245052500Y-35560000D03*
D17*
X258502500Y-33020000D03*
D18*
X258502500Y-33020000D03*
%TD*%
D23*
%TO.C,KD35*%
X337187500Y-96693750D03*
X339087500Y-96693750D03*
X338137500Y-98568750D03*
%TD*%
D15*
%TO.C,K41*%
X166370000Y-76200000D03*
D13*
X171450000Y-76200000D03*
D16*
X173990000Y-71120000D03*
D15*
X176530000Y-76200000D03*
D16*
X167640000Y-73660000D03*
D18*
X164090000Y-73660000D03*
D17*
X164090000Y-73660000D03*
D18*
X177540000Y-71120000D03*
D17*
X177540000Y-71120000D03*
%TD*%
D20*
%TO.C,R1*%
X66421000Y-32576000D03*
X66421000Y-34226000D03*
%TD*%
D23*
%TO.C,KD38*%
X144306250Y-115743750D03*
X146206250Y-115743750D03*
X145256250Y-117618750D03*
%TD*%
D15*
%TO.C,K75*%
X240823750Y-114300000D03*
D24*
X238283750Y-109220000D03*
D13*
X235743750Y-114300000D03*
D15*
X230663750Y-114300000D03*
D24*
X231933750Y-111760000D03*
D18*
X228383750Y-111760000D03*
D17*
X228383750Y-111760000D03*
D18*
X241833750Y-109220000D03*
D17*
X241833750Y-109220000D03*
%TD*%
D42*
%TO.C,U2*%
X64578564Y-61027918D03*
X65144250Y-60462233D03*
X65709935Y-59896548D03*
X66275620Y-59330862D03*
X66841306Y-58765177D03*
X67406991Y-58199491D03*
X67972677Y-57633806D03*
X68538362Y-57068120D03*
X69104048Y-56502435D03*
X69669733Y-55936750D03*
X70235418Y-55371064D03*
D43*
X72639582Y-55371064D03*
X73205267Y-55936750D03*
X73770952Y-56502435D03*
X74336638Y-57068120D03*
X74902323Y-57633806D03*
X75468009Y-58199491D03*
X76033694Y-58765177D03*
X76599380Y-59330862D03*
X77165065Y-59896548D03*
X77730750Y-60462233D03*
X78296436Y-61027918D03*
D42*
X78296436Y-63432082D03*
X77730750Y-63997767D03*
X77165065Y-64563452D03*
X76599380Y-65129138D03*
X76033694Y-65694823D03*
X75468009Y-66260509D03*
X74902323Y-66826194D03*
X74336638Y-67391880D03*
X73770952Y-67957565D03*
X73205267Y-68523250D03*
X72639582Y-69088936D03*
D43*
X70235418Y-69088936D03*
X69669733Y-68523250D03*
X69104048Y-67957565D03*
X68538362Y-67391880D03*
X67972677Y-66826194D03*
X67406991Y-66260509D03*
X66841306Y-65694823D03*
X66275620Y-65129138D03*
X65709935Y-64563452D03*
X65144250Y-63997767D03*
X64578564Y-63432082D03*
%TD*%
D15*
%TO.C,K74*%
X202723750Y-114300000D03*
D13*
X197643750Y-114300000D03*
D24*
X200183750Y-109220000D03*
X193833750Y-111760000D03*
D15*
X192563750Y-114300000D03*
D17*
X190283750Y-111760000D03*
D18*
X190283750Y-111760000D03*
D17*
X203733750Y-109220000D03*
D18*
X203733750Y-109220000D03*
%TD*%
D16*
%TO.C,K57*%
X158115000Y-92710000D03*
X164465000Y-90170000D03*
D15*
X156845000Y-95250000D03*
X167005000Y-95250000D03*
D13*
X161925000Y-95250000D03*
D18*
X154565000Y-92710000D03*
D17*
X154565000Y-92710000D03*
D18*
X168015000Y-90170000D03*
D17*
X168015000Y-90170000D03*
%TD*%
D13*
%TO.C,K24*%
X166687500Y-57150000D03*
D16*
X162877500Y-54610000D03*
X169227500Y-52070000D03*
D15*
X161607500Y-57150000D03*
X171767500Y-57150000D03*
D18*
X159327500Y-54610000D03*
D17*
X159327500Y-54610000D03*
D18*
X172777500Y-52070000D03*
D17*
X172777500Y-52070000D03*
%TD*%
D13*
%TO.C,K60*%
X219075000Y-95250000D03*
D16*
X215265000Y-92710000D03*
D15*
X224155000Y-95250000D03*
X213995000Y-95250000D03*
D16*
X221615000Y-90170000D03*
D18*
X211715000Y-92710000D03*
D17*
X211715000Y-92710000D03*
D18*
X225165000Y-90170000D03*
D17*
X225165000Y-90170000D03*
%TD*%
D44*
%TO.C,R4*%
X78067400Y-81255000D03*
X79717400Y-81255000D03*
%TD*%
D23*
%TO.C,KD33*%
X284800000Y-96693750D03*
X286700000Y-96693750D03*
X285750000Y-98568750D03*
%TD*%
D31*
%TO.C,ISP1*%
X87949800Y-46350000D03*
D32*
X87949800Y-48890000D03*
X90489800Y-46350000D03*
X90489800Y-48890000D03*
X93029800Y-46350000D03*
X93029800Y-48890000D03*
%TD*%
D23*
%TO.C,KD8*%
X318137500Y-39543750D03*
X320037500Y-39543750D03*
X319087500Y-41418750D03*
%TD*%
D15*
%TO.C,K52*%
X62230000Y-95250000D03*
D16*
X59690000Y-90170000D03*
D13*
X57150000Y-95250000D03*
D15*
X52070000Y-95250000D03*
D16*
X53340000Y-92710000D03*
D18*
X49790000Y-92710000D03*
D17*
X49790000Y-92710000D03*
D18*
X63240000Y-90170000D03*
D17*
X63240000Y-90170000D03*
%TD*%
D13*
%TO.C,K26*%
X204787500Y-57150000D03*
D16*
X207327500Y-52070000D03*
X200977500Y-54610000D03*
D15*
X199707500Y-57150000D03*
X209867500Y-57150000D03*
D17*
X197427500Y-54610000D03*
D18*
X197427500Y-54610000D03*
D17*
X210877500Y-52070000D03*
D18*
X210877500Y-52070000D03*
%TD*%
D23*
%TO.C,KD24*%
X256225000Y-77643750D03*
X258125000Y-77643750D03*
X257175000Y-79518750D03*
%TD*%
D13*
%TO.C,K39*%
X133350000Y-76200000D03*
D16*
X129540000Y-73660000D03*
D15*
X138430000Y-76200000D03*
X128270000Y-76200000D03*
D16*
X135890000Y-71120000D03*
D18*
X125990000Y-73660000D03*
D17*
X125990000Y-73660000D03*
X139440000Y-71120000D03*
D18*
X139440000Y-71120000D03*
%TD*%
D15*
%TO.C,K47*%
X280670000Y-76200000D03*
D16*
X288290000Y-71120000D03*
D13*
X285750000Y-76200000D03*
D15*
X290830000Y-76200000D03*
D16*
X281940000Y-73660000D03*
D17*
X278390000Y-73660000D03*
D18*
X278390000Y-73660000D03*
X291840000Y-71120000D03*
D17*
X291840000Y-71120000D03*
%TD*%
D27*
%TO.C,C12*%
X268351000Y-104889000D03*
X268351000Y-106439000D03*
%TD*%
D23*
%TO.C,KD3*%
X127637500Y-39543750D03*
X129537500Y-39543750D03*
X128587500Y-41418750D03*
%TD*%
D45*
%TO.C,FB1*%
X73710800Y-31322500D03*
X73710800Y-33447500D03*
%TD*%
D15*
%TO.C,K5*%
X124142500Y-38100000D03*
D13*
X119062500Y-38100000D03*
D16*
X121602500Y-33020000D03*
X115252500Y-35560000D03*
D15*
X113982500Y-38100000D03*
D18*
X111702500Y-35560000D03*
D17*
X111702500Y-35560000D03*
X125152500Y-33020000D03*
D18*
X125152500Y-33020000D03*
%TD*%
D24*
%TO.C,K37*%
X85566250Y-81280000D03*
D15*
X93186250Y-76200000D03*
D13*
X88106250Y-76200000D03*
D15*
X83026250Y-76200000D03*
D24*
X91916250Y-78740000D03*
D18*
X95466250Y-78740000D03*
D17*
X95466250Y-78740000D03*
X82016250Y-81280000D03*
D18*
X82016250Y-81280000D03*
%TD*%
D16*
%TO.C,K19*%
X59690000Y-52070000D03*
D13*
X57150000Y-57150000D03*
D15*
X52070000Y-57150000D03*
D16*
X53340000Y-54610000D03*
D15*
X62230000Y-57150000D03*
D17*
X49790000Y-54610000D03*
D18*
X49790000Y-54610000D03*
X63240000Y-52070000D03*
D17*
X63240000Y-52070000D03*
%TD*%
D13*
%TO.C,K54*%
X104775000Y-95250000D03*
D16*
X108585000Y-97790000D03*
D15*
X99695000Y-95250000D03*
D16*
X102235000Y-100330000D03*
D15*
X109855000Y-95250000D03*
D18*
X112135000Y-97790000D03*
D17*
X112135000Y-97790000D03*
X98685000Y-100330000D03*
D18*
X98685000Y-100330000D03*
%TD*%
D15*
%TO.C,K33A1*%
X345281250Y-61595000D03*
D13*
X345281250Y-66675000D03*
D16*
X342741250Y-70485000D03*
D15*
X345281250Y-71755000D03*
D16*
X340201250Y-64135000D03*
D17*
X342741250Y-74035000D03*
D22*
X342741250Y-74035000D03*
X340201250Y-60585000D03*
D17*
X340201250Y-60585000D03*
%TD*%
D13*
%TO.C,K48*%
X304800000Y-76200000D03*
D15*
X309880000Y-76200000D03*
D16*
X300990000Y-73660000D03*
X307340000Y-71120000D03*
D15*
X299720000Y-76200000D03*
D17*
X297440000Y-73660000D03*
D18*
X297440000Y-73660000D03*
D17*
X310890000Y-71120000D03*
D18*
X310890000Y-71120000D03*
%TD*%
D15*
%TO.C,K79*%
X361632500Y-114300000D03*
D16*
X362902500Y-111760000D03*
X369252500Y-109220000D03*
D13*
X366712500Y-114300000D03*
D15*
X371792500Y-114300000D03*
D17*
X359352500Y-111760000D03*
D18*
X359352500Y-111760000D03*
D17*
X372802500Y-109220000D03*
D18*
X372802500Y-109220000D03*
%TD*%
D15*
%TO.C,K40*%
X157480000Y-76200000D03*
D16*
X148590000Y-73660000D03*
D13*
X152400000Y-76200000D03*
D15*
X147320000Y-76200000D03*
D16*
X154940000Y-71120000D03*
D18*
X145040000Y-73660000D03*
D17*
X145040000Y-73660000D03*
D18*
X158490000Y-71120000D03*
D17*
X158490000Y-71120000D03*
%TD*%
M02*
