M48
; DRILL file {KiCad (5.99.0-11177-g6c67dfa032)} date Friday, September 17, 2021 at 12:08:25 PM
; FORMAT={-:-/ absolute / inch / decimal}
; #@! TF.CreationDate,2021-09-17T12:08:25+03:00
; #@! TF.GenerationSoftware,Kicad,Pcbnew,(5.99.0-11177-g6c67dfa032)
; #@! TF.FileFunction,Plated,1,2,PTH
FMAT,2
INCH
; #@! TA.AperFunction,Plated,PTH,ViaDrill
T1C0.0157
; #@! TA.AperFunction,Plated,PTH,ComponentDrill
T2C0.0236
; #@! TA.AperFunction,Plated,PTH,ComponentDrill
T3C0.0394
%
G90
G05
T1
X1.21Y-2.625
X2.022Y-3.14
X2.215Y-4.125
X2.27Y-4.065
X2.2776Y-1.9803
X2.325Y-2.34
X2.325Y-2.42
X2.325Y-2.51
X2.325Y-2.58
X2.325Y-3.89
X2.375Y-2.66
X2.415Y-2.38
X2.42Y-2.582
X2.425Y-3.135
X2.425Y-3.24
X2.44Y-4.19
X2.47Y-2.165
X2.4902Y-3.9961
X2.515Y-3.135
X2.515Y-3.24
X2.5197Y-2.3353
X2.52Y-2.465
X2.525Y-1.215
X2.54Y-1.875
X2.57Y-2.74
X2.605Y-3.135
X2.605Y-3.24
X2.61Y-1.6875
X2.614Y-2.486
X2.615Y-1.389
X2.622Y-1.938
X2.655Y-1.72
X2.68Y-2.428
X2.6969Y-3.0807
X2.6969Y-3.937
X2.6969Y-4.0453
X2.7461Y-3.0807
X2.7461Y-4.6875
X2.748Y-2.296
X2.765Y-1.72
X2.766Y-2.644
X2.77Y-1.815
X2.779Y-1.4
X2.779Y-1.471
X2.808Y-2.556
X2.81Y-1.6875
X2.81Y-2.126
X2.812Y-2.248
X2.812Y-2.766
X2.825Y-1.77
X2.825Y-3.145
X2.825Y-3.24
X2.825Y-3.31
X2.825Y-3.38
X2.845Y-1.64
X2.8467Y-1.2633
X2.874Y-3.144
X2.89Y-2.302
X2.893Y-2.096
X2.915Y-1.64
X2.92Y-1.75
X2.945Y-4.145
X2.95Y-3.95
X2.99Y-3.1
X3.004Y-2.42
X3.04Y-4.145
X3.0433Y-2.2382
X3.07Y-4.06
X3.126Y-2.454
X3.134Y-1.982
X3.204Y-3.338
X3.2382Y-2.815
X3.248Y-2.358
X3.25Y-1.83
X3.26Y-1.72
X3.27Y-2.04
X3.275Y-3.965
X3.29Y-4.145
X3.36Y-2.39
X3.4625Y-1.6875
X3.465Y-3.235
X3.485Y-3.338
X3.59Y-3.0
X3.615Y-2.85
X3.67Y-2.15
X3.75Y-1.875
X3.76Y-2.05
X3.78Y-4.29
X3.785Y-2.385
X3.785Y-3.235
X3.84Y-3.02
X3.8438Y-2.2037
X3.875Y-3.145
X3.885Y-2.135
X3.92Y-2.805
X3.955Y-3.87
X4.01Y-4.05
X4.115Y-3.09
X4.155Y-1.95
X4.185Y-1.77
X4.225Y-4.0
X4.23Y-4.14
X4.69Y-4.57
X4.772Y-2.4715
X4.848Y-2.85
X4.975Y-4.12
X5.05Y-2.01
X5.375Y-3.105
X5.375Y-4.03
X5.43Y-1.875
X5.435Y-2.465
X5.75Y-4.315
X5.935Y-2.47
X5.99Y-4.515
X6.272Y-2.4715
X6.525Y-4.745
X6.87Y-3.13
X6.935Y-2.48
X7.115Y-2.825
X7.195Y-4.13
X7.235Y-4.54
X7.24Y-4.265
X7.295Y-4.14
X7.36Y-3.115
X7.435Y-2.47
X7.44Y-4.755
X7.455Y-1.77
X7.56Y-1.86
X7.63Y-2.48
X7.745Y-4.095
X7.772Y-2.4715
X7.79Y-1.94
X7.825Y-2.84
X8.06Y-1.73
X8.135Y-4.03
X8.212Y-1.824
X8.22Y-1.96
X8.32Y-1.86
X8.375Y-3.11
X8.435Y-2.48
X8.46Y-4.79
X8.63Y-2.845
X8.715Y-4.735
X8.935Y-2.47
X9.115Y-2.485
X9.205Y-4.74
X9.272Y-2.4715
X9.3913Y-3.1315
X9.565Y-1.72
X9.865Y-3.115
X9.935Y-2.495
X10.0394Y-4.7343
X10.04Y-4.795
X10.245Y-4.395
X10.435Y-2.47
X10.505Y-1.945
X10.505Y-4.1
X10.565Y-1.865
X10.605Y-2.495
X10.772Y-2.4715
X10.86Y-3.055
X10.905Y-4.03
X10.965Y-1.875
X10.985Y-4.19
X11.045Y-4.675
X11.06Y-1.72
X11.44Y-2.5
X11.845Y-2.635
X11.86Y-3.12
X11.92Y-2.55
X11.932Y-3.984
X11.935Y-2.47
X11.968Y-3.512
X12.095Y-2.58
X12.19Y-2.485
X12.26Y-2.67
X12.272Y-2.4715
X12.32Y-3.16
X12.39Y-2.47
X12.438Y-3.984
X12.655Y-4.675
X12.67Y-1.575
X12.725Y-4.74
X12.815Y-1.36
X12.885Y-2.39
X12.89Y-1.995
X12.915Y-2.095
X12.95Y-4.015
X12.996Y-2.55
X12.998Y-2.138
X13.025Y-1.99
X13.035Y-3.69
X13.05Y-2.405
X13.055Y-3.985
X13.06Y-2.546
X13.09Y-1.855
X13.104Y-2.034
X13.122Y-3.4016
X13.162Y-1.98
X13.2Y-2.684
X13.22Y-1.93
X13.25Y-4.125
X13.265Y-1.375
X13.386Y-2.298
X13.395Y-2.745
X13.41Y-4.255
X13.4685Y-1.5906
X13.474Y-2.3557
X13.5Y-2.128
X13.516Y-1.87
X13.605Y-2.5
X13.63Y-2.23
X13.69Y-1.962
X13.69Y-4.03
X13.7244Y-1.6929
X13.825Y-4.13
X13.8976Y-2.0354
X13.9291Y-1.813
X13.93Y-1.92
X13.955Y-4.4
X13.975Y-2.605
X13.98Y-3.97
X13.985Y-3.445
X14.015Y-4.325
X14.02Y-4.74
X14.145Y-2.61
X14.145Y-3.445
X14.595Y-4.215
X14.6Y-4.385
X14.695Y-4.21
X14.735Y-4.39
T2
X1.2102Y-1.4
X1.2102Y-2.15
X1.2102Y-2.9
X1.2102Y-3.65
X1.2102Y-4.4
X1.7398Y-1.3
X1.7398Y-2.05
X1.7398Y-2.8
X1.7398Y-3.55
X1.7398Y-4.3
X1.9602Y-1.4
X1.9602Y-2.15
X1.9602Y-2.9
X1.9602Y-3.65
X1.9602Y-4.4
X2.4898Y-1.3
X2.4898Y-2.05
X2.4898Y-2.8
X2.4898Y-3.55
X2.4898Y-4.3
X2.8977Y-1.4
X2.9915Y-2.9
X2.9915Y-4.4
X3.0415Y-3.95
X3.0852Y-2.15
X3.229Y-3.2
X3.3665Y-3.65
X3.4273Y-1.3
X3.521Y-2.8
X3.521Y-4.3
X3.571Y-3.85
X3.6148Y-2.05
X3.6477Y-1.4
X3.7585Y-3.1
X3.8852Y-3.95
X3.896Y-3.55
X3.929Y-4.4
X4.0227Y-2.15
X4.1773Y-1.3
X4.2102Y-2.9
X4.3977Y-1.4
X4.4148Y-3.85
X4.4585Y-4.3
X4.5523Y-2.05
X4.5852Y-3.65
X4.7398Y-2.8
X4.7727Y-2.15
X4.8665Y-4.4
X4.9273Y-1.3
X4.9602Y-2.9
X5.1148Y-3.55
X5.1477Y-1.4
X5.3023Y-2.05
X5.3352Y-3.65
X5.396Y-4.3
X5.4898Y-2.8
X5.5227Y-2.15
X5.6773Y-1.3
X5.7102Y-2.9
X5.8648Y-3.55
X5.8977Y-1.4
X6.0523Y-2.05
X6.0852Y-3.65
X6.179Y-4.4
X6.2398Y-2.8
X6.2727Y-2.15
X6.4273Y-1.3
X6.4602Y-2.9
X6.6148Y-3.55
X6.6477Y-1.4
X6.7085Y-4.3
X6.8023Y-2.05
X6.8352Y-3.65
X6.9898Y-2.8
X7.0227Y-2.15
X7.1773Y-1.3
X7.2102Y-2.9
X7.3648Y-3.55
X7.3977Y-1.4
X7.4915Y-4.4
X7.5523Y-2.05
X7.5852Y-3.65
X7.7292Y-4.7
X7.7398Y-2.8
X7.7727Y-2.15
X7.9273Y-1.3
X7.9602Y-2.9
X8.021Y-4.3
X8.1148Y-3.55
X8.1477Y-1.4
X8.2588Y-4.6
X8.3023Y-2.05
X8.3352Y-3.65
X8.4898Y-2.8
X8.5227Y-2.15
X8.6773Y-1.3
X8.7102Y-2.9
X8.8648Y-3.55
X8.8977Y-1.4
X8.9915Y-4.4
X9.0523Y-2.05
X9.0852Y-3.65
X9.2398Y-2.8
X9.2727Y-2.15
X9.4273Y-1.3
X9.4602Y-2.9
X9.521Y-4.3
X9.6148Y-3.55
X9.6477Y-1.4
X9.8023Y-2.05
X9.8352Y-3.65
X9.9898Y-2.8
X10.0227Y-2.15
X10.1773Y-1.3
X10.2102Y-2.9
X10.3648Y-3.55
X10.3977Y-1.4
X10.3977Y-4.4
X10.5523Y-2.05
X10.5852Y-3.65
X10.7398Y-2.8
X10.7727Y-2.15
X10.9273Y-1.3
X10.9273Y-4.3
X10.9602Y-2.9
X11.1148Y-3.55
X11.1477Y-1.4
X11.3023Y-2.05
X11.3352Y-3.65
X11.4898Y-2.8
X11.5227Y-2.15
X11.6773Y-1.3
X11.7102Y-2.9
X11.8648Y-3.55
X11.8977Y-1.4
X12.0523Y-2.05
X12.2398Y-2.8
X12.2727Y-2.15
X12.3665Y-3.65
X12.4273Y-1.3
X12.55Y-2.7602
X12.6477Y-4.4
X12.65Y-3.2898
X12.6977Y-1.7
X12.8023Y-2.05
X12.896Y-3.55
X13.0187Y-2.7602
X13.0225Y-1.4
X13.1188Y-3.2898
X13.1773Y-4.3
X13.2273Y-1.6
X13.3937Y-2.3852
X13.3977Y-3.65
X13.3977Y-4.4
X13.4477Y-1.7
X13.4938Y-2.9148
X13.552Y-1.3
X13.6Y-1.9602
X13.7Y-2.4898
X13.9273Y-3.55
X13.9273Y-4.3
X13.9773Y-1.6
X14.1477Y-1.4
X14.1477Y-2.15
X14.1477Y-2.9
X14.1477Y-3.65
X14.1477Y-4.4
X14.6773Y-1.3
X14.6773Y-2.05
X14.6773Y-2.8
X14.6773Y-3.55
X14.6773Y-4.3
T3
X3.232Y-3.078
X3.332Y-3.078
X3.4195Y-2.919
X3.4626Y-1.8248
X3.4626Y-1.9248
X3.5195Y-2.919
X3.5626Y-1.8248
X3.5626Y-1.9248
X3.6626Y-1.8248
X3.6626Y-1.9248
T2
G00X2.5487Y-0.9696
M15
G01X2.5487Y-0.9932
M16
G05
G00X2.5487Y-1.1243
M15
G01X2.5487Y-1.1676
M16
G05
G00X2.8888Y-0.9696
M15
G01X2.8888Y-0.9932
M16
G05
G00X2.8888Y-1.1243
M15
G01X2.8888Y-1.1676
M16
G05
T0
M30
