%TF.GenerationSoftware,KiCad,Pcbnew,(5.99.0-11177-g6c67dfa032)*%
%TF.CreationDate,2021-09-17T12:08:34+03:00*%
%TF.ProjectId,SunsetterR2_Hotswap,53756e73-6574-4746-9572-52325f486f74,rev?*%
%TF.SameCoordinates,Original*%
%TF.FileFunction,Legend,Top*%
%TF.FilePolarity,Positive*%
%FSLAX46Y46*%
G04 Gerber Fmt 4.6, Leading zero omitted, Abs format (unit mm)*
G04 Created by KiCad (PCBNEW (5.99.0-11177-g6c67dfa032)) date 2021-09-17 12:08:34*
%MOMM*%
%LPD*%
G01*
G04 APERTURE LIST*
G04 APERTURE END LIST*
%TO.C,G\u002A\u002A\u002A*%
G36*
X205108489Y-86837432D02*
G01*
X205760941Y-86839965D01*
X206269158Y-86845482D01*
X206652719Y-86855043D01*
X206931203Y-86869708D01*
X207124188Y-86890537D01*
X207251252Y-86918591D01*
X207331974Y-86954928D01*
X207385932Y-87000610D01*
X207389511Y-87004513D01*
X207520809Y-87260756D01*
X207530415Y-87552270D01*
X207422698Y-87805021D01*
X207337471Y-87886137D01*
X207257579Y-87926563D01*
X207133008Y-87958762D01*
X206944380Y-87983620D01*
X206672319Y-88002025D01*
X206297448Y-88014864D01*
X205800388Y-88023024D01*
X205161762Y-88027393D01*
X204362193Y-88028857D01*
X204219781Y-88028881D01*
X203410682Y-88028419D01*
X202764984Y-88026243D01*
X202262699Y-88021169D01*
X201883835Y-88012014D01*
X201608403Y-87997595D01*
X201416412Y-87976727D01*
X201287871Y-87948226D01*
X201202791Y-87910911D01*
X201141181Y-87863595D01*
X201122495Y-87845488D01*
X200969921Y-87589342D01*
X200949689Y-87303764D01*
X201060232Y-87055245D01*
X201142898Y-86979568D01*
X201222377Y-86939347D01*
X201346353Y-86907267D01*
X201534090Y-86882456D01*
X201804853Y-86864040D01*
X202177906Y-86851146D01*
X202672514Y-86842901D01*
X203307940Y-86838432D01*
X204103450Y-86836865D01*
X204292224Y-86836824D01*
X205108489Y-86837432D01*
G37*
G36*
X210357440Y-77300590D02*
G01*
X211464721Y-77302536D01*
X212434125Y-77306109D01*
X213274755Y-77311747D01*
X213995715Y-77319884D01*
X214606108Y-77330958D01*
X215115036Y-77345405D01*
X215531604Y-77363660D01*
X215864914Y-77386159D01*
X216124069Y-77413340D01*
X216318173Y-77445638D01*
X216456329Y-77483489D01*
X216547639Y-77527329D01*
X216601208Y-77577595D01*
X216626138Y-77634722D01*
X216631532Y-77699148D01*
X216626494Y-77771307D01*
X216620127Y-77851637D01*
X216619246Y-77887378D01*
X216624159Y-77973800D01*
X216632843Y-78051624D01*
X216636214Y-78121296D01*
X216625187Y-78183267D01*
X216590678Y-78237983D01*
X216523603Y-78285892D01*
X216414877Y-78327444D01*
X216255418Y-78363085D01*
X216036139Y-78393265D01*
X215747958Y-78418431D01*
X215381789Y-78439032D01*
X214928550Y-78455515D01*
X214379155Y-78468329D01*
X213724520Y-78477921D01*
X212955562Y-78484741D01*
X212063196Y-78489235D01*
X211038338Y-78491853D01*
X209871903Y-78493042D01*
X208554808Y-78493250D01*
X207077968Y-78492926D01*
X205432299Y-78492518D01*
X204354241Y-78492419D01*
X192424614Y-78492419D01*
X192232959Y-78248769D01*
X192097487Y-77965365D01*
X192145096Y-77692221D01*
X192337734Y-77460831D01*
X192372329Y-77437537D01*
X192425685Y-77416606D01*
X192507221Y-77397910D01*
X192626351Y-77381325D01*
X192792494Y-77366724D01*
X193015066Y-77353983D01*
X193303483Y-77342975D01*
X193667163Y-77333576D01*
X194115523Y-77325659D01*
X194657978Y-77319098D01*
X195303947Y-77313769D01*
X196062845Y-77309545D01*
X196944089Y-77306301D01*
X197957097Y-77303911D01*
X199111285Y-77302250D01*
X200416070Y-77301192D01*
X201880869Y-77300612D01*
X203515098Y-77300383D01*
X204367485Y-77300361D01*
X206117305Y-77300158D01*
X207692835Y-77299837D01*
X209103179Y-77299836D01*
X210357440Y-77300590D01*
G37*
G36*
X218821773Y-47434600D02*
G01*
X219140675Y-47582207D01*
X219555775Y-47821748D01*
X220086200Y-48159714D01*
X220516358Y-48444934D01*
X222475329Y-49862229D01*
X224343415Y-51426883D01*
X226099712Y-53119251D01*
X227723312Y-54919686D01*
X228681992Y-56118124D01*
X229066734Y-56636065D01*
X229430097Y-57149211D01*
X229756107Y-57632714D01*
X230028791Y-58061727D01*
X230232174Y-58411401D01*
X230350281Y-58656889D01*
X230373759Y-58749634D01*
X230300118Y-59009327D01*
X230114197Y-59202863D01*
X229868495Y-59307362D01*
X229615511Y-59299943D01*
X229415378Y-59167329D01*
X229315842Y-59036034D01*
X229134016Y-58787349D01*
X228893384Y-58453702D01*
X228617427Y-58067522D01*
X228535574Y-57952347D01*
X227004089Y-55949147D01*
X225350370Y-54082332D01*
X223575357Y-52352793D01*
X221679986Y-50761422D01*
X219665198Y-49309111D01*
X218942854Y-48840674D01*
X218496421Y-48541713D01*
X218203149Y-48296653D01*
X218048806Y-48084476D01*
X218019161Y-47884163D01*
X218099982Y-47674697D01*
X218125615Y-47633707D01*
X218250991Y-47478480D01*
X218396058Y-47389226D01*
X218579943Y-47372436D01*
X218821773Y-47434600D01*
G37*
G36*
X350069291Y-32469777D02*
G01*
X350218891Y-32595512D01*
X350338725Y-32792741D01*
X350490048Y-33155845D01*
X350669400Y-33670665D01*
X350873324Y-34323043D01*
X351098361Y-35098820D01*
X351341052Y-35983839D01*
X351597940Y-36963940D01*
X351865565Y-38024966D01*
X352140471Y-39152758D01*
X352419197Y-40333157D01*
X352698286Y-41552006D01*
X352974280Y-42795145D01*
X353243719Y-44048416D01*
X353503147Y-45297662D01*
X353749104Y-46528723D01*
X353978132Y-47727441D01*
X354161601Y-48736824D01*
X354581142Y-51209484D01*
X354953421Y-53627103D01*
X355282403Y-56024654D01*
X355572053Y-58437112D01*
X355826338Y-60899451D01*
X356049223Y-63446646D01*
X356244673Y-66113671D01*
X356381466Y-68314080D01*
X356408778Y-68907194D01*
X356432323Y-69660039D01*
X356452100Y-70548991D01*
X356468106Y-71550426D01*
X356480343Y-72640720D01*
X356488808Y-73796248D01*
X356493500Y-74993387D01*
X356494418Y-76208514D01*
X356491563Y-77418003D01*
X356484931Y-78598231D01*
X356474523Y-79725574D01*
X356460338Y-80776407D01*
X356442373Y-81727108D01*
X356420630Y-82554052D01*
X356395105Y-83233614D01*
X356382113Y-83489892D01*
X356148666Y-87087822D01*
X355860435Y-90543563D01*
X355512937Y-93891287D01*
X355101691Y-97165165D01*
X354622214Y-100399368D01*
X354070023Y-103628067D01*
X353440637Y-106885434D01*
X353098771Y-108520717D01*
X352906456Y-109397104D01*
X352690186Y-110344467D01*
X352454951Y-111343633D01*
X352205740Y-112375429D01*
X351947541Y-113420682D01*
X351685344Y-114460219D01*
X351424137Y-115474868D01*
X351168909Y-116445456D01*
X350924649Y-117352810D01*
X350696346Y-118177757D01*
X350488988Y-118901125D01*
X350307565Y-119503741D01*
X350157066Y-119966433D01*
X350042479Y-120270026D01*
X350040135Y-120275371D01*
X349836811Y-120602747D01*
X349590046Y-120801636D01*
X349332077Y-120860475D01*
X349095140Y-120767700D01*
X348988705Y-120652522D01*
X348881615Y-120466425D01*
X348845961Y-120351239D01*
X348869792Y-120240632D01*
X348937072Y-119977025D01*
X349041478Y-119583932D01*
X349176688Y-119084863D01*
X349336380Y-118503330D01*
X349514231Y-117862845D01*
X349537033Y-117781209D01*
X350572166Y-113914101D01*
X351494440Y-110115401D01*
X352308664Y-106355545D01*
X353019649Y-102604965D01*
X353632203Y-98834096D01*
X354151138Y-95013372D01*
X354581263Y-91113225D01*
X354927388Y-87104092D01*
X355190247Y-83031408D01*
X355220007Y-82356221D01*
X355245185Y-81523957D01*
X355265782Y-80560805D01*
X355281798Y-79492955D01*
X355293234Y-78346594D01*
X355300088Y-77147912D01*
X355302363Y-75923097D01*
X355300057Y-74698338D01*
X355293172Y-73499823D01*
X355281708Y-72353741D01*
X355265664Y-71286281D01*
X355245041Y-70323631D01*
X355219839Y-69491980D01*
X355190108Y-68818412D01*
X354895998Y-64357224D01*
X354506298Y-60030454D01*
X354017117Y-55813699D01*
X353424566Y-51682559D01*
X352724756Y-47612629D01*
X351913799Y-43579509D01*
X350987804Y-39558795D01*
X349942882Y-35526086D01*
X349802619Y-35015993D01*
X349650188Y-34451700D01*
X349516602Y-33931451D01*
X349409478Y-33487039D01*
X349336432Y-33150261D01*
X349305082Y-32952911D01*
X349304445Y-32936442D01*
X349373348Y-32626245D01*
X349551925Y-32434580D01*
X349797974Y-32377179D01*
X350069291Y-32469777D01*
G37*
G36*
X83072041Y-40426423D02*
G01*
X83269520Y-40622886D01*
X83377611Y-40871321D01*
X83383867Y-40941517D01*
X83359599Y-41105014D01*
X83292562Y-41409025D01*
X83191401Y-41818026D01*
X83064764Y-42296492D01*
X82976532Y-42614982D01*
X81849821Y-46932187D01*
X80877631Y-51334920D01*
X80062783Y-55805653D01*
X79408100Y-60326859D01*
X78916402Y-64881008D01*
X78590513Y-69450574D01*
X78560371Y-70046952D01*
X78531246Y-70583787D01*
X78500697Y-70967827D01*
X78463934Y-71229639D01*
X78416171Y-71399791D01*
X78352620Y-71508851D01*
X78326987Y-71537024D01*
X78064325Y-71684372D01*
X77769304Y-71675786D01*
X77515275Y-71523466D01*
X77447079Y-71446591D01*
X77396046Y-71354927D01*
X77361400Y-71225801D01*
X77342367Y-71036546D01*
X77338171Y-70764491D01*
X77348037Y-70386965D01*
X77371188Y-69881299D01*
X77406850Y-69224823D01*
X77425448Y-68897357D01*
X77776438Y-64244115D01*
X78295053Y-59620847D01*
X78979001Y-55042400D01*
X79825985Y-50523622D01*
X80833713Y-46079361D01*
X81135270Y-44885560D01*
X81399846Y-43866282D01*
X81625943Y-43010900D01*
X81818901Y-42305229D01*
X81984059Y-41735084D01*
X82126758Y-41286280D01*
X82252336Y-40944631D01*
X82366134Y-40695953D01*
X82473490Y-40526060D01*
X82579746Y-40420766D01*
X82690240Y-40365886D01*
X82810311Y-40347236D01*
X82843845Y-40346571D01*
X83072041Y-40426423D01*
G37*
G36*
X283954447Y-54036440D02*
G01*
X284145975Y-54129796D01*
X284242278Y-54278778D01*
X284363635Y-54603713D01*
X284510283Y-55105531D01*
X284682459Y-55785161D01*
X284880398Y-56643532D01*
X285104336Y-57681574D01*
X285339055Y-58823466D01*
X286022739Y-62672514D01*
X286530263Y-66556144D01*
X286861858Y-70463840D01*
X287017752Y-74385085D01*
X286998178Y-78309363D01*
X286803364Y-82226158D01*
X286433543Y-86124953D01*
X285888943Y-89995231D01*
X285169795Y-93826477D01*
X284509492Y-96694224D01*
X284324393Y-97430569D01*
X284173861Y-98008669D01*
X284050772Y-98448873D01*
X283948004Y-98771529D01*
X283858434Y-98996985D01*
X283774942Y-99145590D01*
X283690403Y-99237691D01*
X283599987Y-99292599D01*
X283424531Y-99368076D01*
X283347242Y-99393466D01*
X283258763Y-99359187D01*
X283121569Y-99304449D01*
X282924045Y-99187324D01*
X282815016Y-99012192D01*
X282791013Y-98750567D01*
X282848568Y-98373964D01*
X282956708Y-97950403D01*
X283308603Y-96621475D01*
X283659515Y-95149119D01*
X284001524Y-93573171D01*
X284326712Y-91933467D01*
X284627160Y-90269840D01*
X284894948Y-88622127D01*
X285111340Y-87111914D01*
X285496757Y-83621943D01*
X285735336Y-80075931D01*
X285828261Y-76496281D01*
X285776716Y-72905394D01*
X285581884Y-69325674D01*
X285244948Y-65779523D01*
X284767092Y-62289342D01*
X284149499Y-58877535D01*
X283458569Y-55825761D01*
X283329767Y-55297922D01*
X283247249Y-54915853D01*
X283209405Y-54648294D01*
X283214626Y-54463988D01*
X283261301Y-54331673D01*
X283347822Y-54220092D01*
X283374481Y-54192780D01*
X283648384Y-54034241D01*
X283954447Y-54036440D01*
G37*
G36*
X245100172Y-42264435D02*
G01*
X245419895Y-42543463D01*
X245482594Y-42616065D01*
X245739484Y-42938747D01*
X246073724Y-43379784D01*
X246460656Y-43905126D01*
X246875620Y-44480724D01*
X247293955Y-45072529D01*
X247691004Y-45646490D01*
X247889925Y-45940073D01*
X248656861Y-47132140D01*
X249450411Y-48457915D01*
X250247935Y-49874450D01*
X251026795Y-51338796D01*
X251764354Y-52808005D01*
X252437971Y-54239129D01*
X253025010Y-55589220D01*
X253190227Y-55995485D01*
X254290838Y-58991056D01*
X255216455Y-62020765D01*
X255965538Y-65077059D01*
X256536543Y-68152386D01*
X256927928Y-71239195D01*
X257138152Y-74329933D01*
X257169911Y-75485142D01*
X257176851Y-76069430D01*
X257174432Y-76496901D01*
X257160869Y-76793975D01*
X257134377Y-76987071D01*
X257093170Y-77102610D01*
X257057513Y-77148766D01*
X256769394Y-77315850D01*
X256453817Y-77318811D01*
X256348881Y-77280145D01*
X256171953Y-77147516D01*
X256100317Y-77035083D01*
X256083968Y-76904982D01*
X256061870Y-76618958D01*
X256035671Y-76204334D01*
X256007021Y-75688431D01*
X255977566Y-75098572D01*
X255958768Y-74688400D01*
X255923399Y-73970891D01*
X255880137Y-73222212D01*
X255832313Y-72492286D01*
X255783256Y-71831041D01*
X255736296Y-71288399D01*
X255723310Y-71158075D01*
X255305671Y-68012539D01*
X254711751Y-64915384D01*
X253943368Y-61871249D01*
X253002340Y-58884774D01*
X251890486Y-55960597D01*
X250609626Y-53103360D01*
X249161577Y-50317700D01*
X247548159Y-47608257D01*
X245771190Y-44979672D01*
X245104784Y-44071398D01*
X244805382Y-43666699D01*
X244549310Y-43310852D01*
X244355204Y-43030541D01*
X244241702Y-42852452D01*
X244219968Y-42804539D01*
X244271671Y-42628909D01*
X244389884Y-42414550D01*
X244519262Y-42259787D01*
X244531710Y-42250683D01*
X244804291Y-42166911D01*
X245100172Y-42264435D01*
G37*
G36*
X188440087Y-72173688D02*
G01*
X188623130Y-71883204D01*
X188905663Y-71683527D01*
X189245091Y-71615163D01*
X189577044Y-71529709D01*
X189854114Y-71289549D01*
X190061287Y-70918983D01*
X190183551Y-70442310D01*
X190210582Y-70052392D01*
X190285789Y-69772433D01*
X190477402Y-69492319D01*
X190734405Y-69265714D01*
X191005782Y-69146280D01*
X191078559Y-69139351D01*
X191479066Y-69225988D01*
X191816623Y-69465664D01*
X191866514Y-69523494D01*
X191941623Y-69602287D01*
X192016045Y-69612127D01*
X192117896Y-69532394D01*
X192275294Y-69342469D01*
X192475091Y-69077202D01*
X192878939Y-68584077D01*
X193387249Y-68037561D01*
X193953664Y-67482051D01*
X194232446Y-67231261D01*
X208940682Y-67231261D01*
X208967735Y-67257123D01*
X209100706Y-67299395D01*
X209800883Y-67601983D01*
X210386180Y-68045754D01*
X210850477Y-68624233D01*
X211187656Y-69330942D01*
X211271847Y-69597834D01*
X211360031Y-69897811D01*
X211415721Y-70036547D01*
X211449408Y-70031089D01*
X211469385Y-69918773D01*
X211523088Y-69700843D01*
X211635547Y-69384051D01*
X211783420Y-69033528D01*
X211798014Y-69001806D01*
X211981190Y-68640468D01*
X212178494Y-68303460D01*
X212348041Y-68062180D01*
X212352058Y-68057406D01*
X212609126Y-67820727D01*
X212949548Y-67592464D01*
X213308999Y-67408821D01*
X213623152Y-67306004D01*
X213704826Y-67296029D01*
X213817700Y-67282684D01*
X213765567Y-67252747D01*
X213639102Y-67219375D01*
X213169840Y-67048064D01*
X212720628Y-66786690D01*
X212370472Y-66481818D01*
X212352717Y-66461242D01*
X212120123Y-66129617D01*
X211885936Y-65704159D01*
X211683619Y-65254795D01*
X211546637Y-64851452D01*
X211517025Y-64714982D01*
X211464951Y-64494395D01*
X211406058Y-64377000D01*
X211392531Y-64371120D01*
X211335563Y-64451715D01*
X211279556Y-64651684D01*
X211268037Y-64714982D01*
X211167652Y-65079226D01*
X210988090Y-65518278D01*
X210762817Y-65962225D01*
X210525297Y-66341151D01*
X210431936Y-66461729D01*
X210175889Y-66698187D01*
X209836676Y-66925968D01*
X209478315Y-67109084D01*
X209164823Y-67211546D01*
X209080237Y-67221600D01*
X208940682Y-67231261D01*
X194232446Y-67231261D01*
X194531825Y-66961943D01*
X195075377Y-66521634D01*
X195346998Y-66326717D01*
X196595654Y-65586886D01*
X197935531Y-64983388D01*
X199324923Y-64533086D01*
X200322573Y-64314921D01*
X201035213Y-64229687D01*
X201865425Y-64193076D01*
X202754572Y-64202890D01*
X203644015Y-64256928D01*
X204475116Y-64352991D01*
X205189236Y-64488879D01*
X205230198Y-64499035D01*
X206530568Y-64901186D01*
X207781668Y-65432261D01*
X208480875Y-65801965D01*
X208821400Y-65994368D01*
X209044689Y-66105161D01*
X209191726Y-66145469D01*
X209303495Y-66126415D01*
X209420980Y-66059123D01*
X209423139Y-66057709D01*
X209764782Y-65732794D01*
X210050342Y-65253616D01*
X210269764Y-64643436D01*
X210412989Y-63925514D01*
X210437831Y-63710773D01*
X210530218Y-63195556D01*
X210697134Y-62838256D01*
X210950277Y-62624493D01*
X211301341Y-62539891D01*
X211392531Y-62537185D01*
X211766622Y-62595397D01*
X212040227Y-62779618D01*
X212225042Y-63104226D01*
X212332765Y-63583599D01*
X212347231Y-63710773D01*
X212475339Y-64490267D01*
X212689461Y-65144199D01*
X212982233Y-65661941D01*
X213346293Y-66032866D01*
X213774275Y-66246345D01*
X214138921Y-66296751D01*
X214483877Y-66354340D01*
X214805583Y-66503153D01*
X215031231Y-66707258D01*
X215057683Y-66750156D01*
X215122302Y-66961660D01*
X215151900Y-67237623D01*
X215152098Y-67259567D01*
X215126364Y-67535559D01*
X215063800Y-67756852D01*
X215057683Y-67768979D01*
X214856682Y-67981767D01*
X214543461Y-68143585D01*
X214188421Y-68220260D01*
X214123633Y-68222383D01*
X213680678Y-68311500D01*
X213263108Y-68568532D01*
X212895680Y-68978003D01*
X212881197Y-68999066D01*
X212581776Y-69439378D01*
X212801705Y-69816621D01*
X213362616Y-70843599D01*
X213784386Y-71762699D01*
X214070432Y-72581411D01*
X214082336Y-72623827D01*
X214229606Y-73200226D01*
X214363364Y-73806117D01*
X214475031Y-74394720D01*
X214556029Y-74919258D01*
X214597782Y-75332950D01*
X214601575Y-75455514D01*
X214524519Y-75876222D01*
X214312082Y-76216069D01*
X213990968Y-76436696D01*
X213896037Y-76468952D01*
X213750415Y-76485553D01*
X213438019Y-76500501D01*
X212957234Y-76513808D01*
X212306447Y-76525488D01*
X211484043Y-76535554D01*
X210488410Y-76544020D01*
X209317931Y-76550897D01*
X207970995Y-76556199D01*
X206445985Y-76559938D01*
X204741289Y-76562129D01*
X202855293Y-76562784D01*
X202268704Y-76562687D01*
X200541431Y-76561900D01*
X198988809Y-76560469D01*
X197602095Y-76558299D01*
X196372546Y-76555297D01*
X195291422Y-76551367D01*
X194349979Y-76546416D01*
X193539475Y-76540350D01*
X192851169Y-76533074D01*
X192276317Y-76524494D01*
X191806178Y-76514516D01*
X191432010Y-76503046D01*
X191145070Y-76489989D01*
X190936616Y-76475252D01*
X190797905Y-76458740D01*
X190720197Y-76440358D01*
X190714914Y-76438181D01*
X190434498Y-76290583D01*
X190249593Y-76116784D01*
X190143152Y-75878180D01*
X190098129Y-75536166D01*
X190097476Y-75052138D01*
X190097802Y-75040640D01*
X190098752Y-74617165D01*
X190078349Y-74266314D01*
X190039940Y-74035134D01*
X190023177Y-73991784D01*
X189836281Y-73778655D01*
X189552552Y-73587055D01*
X189254731Y-73467004D01*
X189126091Y-73449441D01*
X188926652Y-73386532D01*
X188698160Y-73230831D01*
X188644683Y-73181061D01*
X188435184Y-72863508D01*
X188381296Y-72564494D01*
X189667043Y-72564494D01*
X190014072Y-72719863D01*
X190338435Y-72927703D01*
X190646125Y-73229198D01*
X190884561Y-73564634D01*
X190993613Y-73832317D01*
X191055377Y-74029642D01*
X191128296Y-74066700D01*
X191225372Y-73937771D01*
X191342627Y-73678776D01*
X191620329Y-73223323D01*
X192021979Y-72851399D01*
X192336942Y-72675696D01*
X192583519Y-72571734D01*
X192199397Y-72367375D01*
X191762916Y-72033080D01*
X191433473Y-71558159D01*
X191272039Y-71146678D01*
X191188054Y-70910322D01*
X191119862Y-70854869D01*
X191053778Y-70980835D01*
X191006320Y-71156679D01*
X190852985Y-71540831D01*
X190600182Y-71920764D01*
X190296107Y-72234508D01*
X190039155Y-72400318D01*
X189667043Y-72564494D01*
X188381296Y-72564494D01*
X188372212Y-72514086D01*
X188440087Y-72173688D01*
G37*
G36*
X185890319Y-98277701D02*
G01*
X186213234Y-98431530D01*
X186640319Y-98687643D01*
X186978504Y-98908409D01*
X188782424Y-100001341D01*
X190688929Y-100949412D01*
X192680302Y-101746184D01*
X194738825Y-102385220D01*
X196846783Y-102860079D01*
X198562871Y-103118142D01*
X199161499Y-103173331D01*
X199883928Y-103216303D01*
X200682409Y-103246293D01*
X201509192Y-103262532D01*
X202316528Y-103264254D01*
X203056667Y-103250692D01*
X203681858Y-103221080D01*
X203897065Y-103203822D01*
X204257561Y-103175233D01*
X204486441Y-103177379D01*
X204633980Y-103217578D01*
X204750453Y-103303144D01*
X204780515Y-103332389D01*
X204944081Y-103605416D01*
X204948329Y-103901770D01*
X204799345Y-104158530D01*
X204652816Y-104256306D01*
X204419379Y-104323348D01*
X204059268Y-104369220D01*
X203859453Y-104384556D01*
X202824925Y-104443966D01*
X201904913Y-104472614D01*
X201033300Y-104471424D01*
X200143965Y-104441321D01*
X200067982Y-104437586D01*
X197862347Y-104235707D01*
X195687905Y-103853193D01*
X193545514Y-103290275D01*
X191436031Y-102547187D01*
X189360313Y-101624160D01*
X188994176Y-101440879D01*
X188488549Y-101174130D01*
X187942846Y-100870305D01*
X187384010Y-100546064D01*
X186838984Y-100218070D01*
X186334714Y-99902984D01*
X185898142Y-99617468D01*
X185556212Y-99378184D01*
X185335868Y-99201793D01*
X185281881Y-99145238D01*
X185181689Y-98894374D01*
X185188323Y-98603195D01*
X185298316Y-98365145D01*
X185311355Y-98351316D01*
X185462904Y-98245455D01*
X185648050Y-98218297D01*
X185890319Y-98277701D01*
G37*
G36*
X97448364Y-48052702D02*
G01*
X97604171Y-48257760D01*
X97632005Y-48372096D01*
X97627721Y-48546145D01*
X97586714Y-48805376D01*
X97504383Y-49175259D01*
X97376123Y-49681262D01*
X97284660Y-50025602D01*
X96514850Y-53108717D01*
X95823084Y-56322469D01*
X95216363Y-59628421D01*
X94701689Y-62988134D01*
X94286064Y-66363173D01*
X94254053Y-66663538D01*
X94024715Y-69209984D01*
X93856457Y-71881455D01*
X93750034Y-74629785D01*
X93706205Y-77406812D01*
X93725725Y-80164370D01*
X93809352Y-82854295D01*
X93957843Y-85428423D01*
X93958879Y-85442712D01*
X94000319Y-86083734D01*
X94017643Y-86566954D01*
X94009011Y-86916603D01*
X93972583Y-87156915D01*
X93906520Y-87312122D01*
X93809805Y-87405935D01*
X93554333Y-87475921D01*
X93268352Y-87432149D01*
X93068167Y-87306680D01*
X92999914Y-87219431D01*
X92945688Y-87109928D01*
X92901675Y-86952819D01*
X92864058Y-86722749D01*
X92829022Y-86394364D01*
X92792752Y-85942312D01*
X92751431Y-85341238D01*
X92735334Y-85095033D01*
X92535212Y-80617142D01*
X92515124Y-76136318D01*
X92674382Y-71661752D01*
X93012301Y-67202632D01*
X93528193Y-62768148D01*
X94221372Y-58367488D01*
X95040838Y-54238629D01*
X95209479Y-53485826D01*
X95391009Y-52707314D01*
X95579719Y-51924849D01*
X95769900Y-51160187D01*
X95955845Y-50435082D01*
X96131846Y-49771292D01*
X96292195Y-49190572D01*
X96431182Y-48714679D01*
X96543102Y-48365367D01*
X96622244Y-48164393D01*
X96643462Y-48130392D01*
X96902261Y-47957728D01*
X97189240Y-47934308D01*
X97448364Y-48052702D01*
G37*
G36*
X197884346Y-84361218D02*
G01*
X198746528Y-84362243D01*
X199456634Y-84364694D01*
X200030320Y-84369178D01*
X200483245Y-84376303D01*
X200831066Y-84386677D01*
X201089443Y-84400907D01*
X201274034Y-84419601D01*
X201400495Y-84443365D01*
X201484485Y-84472809D01*
X201541663Y-84508538D01*
X201580979Y-84544405D01*
X201719709Y-84762855D01*
X201764372Y-84957040D01*
X201700596Y-85194229D01*
X201580979Y-85369676D01*
X201534411Y-85411161D01*
X201474444Y-85445863D01*
X201385457Y-85474382D01*
X201251824Y-85497315D01*
X201057924Y-85515262D01*
X200788132Y-85528823D01*
X200426825Y-85538596D01*
X199958380Y-85545181D01*
X199367173Y-85549177D01*
X198637582Y-85551183D01*
X197753982Y-85551798D01*
X196835672Y-85551665D01*
X195936360Y-85550071D01*
X195091849Y-85546032D01*
X194320060Y-85539814D01*
X193638917Y-85531679D01*
X193066340Y-85521892D01*
X192620251Y-85510718D01*
X192318573Y-85498421D01*
X192179227Y-85485265D01*
X192172865Y-85482892D01*
X192039150Y-85332260D01*
X191916646Y-85109589D01*
X191861169Y-84916906D01*
X191861123Y-84913052D01*
X191920928Y-84784258D01*
X192066853Y-84605805D01*
X192086197Y-84586085D01*
X192311271Y-84361011D01*
X196854428Y-84361011D01*
X197884346Y-84361218D01*
G37*
G36*
X220970693Y-91130188D02*
G01*
X221186182Y-91348902D01*
X221251449Y-91522717D01*
X221259522Y-91659002D01*
X221206331Y-91818794D01*
X221073724Y-92035676D01*
X220843546Y-92343229D01*
X220730969Y-92485533D01*
X220452975Y-92815966D01*
X220084469Y-93228463D01*
X219666973Y-93677808D01*
X219242008Y-94118783D01*
X219096816Y-94265152D01*
X217839057Y-95447903D01*
X216562735Y-96493014D01*
X215224679Y-97431267D01*
X213781720Y-98293443D01*
X212538741Y-98941250D01*
X210639674Y-99791560D01*
X208747361Y-100464911D01*
X206843592Y-100966032D01*
X204910161Y-101299649D01*
X202928858Y-101470492D01*
X202773037Y-101477063D01*
X202230911Y-101496825D01*
X201841942Y-101505391D01*
X201576105Y-101500401D01*
X201403376Y-101479496D01*
X201293732Y-101440317D01*
X201217148Y-101380504D01*
X201191268Y-101352771D01*
X201051306Y-101072224D01*
X201061985Y-100761844D01*
X201214192Y-100499639D01*
X201336748Y-100406112D01*
X201504331Y-100350300D01*
X201762864Y-100323309D01*
X202158269Y-100316246D01*
X202161082Y-100316246D01*
X203452187Y-100260315D01*
X204841549Y-100099139D01*
X206284707Y-99842643D01*
X207737196Y-99500751D01*
X209154555Y-99083389D01*
X210492320Y-98600481D01*
X211209138Y-98296569D01*
X213048432Y-97367384D01*
X214804411Y-96276281D01*
X216471607Y-95027393D01*
X218044553Y-93624852D01*
X219517780Y-92072793D01*
X219660690Y-91908033D01*
X219991364Y-91532689D01*
X220235063Y-91281399D01*
X220416478Y-91132745D01*
X220560306Y-91065306D01*
X220644284Y-91054874D01*
X220970693Y-91130188D01*
G37*
G36*
X234054871Y-84666319D02*
G01*
X234094858Y-84675609D01*
X234308447Y-84792473D01*
X234461642Y-84955432D01*
X234518390Y-85057022D01*
X234544851Y-85169390D01*
X234536375Y-85325998D01*
X234488311Y-85560307D01*
X234396010Y-85905777D01*
X234267500Y-86352351D01*
X233507156Y-88640948D01*
X232578218Y-90875612D01*
X231489367Y-93043758D01*
X230249285Y-95132803D01*
X228866653Y-97130160D01*
X227350152Y-99023244D01*
X225708463Y-100799471D01*
X223950269Y-102446254D01*
X222174159Y-103883713D01*
X221788269Y-104167765D01*
X221511492Y-104351417D01*
X221310456Y-104449729D01*
X221151788Y-104477760D01*
X221002115Y-104450570D01*
X220954492Y-104434087D01*
X220721861Y-104260627D01*
X220595744Y-103992397D01*
X220598471Y-103760413D01*
X220692330Y-103615510D01*
X220901479Y-103399535D01*
X221191038Y-103146691D01*
X221361206Y-103012455D01*
X222739665Y-101894292D01*
X224135852Y-100624231D01*
X225194837Y-99573061D01*
X226813454Y-97790926D01*
X228275914Y-95926118D01*
X229587188Y-93970081D01*
X230752246Y-91914257D01*
X231776059Y-89750088D01*
X232663596Y-87469018D01*
X233217662Y-85760727D01*
X233377958Y-85268298D01*
X233524110Y-84934558D01*
X233673836Y-84737592D01*
X233844850Y-84655484D01*
X234054871Y-84666319D01*
G37*
G36*
X297499678Y-94054259D02*
G01*
X297715887Y-94212308D01*
X297848157Y-94407491D01*
X297862567Y-94485744D01*
X297843217Y-94640731D01*
X297788916Y-94947917D01*
X297705292Y-95380652D01*
X297597969Y-95912287D01*
X297472575Y-96516171D01*
X297334735Y-97165655D01*
X297190076Y-97834090D01*
X297044223Y-98494825D01*
X296902804Y-99121211D01*
X296771443Y-99686599D01*
X296712902Y-99931439D01*
X295974086Y-102771179D01*
X295119413Y-105674697D01*
X294167713Y-108585243D01*
X293137813Y-111446070D01*
X292048544Y-114200429D01*
X291717173Y-114987726D01*
X291422148Y-115670884D01*
X291110924Y-116378032D01*
X290793342Y-117088019D01*
X290479246Y-117779695D01*
X290178476Y-118431909D01*
X289900876Y-119023510D01*
X289656288Y-119533348D01*
X289454553Y-119940272D01*
X289305515Y-120223131D01*
X289219014Y-120360776D01*
X289214895Y-120365069D01*
X288943729Y-120509718D01*
X288626087Y-120514840D01*
X288535166Y-120486834D01*
X288352798Y-120326976D01*
X288250541Y-120068313D01*
X288258325Y-119788437D01*
X288261495Y-119777410D01*
X288311986Y-119653686D01*
X288429364Y-119387911D01*
X288602717Y-119004106D01*
X288821131Y-118526292D01*
X289073691Y-117978491D01*
X289312761Y-117463538D01*
X290989596Y-113646404D01*
X292499825Y-109755737D01*
X293840250Y-105801266D01*
X295007668Y-101792716D01*
X295998881Y-97739817D01*
X296355839Y-96056531D01*
X296495286Y-95388175D01*
X296613798Y-94879515D01*
X296720705Y-94509367D01*
X296825339Y-94256549D01*
X296937031Y-94099876D01*
X297065114Y-94018167D01*
X297218917Y-93990239D01*
X297266538Y-93989170D01*
X297499678Y-94054259D01*
G37*
G36*
X164552996Y-82917502D02*
G01*
X164693072Y-82987455D01*
X164784837Y-83040988D01*
X164857774Y-83101816D01*
X164920251Y-83194760D01*
X164980638Y-83344637D01*
X165047305Y-83576268D01*
X165128621Y-83914471D01*
X165232954Y-84384065D01*
X165357237Y-84957040D01*
X165959976Y-87317513D01*
X166737339Y-89652591D01*
X167680802Y-91946433D01*
X168781845Y-94183195D01*
X170031946Y-96347037D01*
X171422583Y-98422116D01*
X172945234Y-100392590D01*
X174591377Y-102242616D01*
X174736755Y-102393842D01*
X175169311Y-102846341D01*
X175485521Y-103191485D01*
X175701161Y-103449109D01*
X175832004Y-103639048D01*
X175893825Y-103781138D01*
X175904484Y-103862119D01*
X175865248Y-104147013D01*
X175721744Y-104333516D01*
X175568054Y-104428872D01*
X175410128Y-104507726D01*
X175305247Y-104515249D01*
X175145408Y-104455996D01*
X175124687Y-104447564D01*
X174978660Y-104345065D01*
X174732197Y-104123316D01*
X174404435Y-103802123D01*
X174014511Y-103401291D01*
X173581560Y-102940623D01*
X173124720Y-102439924D01*
X172663126Y-101918998D01*
X172502490Y-101733825D01*
X170860074Y-99689483D01*
X169365836Y-97539215D01*
X168023233Y-95289743D01*
X166835722Y-92947787D01*
X165806758Y-90520067D01*
X164939798Y-88013302D01*
X164344872Y-85874008D01*
X164187198Y-85201185D01*
X164064516Y-84599452D01*
X163983067Y-84102665D01*
X163949092Y-83744681D01*
X163948631Y-83724315D01*
X163949578Y-83399635D01*
X163976700Y-83205446D01*
X164047455Y-83089052D01*
X164179296Y-82997760D01*
X164191629Y-82990741D01*
X164391105Y-82900362D01*
X164552996Y-82917502D01*
G37*
G36*
X189492779Y-45086378D02*
G01*
X189524370Y-45098807D01*
X189739712Y-45263691D01*
X189861071Y-45437039D01*
X189905392Y-45660420D01*
X189816744Y-45870939D01*
X189582466Y-46080943D01*
X189189895Y-46302777D01*
X188789282Y-46482127D01*
X187236060Y-47192191D01*
X185643184Y-48035183D01*
X184057370Y-48982248D01*
X182525335Y-50004534D01*
X181093797Y-51073187D01*
X180306377Y-51721351D01*
X178557393Y-53334168D01*
X176924298Y-55072670D01*
X175417061Y-56922141D01*
X174045649Y-58867865D01*
X172820033Y-60895125D01*
X171750181Y-62989207D01*
X170846062Y-65135394D01*
X170436931Y-66290636D01*
X170309830Y-66634275D01*
X170181275Y-66915819D01*
X170075432Y-67083586D01*
X170058909Y-67099098D01*
X169784594Y-67206282D01*
X169489594Y-67155817D01*
X169293619Y-67020221D01*
X169198312Y-66894828D01*
X169150697Y-66737746D01*
X169155141Y-66524533D01*
X169216013Y-66230745D01*
X169337678Y-65831941D01*
X169524506Y-65303676D01*
X169670059Y-64913449D01*
X170643277Y-62587269D01*
X171768711Y-60357272D01*
X173040876Y-58229517D01*
X174454287Y-56210063D01*
X176003461Y-54304970D01*
X177682912Y-52520296D01*
X179487157Y-50862101D01*
X181410710Y-49336443D01*
X183448088Y-47949383D01*
X185593805Y-46706978D01*
X186626495Y-46180440D01*
X187382410Y-45815263D01*
X187994056Y-45530457D01*
X188478706Y-45319578D01*
X188853631Y-45176177D01*
X189136103Y-45093808D01*
X189343395Y-45066024D01*
X189492779Y-45086378D01*
G37*
G36*
X108780265Y-104847211D02*
G01*
X108987445Y-104969856D01*
X109062040Y-105108207D01*
X109178940Y-105388626D01*
X109325598Y-105778182D01*
X109489465Y-106243946D01*
X109607621Y-106597473D01*
X110856206Y-110199598D01*
X112195858Y-113648506D01*
X113629635Y-116951872D01*
X114296142Y-118371706D01*
X114528161Y-118863341D01*
X114729301Y-119306718D01*
X114886707Y-119672083D01*
X114987522Y-119929686D01*
X115019246Y-120045171D01*
X114940382Y-120294758D01*
X114741376Y-120473186D01*
X114478602Y-120559040D01*
X114208436Y-120530905D01*
X114032692Y-120419945D01*
X113938704Y-120280322D01*
X113781739Y-119994017D01*
X113571953Y-119582526D01*
X113319500Y-119067348D01*
X113034534Y-118469981D01*
X112727212Y-117811923D01*
X112407687Y-117114673D01*
X112086114Y-116399728D01*
X111772649Y-115688587D01*
X111510046Y-115079423D01*
X110843346Y-113475468D01*
X110221442Y-111895094D01*
X109621763Y-110278502D01*
X109021736Y-108565892D01*
X108768285Y-107815814D01*
X108525331Y-107085665D01*
X108337337Y-106508734D01*
X108198974Y-106065039D01*
X108104911Y-105734597D01*
X108049818Y-105497426D01*
X108028367Y-105333544D01*
X108035227Y-105222968D01*
X108058997Y-105156608D01*
X108181251Y-104970015D01*
X108270338Y-104879563D01*
X108506674Y-104812340D01*
X108780265Y-104847211D01*
G37*
G36*
X181392542Y-32443684D02*
G01*
X181582692Y-32632358D01*
X181673681Y-32881706D01*
X181643004Y-33138452D01*
X181522315Y-33307668D01*
X181382857Y-33400197D01*
X181114564Y-33553197D01*
X180753512Y-33746907D01*
X180335779Y-33961570D01*
X180247787Y-34005686D01*
X177698106Y-35380336D01*
X175233475Y-36913721D01*
X172862732Y-38597768D01*
X170594713Y-40424405D01*
X168438256Y-42385558D01*
X166402197Y-44473156D01*
X164495374Y-46679126D01*
X162726624Y-48995395D01*
X161104784Y-51413891D01*
X160990855Y-51596691D01*
X160712208Y-52037947D01*
X160453292Y-52433032D01*
X160234980Y-52751200D01*
X160078147Y-52961703D01*
X160022112Y-53023647D01*
X159751009Y-53168474D01*
X159483608Y-53130268D01*
X159308777Y-53000722D01*
X159170034Y-52782100D01*
X159125383Y-52587677D01*
X159174742Y-52423757D01*
X159313421Y-52132181D01*
X159527328Y-51736745D01*
X159802368Y-51261248D01*
X160124448Y-50729486D01*
X160479474Y-50165258D01*
X160853352Y-49592361D01*
X161215926Y-49057762D01*
X162428215Y-47375847D01*
X163663820Y-45804591D01*
X164969310Y-44287821D01*
X166391252Y-42769364D01*
X166639448Y-42515622D01*
X168490246Y-40714321D01*
X170348588Y-39070747D01*
X172245903Y-37560792D01*
X174213620Y-36160351D01*
X176283169Y-34845319D01*
X177741477Y-34000534D01*
X178638155Y-33507228D01*
X179410842Y-33098539D01*
X180053378Y-32777436D01*
X180559605Y-32546888D01*
X180923364Y-32409865D01*
X181125738Y-32368954D01*
X181392542Y-32443684D01*
G37*
G36*
X135822082Y-91110481D02*
G01*
X135914782Y-91178775D01*
X135970354Y-91303123D01*
X136063359Y-91574865D01*
X136184485Y-91964058D01*
X136324422Y-92440758D01*
X136473860Y-92975022D01*
X136477890Y-92989786D01*
X137410333Y-96086880D01*
X138514539Y-99180945D01*
X139780170Y-102247219D01*
X141196890Y-105260938D01*
X142754359Y-108197339D01*
X143026942Y-108677566D01*
X143301678Y-109168526D01*
X143541176Y-109618621D01*
X143730979Y-109998854D01*
X143856632Y-110280230D01*
X143903677Y-110433751D01*
X143903722Y-110436178D01*
X143847452Y-110673447D01*
X143759628Y-110808974D01*
X143542417Y-110920752D01*
X143260638Y-110948445D01*
X143017388Y-110882271D01*
X143013382Y-110879769D01*
X142905707Y-110757972D01*
X142725918Y-110491824D01*
X142484854Y-110100533D01*
X142193355Y-109603307D01*
X141862261Y-109019356D01*
X141502411Y-108367888D01*
X141124647Y-107668111D01*
X140739806Y-106939233D01*
X140358730Y-106200463D01*
X140234550Y-105955596D01*
X139236795Y-103909622D01*
X138343729Y-101924811D01*
X137527555Y-99935516D01*
X136760477Y-97876089D01*
X136508224Y-97154946D01*
X136344095Y-96663251D01*
X136161074Y-96089071D01*
X135966775Y-95458951D01*
X135768812Y-94799437D01*
X135574796Y-94137076D01*
X135392343Y-93498411D01*
X135229065Y-92909988D01*
X135092575Y-92398354D01*
X134990488Y-91990054D01*
X134930416Y-91711632D01*
X134917441Y-91608357D01*
X134977408Y-91362896D01*
X135085130Y-91206631D01*
X135307575Y-91092585D01*
X135580586Y-91059616D01*
X135822082Y-91110481D01*
G37*
G36*
X192342505Y-60373102D02*
G01*
X192358906Y-60388861D01*
X192470705Y-60606120D01*
X192498353Y-60887948D01*
X192432087Y-61131288D01*
X192429605Y-61135262D01*
X192322207Y-61236107D01*
X192103044Y-61400865D01*
X191816168Y-61596734D01*
X191766207Y-61629234D01*
X190366269Y-62639704D01*
X189057883Y-63797428D01*
X187858147Y-65082213D01*
X186784159Y-66473864D01*
X185853015Y-67952190D01*
X185081815Y-69496997D01*
X185057945Y-69551986D01*
X184796307Y-70120638D01*
X184569293Y-70522534D01*
X184364412Y-70768155D01*
X184169175Y-70867982D01*
X183971092Y-70832498D01*
X183757672Y-70672184D01*
X183741793Y-70656515D01*
X183587878Y-70460845D01*
X183517214Y-70288640D01*
X183516719Y-70277943D01*
X183551203Y-70132723D01*
X183644248Y-69862892D01*
X183780239Y-69511565D01*
X183891796Y-69242187D01*
X184690472Y-67592836D01*
X185645979Y-66023275D01*
X186745420Y-64548972D01*
X187975893Y-63185396D01*
X189324499Y-61948019D01*
X190778340Y-60852308D01*
X191024693Y-60688006D01*
X191489003Y-60414003D01*
X191850733Y-60273026D01*
X192128897Y-60260813D01*
X192342505Y-60373102D01*
G37*
G36*
X319145589Y-35787545D02*
G01*
X319279138Y-35857894D01*
X319354491Y-35985627D01*
X319474001Y-36271603D01*
X319631678Y-36697664D01*
X319821530Y-37245649D01*
X320037566Y-37897398D01*
X320273797Y-38634751D01*
X320524232Y-39439548D01*
X320782880Y-40293629D01*
X321043750Y-41178835D01*
X321110676Y-41410025D01*
X322299364Y-45845708D01*
X323326966Y-50345003D01*
X324184730Y-54869412D01*
X324227426Y-55121905D01*
X324350159Y-55865426D01*
X324440384Y-56450238D01*
X324499503Y-56897862D01*
X324528914Y-57229821D01*
X324530020Y-57467635D01*
X324504219Y-57632828D01*
X324452913Y-57746920D01*
X324402227Y-57808252D01*
X324170550Y-57927338D01*
X323882672Y-57939034D01*
X323630992Y-57843323D01*
X323590193Y-57808390D01*
X323537426Y-57754939D01*
X323494535Y-57698009D01*
X323456344Y-57614440D01*
X323417676Y-57481070D01*
X323373355Y-57274742D01*
X323318204Y-56972294D01*
X323247048Y-56550567D01*
X323154710Y-55986400D01*
X323079260Y-55522383D01*
X322287527Y-51188480D01*
X321321241Y-46842904D01*
X320185945Y-42508606D01*
X318930849Y-38344230D01*
X318722199Y-37691553D01*
X318565399Y-37189779D01*
X318455139Y-36815553D01*
X318386106Y-36545522D01*
X318352988Y-36356330D01*
X318350476Y-36224623D01*
X318373256Y-36127047D01*
X318409479Y-36051811D01*
X318601601Y-35865088D01*
X318872593Y-35771286D01*
X319145589Y-35787545D01*
G37*
G36*
X256113920Y-33413503D02*
G01*
X256315211Y-33550681D01*
X256561218Y-33802231D01*
X256869010Y-34180514D01*
X257255657Y-34697893D01*
X257348401Y-34825279D01*
X257831223Y-35505050D01*
X258339790Y-36247495D01*
X258864165Y-37036011D01*
X259394414Y-37853995D01*
X259920601Y-38684845D01*
X260432791Y-39511958D01*
X260921047Y-40318733D01*
X261375435Y-41088568D01*
X261786018Y-41804858D01*
X262142863Y-42451003D01*
X262436032Y-43010400D01*
X262655590Y-43466446D01*
X262791603Y-43802539D01*
X262834408Y-43992494D01*
X262760742Y-44180781D01*
X262583391Y-44378761D01*
X262367830Y-44525282D01*
X262221845Y-44564621D01*
X262072110Y-44504085D01*
X261885328Y-44357293D01*
X261874339Y-44346462D01*
X261720974Y-44151844D01*
X261533385Y-43856422D01*
X261362612Y-43544115D01*
X260882775Y-42631625D01*
X260307996Y-41609496D01*
X259658851Y-40510529D01*
X258955918Y-39367522D01*
X258219774Y-38213274D01*
X257470996Y-37080586D01*
X256730162Y-36002255D01*
X256017848Y-35011081D01*
X255961009Y-34934237D01*
X255662751Y-34507728D01*
X255485919Y-34184527D01*
X255423416Y-33937121D01*
X255468142Y-33737995D01*
X255607656Y-33564583D01*
X255777212Y-33432816D01*
X255940277Y-33378336D01*
X256113920Y-33413503D01*
G37*
G36*
X336810422Y-41518275D02*
G01*
X336949659Y-41703582D01*
X337086403Y-42011730D01*
X337230472Y-42458586D01*
X337391684Y-43060018D01*
X337505756Y-43522481D01*
X338381538Y-47402923D01*
X339140683Y-51320387D01*
X339786303Y-55296772D01*
X340321507Y-59353980D01*
X340749407Y-63513908D01*
X341073111Y-67798459D01*
X341156924Y-69231047D01*
X341187483Y-69924834D01*
X341213048Y-70773449D01*
X341233618Y-71749180D01*
X341249192Y-72824317D01*
X341259767Y-73971148D01*
X341265342Y-75161961D01*
X341265916Y-76369045D01*
X341261486Y-77564687D01*
X341252053Y-78721178D01*
X341237613Y-79810804D01*
X341218166Y-80805855D01*
X341193709Y-81678619D01*
X341164242Y-82401385D01*
X341157661Y-82527076D01*
X340894536Y-86512651D01*
X340547351Y-90365609D01*
X340111436Y-94118652D01*
X339582123Y-97804480D01*
X338954743Y-101455795D01*
X338224628Y-105105297D01*
X337440446Y-108563512D01*
X337272863Y-109253145D01*
X337136919Y-109784716D01*
X337025940Y-110179508D01*
X336933252Y-110458805D01*
X336852181Y-110643890D01*
X336776052Y-110756048D01*
X336743171Y-110787158D01*
X336469589Y-110934875D01*
X336201901Y-110907940D01*
X336028819Y-110810324D01*
X335915517Y-110702657D01*
X335851244Y-110554118D01*
X335837027Y-110337528D01*
X335873893Y-110025711D01*
X335962869Y-109591488D01*
X336095551Y-109044998D01*
X336303695Y-108194909D01*
X336533942Y-107210612D01*
X336776066Y-106138419D01*
X337019842Y-105024642D01*
X337255045Y-103915595D01*
X337471450Y-102857590D01*
X337557080Y-102425271D01*
X338412330Y-97588158D01*
X339093032Y-92710129D01*
X339599385Y-87800580D01*
X339931584Y-82868909D01*
X340089828Y-77924512D01*
X340074314Y-72976786D01*
X339885239Y-68035128D01*
X339522800Y-63108934D01*
X338987195Y-58207602D01*
X338278621Y-53340528D01*
X337397276Y-48517110D01*
X336343356Y-43746743D01*
X336323287Y-43663420D01*
X336173559Y-43030932D01*
X336069927Y-42551000D01*
X336011879Y-42198810D01*
X335998905Y-41949545D01*
X336030493Y-41778389D01*
X336106134Y-41660527D01*
X336225315Y-41571144D01*
X336279579Y-41540730D01*
X336485199Y-41452717D01*
X336658874Y-41439943D01*
X336810422Y-41518275D01*
G37*
G36*
X203140888Y-52025534D02*
G01*
X203926244Y-52091015D01*
X206026269Y-52388295D01*
X208076502Y-52856932D01*
X210067382Y-53490959D01*
X211989350Y-54284407D01*
X213832845Y-55231306D01*
X215588305Y-56325689D01*
X217246170Y-57561586D01*
X218796880Y-58933029D01*
X220230874Y-60434049D01*
X221538591Y-62058678D01*
X222710471Y-63800946D01*
X222727304Y-63828499D01*
X223415633Y-65051128D01*
X224067703Y-66391032D01*
X224661584Y-67794493D01*
X225175342Y-69207793D01*
X225587048Y-70577212D01*
X225746755Y-71224174D01*
X225873993Y-71826196D01*
X225945454Y-72278973D01*
X225961947Y-72607707D01*
X225924285Y-72837597D01*
X225833278Y-72993844D01*
X225804625Y-73022251D01*
X225547329Y-73152914D01*
X225263890Y-73149693D01*
X225031051Y-73013538D01*
X224954862Y-72863604D01*
X224855720Y-72575961D01*
X224746748Y-72192707D01*
X224646157Y-71778776D01*
X224111552Y-69756689D01*
X223435980Y-67847820D01*
X222613405Y-66041187D01*
X221637791Y-64325805D01*
X220503106Y-62690691D01*
X219203313Y-61124862D01*
X218230990Y-60102973D01*
X217028365Y-58965932D01*
X215834830Y-57972739D01*
X214605992Y-57091818D01*
X213297462Y-56291593D01*
X211864849Y-55540490D01*
X211713470Y-55467066D01*
X209835764Y-54663535D01*
X207898464Y-54033024D01*
X205905511Y-53576517D01*
X203860849Y-53294998D01*
X202689345Y-53213907D01*
X202152175Y-53186397D01*
X201767879Y-53157041D01*
X201505957Y-53121172D01*
X201335911Y-53074120D01*
X201227243Y-53011216D01*
X201199273Y-52985803D01*
X201056164Y-52735897D01*
X201043067Y-52451903D01*
X201157023Y-52205108D01*
X201234595Y-52134803D01*
X201472023Y-52049202D01*
X201876830Y-52002327D01*
X202437092Y-51994373D01*
X203140888Y-52025534D01*
G37*
G36*
X125454369Y-34584360D02*
G01*
X125601544Y-34647070D01*
X125633145Y-34664265D01*
X125774559Y-34758035D01*
X125866797Y-34869226D01*
X125904777Y-35017178D01*
X125883417Y-35221231D01*
X125797637Y-35500726D01*
X125642354Y-35875003D01*
X125412488Y-36363404D01*
X125102956Y-36985268D01*
X124937758Y-37310981D01*
X123226509Y-40874053D01*
X121688521Y-44496910D01*
X120324274Y-48177855D01*
X119134249Y-51915190D01*
X118118927Y-55707221D01*
X117278786Y-59552248D01*
X116614309Y-63448577D01*
X116125975Y-67394509D01*
X115983865Y-68940565D01*
X115943069Y-69492822D01*
X115900019Y-70183619D01*
X115857038Y-70968159D01*
X115816451Y-71801646D01*
X115780580Y-72639282D01*
X115753594Y-73379595D01*
X115726128Y-74180286D01*
X115701038Y-74817352D01*
X115676685Y-75310519D01*
X115651429Y-75679512D01*
X115623630Y-75944056D01*
X115591649Y-76123876D01*
X115553846Y-76238698D01*
X115510310Y-76306359D01*
X115270910Y-76449184D01*
X114986132Y-76452865D01*
X114727498Y-76319561D01*
X114689595Y-76281578D01*
X114628843Y-76201449D01*
X114584724Y-76097647D01*
X114555182Y-75943229D01*
X114538160Y-75711249D01*
X114531602Y-75374763D01*
X114533450Y-74906827D01*
X114540867Y-74333022D01*
X114690421Y-70393900D01*
X115021538Y-66474958D01*
X115533035Y-62580995D01*
X116223729Y-58716812D01*
X117092435Y-54887207D01*
X118137971Y-51096980D01*
X119359152Y-47350931D01*
X120754794Y-43653860D01*
X122323715Y-40010565D01*
X123724566Y-37094630D01*
X124100076Y-36353574D01*
X124407453Y-35763405D01*
X124658007Y-35309718D01*
X124863051Y-34978110D01*
X125033897Y-34754174D01*
X125181858Y-34623507D01*
X125318244Y-34571704D01*
X125454369Y-34584360D01*
G37*
G36*
X325683550Y-75406394D02*
G01*
X325699061Y-75416424D01*
X325949044Y-75580220D01*
X325893252Y-78801482D01*
X325725107Y-83373382D01*
X325378494Y-87954660D01*
X324852715Y-92552564D01*
X324147068Y-97174340D01*
X324079327Y-97565343D01*
X323971694Y-98158308D01*
X323880454Y-98595487D01*
X323796694Y-98902734D01*
X323711503Y-99105902D01*
X323615971Y-99230844D01*
X323501187Y-99303414D01*
X323476852Y-99313269D01*
X323303531Y-99375111D01*
X323233674Y-99393466D01*
X323146571Y-99359237D01*
X323009067Y-99304231D01*
X322821089Y-99154484D01*
X322689281Y-98922462D01*
X322656252Y-98690703D01*
X322668017Y-98643577D01*
X322702564Y-98497605D01*
X322759958Y-98195815D01*
X322836102Y-97763795D01*
X322926900Y-97227130D01*
X323028256Y-96611407D01*
X323136072Y-95942212D01*
X323246254Y-95245131D01*
X323354703Y-94545751D01*
X323457324Y-93869657D01*
X323550021Y-93242437D01*
X323628697Y-92689676D01*
X323670107Y-92384477D01*
X323949263Y-90110464D01*
X324189987Y-87815169D01*
X324389755Y-85533253D01*
X324546042Y-83299379D01*
X324656325Y-81148210D01*
X324718080Y-79114408D01*
X324731067Y-77814174D01*
X324734436Y-77097628D01*
X324746294Y-76541952D01*
X324770952Y-76124670D01*
X324812720Y-75823306D01*
X324875909Y-75615384D01*
X324964830Y-75478428D01*
X325083794Y-75389962D01*
X325205966Y-75338126D01*
X325444278Y-75305048D01*
X325683550Y-75406394D01*
G37*
G36*
X177622719Y-76220713D02*
G01*
X177772193Y-76298840D01*
X177879640Y-76458367D01*
X177954309Y-76723278D01*
X178005446Y-77117559D01*
X178042298Y-77665192D01*
X178050415Y-77829972D01*
X178237561Y-79924847D01*
X178598182Y-81963628D01*
X179129811Y-83940692D01*
X179829977Y-85850418D01*
X180696212Y-87687182D01*
X181726048Y-89445365D01*
X182917016Y-91119342D01*
X184266648Y-92703493D01*
X184846322Y-93306668D01*
X185573101Y-94020507D01*
X186234772Y-94629313D01*
X186878408Y-95173137D01*
X187551079Y-95692029D01*
X188178130Y-96141511D01*
X188614054Y-96464679D01*
X188896693Y-96728917D01*
X189037165Y-96956559D01*
X189046591Y-97169937D01*
X188936092Y-97391386D01*
X188852829Y-97496571D01*
X188693882Y-97618157D01*
X188491848Y-97639340D01*
X188221991Y-97553510D01*
X187859574Y-97354060D01*
X187542151Y-97146426D01*
X186871594Y-96674410D01*
X186255221Y-96204089D01*
X185650097Y-95699692D01*
X185013288Y-95125443D01*
X184308614Y-94452160D01*
X182830491Y-92885642D01*
X181508341Y-91223893D01*
X180344499Y-89471824D01*
X179341301Y-87634344D01*
X178501080Y-85716366D01*
X177826172Y-83722797D01*
X177318912Y-81658550D01*
X176981633Y-79528535D01*
X176916490Y-78905055D01*
X176851471Y-78112377D01*
X176821650Y-77483454D01*
X176830169Y-77001469D01*
X176880172Y-76649606D01*
X176974800Y-76411049D01*
X177117195Y-76268981D01*
X177310500Y-76206587D01*
X177421971Y-76200000D01*
X177622719Y-76220713D01*
G37*
G36*
X81548433Y-104318178D02*
G01*
X81726186Y-104546751D01*
X81730036Y-104555870D01*
X81775703Y-104698595D01*
X81859872Y-104992839D01*
X81975429Y-105412490D01*
X82115259Y-105931437D01*
X82272250Y-106523570D01*
X82419157Y-107085258D01*
X83371598Y-110538909D01*
X84418002Y-113940671D01*
X84841952Y-115222562D01*
X85069312Y-115905497D01*
X85236047Y-116437361D01*
X85344207Y-116839434D01*
X85395847Y-117132994D01*
X85393018Y-117339321D01*
X85337773Y-117479694D01*
X85232163Y-117575393D01*
X85078242Y-117647696D01*
X85075932Y-117648576D01*
X84897997Y-117712219D01*
X84822121Y-117732423D01*
X84737194Y-117692941D01*
X84600464Y-117627434D01*
X84526338Y-117582324D01*
X84455155Y-117510228D01*
X84379676Y-117393054D01*
X84292662Y-117212715D01*
X84186873Y-116951119D01*
X84055070Y-116590179D01*
X83890014Y-116111804D01*
X83684464Y-115497904D01*
X83431182Y-114730391D01*
X83385814Y-114592338D01*
X83077140Y-113636687D01*
X82768163Y-112650008D01*
X82463488Y-111649263D01*
X82167720Y-110651416D01*
X81885463Y-109673432D01*
X81621323Y-108732275D01*
X81379905Y-107844907D01*
X81165813Y-107028293D01*
X80983653Y-106299398D01*
X80838030Y-105675183D01*
X80733548Y-105172615D01*
X80674813Y-104808656D01*
X80666429Y-104600270D01*
X80669325Y-104585303D01*
X80807171Y-104344282D01*
X81035352Y-104218430D01*
X81300297Y-104209233D01*
X81548433Y-104318178D01*
G37*
G36*
X147941494Y-64972209D02*
G01*
X148121773Y-65104694D01*
X148207577Y-65199680D01*
X148263425Y-65302871D01*
X148288528Y-65443172D01*
X148282095Y-65649485D01*
X148243335Y-65950712D01*
X148171457Y-66375759D01*
X148072158Y-66918512D01*
X147608853Y-69913802D01*
X147317594Y-72957346D01*
X147198126Y-76034593D01*
X147250192Y-79130990D01*
X147473536Y-82231986D01*
X147867900Y-85323028D01*
X148433029Y-88389565D01*
X148452299Y-88479544D01*
X148557607Y-88994146D01*
X148642475Y-89457590D01*
X148701356Y-89835366D01*
X148728701Y-90092966D01*
X148726150Y-90183138D01*
X148609255Y-90367810D01*
X148440596Y-90488973D01*
X148221543Y-90576581D01*
X148074148Y-90575733D01*
X147906616Y-90481141D01*
X147870650Y-90456142D01*
X147787983Y-90388252D01*
X147715743Y-90296236D01*
X147647682Y-90158530D01*
X147577550Y-89953574D01*
X147499100Y-89659806D01*
X147406082Y-89255665D01*
X147292249Y-88719589D01*
X147151350Y-88030017D01*
X147114065Y-87845488D01*
X146858346Y-86532056D01*
X146645353Y-85325082D01*
X146471697Y-84188683D01*
X146333988Y-83086976D01*
X146228837Y-81984078D01*
X146152854Y-80844106D01*
X146102650Y-79631176D01*
X146074836Y-78309406D01*
X146066021Y-76842912D01*
X146066022Y-76750181D01*
X146069323Y-75590316D01*
X146079807Y-74581519D01*
X146099500Y-73691536D01*
X146130426Y-72888115D01*
X146174610Y-72139003D01*
X146234076Y-71411945D01*
X146310850Y-70674690D01*
X146406955Y-69894984D01*
X146524416Y-69040574D01*
X146569666Y-68726715D01*
X146722567Y-67719282D01*
X146863093Y-66886572D01*
X146993070Y-66220469D01*
X147114318Y-65712853D01*
X147228663Y-65355605D01*
X147337926Y-65140607D01*
X147386887Y-65087317D01*
X147672914Y-64938648D01*
X147941494Y-64972209D01*
G37*
G36*
X222041997Y-58169924D02*
G01*
X222342797Y-58359046D01*
X222414282Y-58430251D01*
X222918128Y-59007887D01*
X223475185Y-59712711D01*
X224058861Y-60506789D01*
X224642565Y-61352190D01*
X225199705Y-62210979D01*
X225703690Y-63045225D01*
X225928604Y-63443408D01*
X226907454Y-65411361D01*
X227725643Y-67456178D01*
X228379577Y-69561865D01*
X228865665Y-71712428D01*
X229180313Y-73891875D01*
X229319929Y-76084212D01*
X229280920Y-78273444D01*
X229276430Y-78347332D01*
X229228310Y-79042302D01*
X229178721Y-79575528D01*
X229123712Y-79968642D01*
X229059334Y-80243277D01*
X228981635Y-80421064D01*
X228886665Y-80523636D01*
X228877950Y-80529402D01*
X228638050Y-80596704D01*
X228356646Y-80570521D01*
X228137340Y-80460884D01*
X228133738Y-80457350D01*
X228075856Y-80389988D01*
X228034377Y-80304121D01*
X228008796Y-80175325D01*
X227998610Y-79979176D01*
X228003317Y-79691250D01*
X228022413Y-79287123D01*
X228055394Y-78742370D01*
X228088056Y-78240253D01*
X228133225Y-76170124D01*
X227998431Y-74064981D01*
X227683667Y-71924753D01*
X227338086Y-70331408D01*
X226730251Y-68241316D01*
X225950668Y-66210887D01*
X225003760Y-64248824D01*
X223893948Y-62363828D01*
X222625657Y-60564603D01*
X221937395Y-59704587D01*
X221607515Y-59289336D01*
X221402154Y-58973369D01*
X221312500Y-58730046D01*
X221329745Y-58532729D01*
X221445076Y-58354780D01*
X221479174Y-58319134D01*
X221748741Y-58155981D01*
X222041997Y-58169924D01*
G37*
G36*
X148302692Y-32594832D02*
G01*
X148336803Y-32628340D01*
X148440720Y-32773208D01*
X148482470Y-32930977D01*
X148452687Y-33123571D01*
X148342003Y-33372908D01*
X148141051Y-33700912D01*
X147840465Y-34129502D01*
X147497916Y-34591546D01*
X145742914Y-37047055D01*
X144067830Y-39631198D01*
X142502154Y-42296283D01*
X141117294Y-44910810D01*
X140894748Y-45338890D01*
X140688315Y-45706784D01*
X140516627Y-45983357D01*
X140398318Y-46137475D01*
X140371172Y-46157480D01*
X140032221Y-46208670D01*
X139743065Y-46083538D01*
X139685672Y-46031769D01*
X139548243Y-45831536D01*
X139502278Y-45663455D01*
X139547026Y-45491772D01*
X139674416Y-45181385D01*
X139874171Y-44751700D01*
X140136013Y-44222125D01*
X140449662Y-43612065D01*
X140804841Y-42940927D01*
X141191272Y-42228117D01*
X141598677Y-41493043D01*
X142016776Y-40755109D01*
X142435292Y-40033723D01*
X142843947Y-39348291D01*
X142867988Y-39308635D01*
X143248650Y-38694127D01*
X143680174Y-38019350D01*
X144148063Y-37305171D01*
X144637820Y-36572454D01*
X145134948Y-35842065D01*
X145624949Y-35134867D01*
X146093327Y-34471727D01*
X146525585Y-33873510D01*
X146907224Y-33361081D01*
X147223749Y-32955304D01*
X147460663Y-32677045D01*
X147514481Y-32621120D01*
X147761929Y-32486927D01*
X148051846Y-32478403D01*
X148302692Y-32594832D01*
G37*
G36*
X266695427Y-95124329D02*
G01*
X266944193Y-95259885D01*
X267049598Y-95387440D01*
X267098432Y-95489607D01*
X267120986Y-95600107D01*
X267111328Y-95748057D01*
X267063527Y-95962574D01*
X266971648Y-96272775D01*
X266829760Y-96707775D01*
X266704394Y-97081668D01*
X265545748Y-100244741D01*
X264213614Y-103374396D01*
X262717105Y-106454265D01*
X261065334Y-109467975D01*
X259267413Y-112399157D01*
X257332454Y-115231440D01*
X255269569Y-117948454D01*
X254695598Y-118655596D01*
X254164468Y-119297585D01*
X253733423Y-119807392D01*
X253388035Y-120196084D01*
X253113874Y-120474728D01*
X252896512Y-120654390D01*
X252721521Y-120746136D01*
X252574472Y-120761033D01*
X252440936Y-120710146D01*
X252306486Y-120604543D01*
X252239266Y-120539548D01*
X252129012Y-120425337D01*
X252055610Y-120321097D01*
X252029020Y-120208342D01*
X252059206Y-120068588D01*
X252156128Y-119883349D01*
X252329750Y-119634141D01*
X252590033Y-119302478D01*
X252946940Y-118869875D01*
X253410433Y-118317847D01*
X253483191Y-118231411D01*
X255590124Y-115588246D01*
X257568717Y-112820171D01*
X259411973Y-109939788D01*
X261112894Y-106959698D01*
X262664483Y-103892503D01*
X264059742Y-100750803D01*
X265291674Y-97547201D01*
X265808136Y-96036302D01*
X265934846Y-95681617D01*
X266057910Y-95389963D01*
X266156362Y-95209439D01*
X266180589Y-95181851D01*
X266415851Y-95092394D01*
X266695427Y-95124329D01*
G37*
G36*
X55227211Y-32352154D02*
G01*
X55447498Y-32476726D01*
X55559389Y-32679104D01*
X55554464Y-32856076D01*
X55495477Y-33193216D01*
X55385525Y-33676433D01*
X55227707Y-34291634D01*
X55110119Y-34722600D01*
X54024007Y-38832582D01*
X53062696Y-42910077D01*
X52222011Y-46981318D01*
X51497779Y-51072541D01*
X50885827Y-55209978D01*
X50381981Y-59419863D01*
X49982067Y-63728431D01*
X49681911Y-68161916D01*
X49627401Y-69185199D01*
X49596710Y-69927260D01*
X49571163Y-70822452D01*
X49550759Y-71842655D01*
X49535497Y-72959746D01*
X49525374Y-74145603D01*
X49520390Y-75372104D01*
X49520544Y-76611128D01*
X49525833Y-77834552D01*
X49536257Y-79014255D01*
X49551814Y-80122114D01*
X49572503Y-81130009D01*
X49598322Y-82009816D01*
X49628071Y-82710470D01*
X49909790Y-87164630D01*
X50288089Y-91486459D01*
X50767240Y-95702098D01*
X51351517Y-99837686D01*
X52045192Y-103919362D01*
X52852538Y-107973266D01*
X53777828Y-112025536D01*
X54825334Y-116102313D01*
X55457543Y-118372983D01*
X55613718Y-118931643D01*
X55750503Y-119444508D01*
X55860046Y-119880188D01*
X55934496Y-120207293D01*
X55966001Y-120394433D01*
X55966538Y-120408036D01*
X55883483Y-120681880D01*
X55762742Y-120805270D01*
X55562477Y-120919200D01*
X55386850Y-120924608D01*
X55152403Y-120822078D01*
X55129458Y-120809694D01*
X55031234Y-120746578D01*
X54942709Y-120658981D01*
X54856622Y-120527564D01*
X54765714Y-120332988D01*
X54662727Y-120055913D01*
X54540402Y-119677001D01*
X54391479Y-119176913D01*
X54208698Y-118536309D01*
X54011111Y-117830325D01*
X52972146Y-113932035D01*
X52047314Y-110097732D01*
X51231685Y-106297404D01*
X50520326Y-102501037D01*
X49908306Y-98678619D01*
X49390692Y-94800135D01*
X48962554Y-90835573D01*
X48618959Y-86754918D01*
X48428639Y-83856679D01*
X48400600Y-83257828D01*
X48376323Y-82498673D01*
X48355807Y-81602266D01*
X48339052Y-80591657D01*
X48326059Y-79489897D01*
X48316827Y-78320037D01*
X48311357Y-77105129D01*
X48309648Y-75868223D01*
X48311701Y-74632371D01*
X48317515Y-73420624D01*
X48327091Y-72256032D01*
X48340428Y-71161647D01*
X48357526Y-70160520D01*
X48378386Y-69275702D01*
X48403007Y-68530244D01*
X48428639Y-67993141D01*
X48702070Y-64001157D01*
X49048750Y-60145599D01*
X49473406Y-56392784D01*
X49980760Y-52709029D01*
X50575537Y-49060651D01*
X51262460Y-45413966D01*
X52046255Y-41735292D01*
X52216043Y-40988448D01*
X52412677Y-40148649D01*
X52625133Y-39270369D01*
X52848133Y-38373155D01*
X53076398Y-37476556D01*
X53304650Y-36600120D01*
X53527612Y-35763393D01*
X53740004Y-34985924D01*
X53936549Y-34287261D01*
X54111969Y-33686950D01*
X54260985Y-33204541D01*
X54378320Y-32859581D01*
X54458695Y-32671617D01*
X54464061Y-32662875D01*
X54685173Y-32444483D01*
X54956329Y-32341158D01*
X55227211Y-32352154D01*
G37*
G36*
X230834038Y-100423962D02*
G01*
X230906855Y-100472240D01*
X231053489Y-100601087D01*
X231143555Y-100739970D01*
X231168789Y-100901284D01*
X231120927Y-101097426D01*
X230991705Y-101340790D01*
X230772861Y-101643772D01*
X230456129Y-102018767D01*
X230033246Y-102478170D01*
X229495950Y-103034378D01*
X228835975Y-103699786D01*
X228594326Y-103940990D01*
X227181061Y-105292227D01*
X225784627Y-106506307D01*
X224359796Y-107618646D01*
X222861338Y-108664658D01*
X221334412Y-109625586D01*
X220769765Y-109956332D01*
X220165512Y-110295448D01*
X219546136Y-110630624D01*
X218936122Y-110949547D01*
X218359951Y-111239906D01*
X217842107Y-111489391D01*
X217407073Y-111685691D01*
X217079333Y-111816493D01*
X216883368Y-111869486D01*
X216870911Y-111870037D01*
X216638519Y-111806387D01*
X216509851Y-111709567D01*
X216358414Y-111508011D01*
X216288713Y-111330666D01*
X216314250Y-111162512D01*
X216448529Y-110988530D01*
X216705051Y-110793699D01*
X217097321Y-110563000D01*
X217638840Y-110281413D01*
X217919318Y-110141747D01*
X220226082Y-108904113D01*
X222423527Y-107522631D01*
X224528078Y-105986633D01*
X225399186Y-105283784D01*
X225869698Y-104878735D01*
X226409629Y-104390255D01*
X226991533Y-103845323D01*
X227587965Y-103270915D01*
X228171480Y-102694011D01*
X228714633Y-102141589D01*
X229189978Y-101640627D01*
X229570071Y-101218102D01*
X229731881Y-101024819D01*
X230068807Y-100646316D01*
X230351554Y-100426239D01*
X230600005Y-100355238D01*
X230834038Y-100423962D01*
G37*
G36*
X95472822Y-98319389D02*
G01*
X95643800Y-98526672D01*
X95653378Y-98549917D01*
X95704938Y-98725948D01*
X95783008Y-99044002D01*
X95878838Y-99466131D01*
X95983682Y-99954385D01*
X96039416Y-100224549D01*
X96203914Y-100992576D01*
X96411990Y-101899242D01*
X96654196Y-102907623D01*
X96921081Y-103980799D01*
X97203196Y-105081847D01*
X97491091Y-106173846D01*
X97775318Y-107219874D01*
X98046425Y-108183010D01*
X98276361Y-108964891D01*
X98450473Y-109548900D01*
X98604945Y-110081475D01*
X98732136Y-110535077D01*
X98824405Y-110882169D01*
X98874112Y-111095214D01*
X98880618Y-111142689D01*
X98801287Y-111371974D01*
X98607122Y-111571826D01*
X98363864Y-111680782D01*
X98298801Y-111686643D01*
X98072671Y-111620676D01*
X97921806Y-111507674D01*
X97812047Y-111320716D01*
X97668087Y-110973496D01*
X97494685Y-110484603D01*
X97296602Y-109872623D01*
X97078598Y-109156141D01*
X96845434Y-108353746D01*
X96601868Y-107484023D01*
X96352662Y-106565559D01*
X96102576Y-105616941D01*
X95856370Y-104656756D01*
X95618805Y-103703590D01*
X95394639Y-102776030D01*
X95188634Y-101892662D01*
X95005550Y-101072073D01*
X94850147Y-100332851D01*
X94727185Y-99693581D01*
X94641425Y-99172850D01*
X94597626Y-98789245D01*
X94600549Y-98561352D01*
X94603139Y-98549619D01*
X94736262Y-98333126D01*
X94962972Y-98222600D01*
X95227186Y-98218026D01*
X95472822Y-98319389D01*
G37*
G36*
X290915465Y-37083575D02*
G01*
X291097086Y-37201509D01*
X291180331Y-37338333D01*
X291317599Y-37613520D01*
X291494157Y-37995417D01*
X291695271Y-38452371D01*
X291856805Y-38833574D01*
X293388939Y-42726782D01*
X294742297Y-46627665D01*
X295921367Y-50550826D01*
X296930636Y-54510870D01*
X297546113Y-57350486D01*
X297697086Y-58112065D01*
X297810030Y-58715488D01*
X297886715Y-59181619D01*
X297928912Y-59531325D01*
X297938390Y-59785471D01*
X297916920Y-59964924D01*
X297866273Y-60090549D01*
X297788219Y-60183212D01*
X297786574Y-60184706D01*
X297528675Y-60315522D01*
X297244515Y-60311770D01*
X297011820Y-60175580D01*
X296946605Y-60032057D01*
X296854450Y-59723462D01*
X296739234Y-59265508D01*
X296604838Y-58673907D01*
X296455141Y-57964372D01*
X296406188Y-57722692D01*
X295543674Y-53842402D01*
X294520997Y-49988585D01*
X293346387Y-46188023D01*
X292028072Y-42467500D01*
X290698026Y-39144586D01*
X290464961Y-38591105D01*
X290296973Y-38179783D01*
X290186404Y-37884426D01*
X290125594Y-37678840D01*
X290106884Y-37536833D01*
X290122616Y-37432210D01*
X290165129Y-37338778D01*
X290168322Y-37333033D01*
X290365101Y-37140818D01*
X290637893Y-37054303D01*
X290915465Y-37083575D01*
G37*
G36*
X123254550Y-111351278D02*
G01*
X123332672Y-111390467D01*
X123400859Y-111488008D01*
X123537804Y-111727649D01*
X123731524Y-112086825D01*
X123970038Y-112542973D01*
X124241366Y-113073526D01*
X124502981Y-113594520D01*
X125204781Y-114981564D01*
X125874212Y-116255383D01*
X126543085Y-117474551D01*
X127243208Y-118697639D01*
X127642322Y-119375065D01*
X127884942Y-119798126D01*
X128088681Y-120181788D01*
X128236165Y-120491133D01*
X128310021Y-120691242D01*
X128315275Y-120727593D01*
X128244997Y-120968257D01*
X128073454Y-121181953D01*
X127859577Y-121303360D01*
X127788019Y-121312014D01*
X127571528Y-121263929D01*
X127468180Y-121216376D01*
X127365853Y-121104411D01*
X127187895Y-120852773D01*
X126947020Y-120482502D01*
X126655940Y-120014638D01*
X126327369Y-119470220D01*
X125974021Y-118870289D01*
X125608609Y-118235883D01*
X125243846Y-117588042D01*
X124923457Y-117005055D01*
X124592009Y-116385113D01*
X124250696Y-115730687D01*
X123910201Y-115063793D01*
X123581205Y-114406446D01*
X123274389Y-113780663D01*
X123000436Y-113208460D01*
X122770025Y-112711853D01*
X122593840Y-112312857D01*
X122482561Y-112033490D01*
X122446683Y-111900047D01*
X122525386Y-111636203D01*
X122723881Y-111435159D01*
X122985743Y-111329367D01*
X123254550Y-111351278D01*
G37*
G36*
X114593070Y-32860318D02*
G01*
X114721232Y-32921995D01*
X114918315Y-33088815D01*
X114999266Y-33319557D01*
X114963307Y-33635413D01*
X114809657Y-34057570D01*
X114668525Y-34355068D01*
X113867768Y-36014160D01*
X113055567Y-37821389D01*
X112245527Y-39743217D01*
X111451254Y-41746107D01*
X110686355Y-43796522D01*
X109964435Y-45860923D01*
X109793481Y-46371612D01*
X109580054Y-47007553D01*
X109379647Y-47590611D01*
X109200894Y-48096768D01*
X109052428Y-48502000D01*
X108942883Y-48782288D01*
X108880893Y-48913610D01*
X108878900Y-48916197D01*
X108673217Y-49037596D01*
X108401133Y-49054136D01*
X108142552Y-48971538D01*
X108009644Y-48853966D01*
X107901909Y-48658964D01*
X107866899Y-48531048D01*
X107896360Y-48390318D01*
X107979530Y-48100042D01*
X108108592Y-47683437D01*
X108275727Y-47163722D01*
X108473118Y-46564113D01*
X108692947Y-45907830D01*
X108927395Y-45218090D01*
X109168646Y-44518110D01*
X109408880Y-43831110D01*
X109640281Y-43180306D01*
X109855030Y-42588917D01*
X109989085Y-42228505D01*
X110604899Y-40644369D01*
X111289357Y-38974194D01*
X112013140Y-37286973D01*
X112746926Y-35651701D01*
X113164756Y-34755911D01*
X113478725Y-34103732D01*
X113733999Y-33604662D01*
X113943812Y-33243113D01*
X114121393Y-33003494D01*
X114279976Y-32870216D01*
X114432791Y-32827687D01*
X114593070Y-32860318D01*
G37*
G36*
X207126709Y-81610209D02*
G01*
X208237746Y-81610731D01*
X209190589Y-81612002D01*
X209997837Y-81614354D01*
X210672089Y-81618114D01*
X211225945Y-81623613D01*
X211672005Y-81631179D01*
X212022868Y-81641143D01*
X212291133Y-81653834D01*
X212489401Y-81669580D01*
X212630269Y-81688712D01*
X212726339Y-81711558D01*
X212790209Y-81738449D01*
X212834479Y-81769714D01*
X212859679Y-81793502D01*
X213008111Y-82049005D01*
X213029436Y-82342814D01*
X212922289Y-82600472D01*
X212875383Y-82650410D01*
X212831981Y-82678957D01*
X212761002Y-82703713D01*
X212650076Y-82724947D01*
X212486834Y-82742922D01*
X212258905Y-82757907D01*
X211953921Y-82770167D01*
X211559511Y-82779970D01*
X211063305Y-82787580D01*
X210452936Y-82793265D01*
X209716032Y-82797291D01*
X208840224Y-82799925D01*
X207813142Y-82801432D01*
X206622417Y-82802080D01*
X205828945Y-82802167D01*
X204540391Y-82801998D01*
X203422765Y-82801293D01*
X202463603Y-82799756D01*
X201650438Y-82797087D01*
X200970806Y-82792992D01*
X200412241Y-82787171D01*
X199962279Y-82779328D01*
X199608454Y-82769165D01*
X199338302Y-82756385D01*
X199139356Y-82740691D01*
X198999152Y-82721785D01*
X198905225Y-82699370D01*
X198845109Y-82673149D01*
X198806340Y-82642825D01*
X198798440Y-82634477D01*
X198665571Y-82364488D01*
X198677321Y-82059259D01*
X198830076Y-81793502D01*
X198868233Y-81759093D01*
X198917469Y-81729281D01*
X198990385Y-81703735D01*
X199099578Y-81682127D01*
X199257650Y-81664128D01*
X199477199Y-81649407D01*
X199770825Y-81637635D01*
X200151128Y-81628483D01*
X200630706Y-81621622D01*
X201222160Y-81616722D01*
X201938089Y-81613454D01*
X202791092Y-81611489D01*
X203793770Y-81610496D01*
X204958720Y-81610147D01*
X205844878Y-81610109D01*
X207126709Y-81610209D01*
G37*
G36*
X200177713Y-79134345D02*
G01*
X201463218Y-79134647D01*
X202587671Y-79135442D01*
X203562242Y-79136966D01*
X204398102Y-79139456D01*
X205106421Y-79143150D01*
X205698370Y-79148285D01*
X206185119Y-79155099D01*
X206577840Y-79163828D01*
X206887702Y-79174710D01*
X207125876Y-79187982D01*
X207303533Y-79203881D01*
X207431844Y-79222646D01*
X207521978Y-79244513D01*
X207585107Y-79269719D01*
X207632401Y-79298502D01*
X207666447Y-79324345D01*
X207866051Y-79573966D01*
X207887716Y-79860588D01*
X207765310Y-80122558D01*
X207622565Y-80326354D01*
X198701543Y-80326354D01*
X197222541Y-80326237D01*
X195916039Y-80325751D01*
X194771143Y-80324694D01*
X193776960Y-80322866D01*
X192922597Y-80320065D01*
X192197160Y-80316090D01*
X191589756Y-80310739D01*
X191089492Y-80303811D01*
X190685473Y-80295105D01*
X190366807Y-80284419D01*
X190122600Y-80271552D01*
X189941959Y-80256303D01*
X189813990Y-80238470D01*
X189727799Y-80217852D01*
X189672494Y-80194248D01*
X189637182Y-80167456D01*
X189628765Y-80158665D01*
X189507401Y-79920629D01*
X189483775Y-79640482D01*
X189547184Y-79446038D01*
X189585593Y-79394527D01*
X189635155Y-79349024D01*
X189706827Y-79309157D01*
X189811567Y-79274555D01*
X189960331Y-79244843D01*
X190164077Y-79219651D01*
X190433761Y-79198606D01*
X190780341Y-79181335D01*
X191214773Y-79167466D01*
X191748014Y-79156627D01*
X192391022Y-79148445D01*
X193154753Y-79142547D01*
X194050165Y-79138563D01*
X195088214Y-79136118D01*
X196279857Y-79134841D01*
X197636052Y-79134360D01*
X198719985Y-79134296D01*
X200177713Y-79134345D01*
G37*
G36*
X307528671Y-52795175D02*
G01*
X307624130Y-52852032D01*
X307709600Y-52916021D01*
X307783347Y-52999691D01*
X307851715Y-53124279D01*
X307921047Y-53311023D01*
X307997687Y-53581161D01*
X308087980Y-53955930D01*
X308198269Y-54456568D01*
X308334898Y-55104313D01*
X308421789Y-55522383D01*
X309230396Y-59871851D01*
X309862313Y-64261781D01*
X310316963Y-68681477D01*
X310593770Y-73120246D01*
X310692158Y-77567391D01*
X310611549Y-82012218D01*
X310351368Y-86444033D01*
X310188248Y-88300568D01*
X310124488Y-88909555D01*
X310061060Y-89359144D01*
X309987942Y-89673036D01*
X309895111Y-89874936D01*
X309772544Y-89988544D01*
X309610219Y-90037564D01*
X309450108Y-90046210D01*
X309171470Y-89990564D01*
X309005910Y-89833175D01*
X308960374Y-89746018D01*
X308930908Y-89630615D01*
X308917965Y-89461481D01*
X308922000Y-89213136D01*
X308943467Y-88860096D01*
X308982821Y-88376880D01*
X309040515Y-87738005D01*
X309043917Y-87701226D01*
X309144617Y-86573185D01*
X309228382Y-85535883D01*
X309296590Y-84555926D01*
X309350621Y-83599922D01*
X309391853Y-82634480D01*
X309421666Y-81626206D01*
X309441438Y-80541708D01*
X309452549Y-79347594D01*
X309456377Y-78010472D01*
X309456387Y-77712997D01*
X309453253Y-76383972D01*
X309443978Y-75204743D01*
X309427159Y-74141777D01*
X309401397Y-73161537D01*
X309365289Y-72230489D01*
X309317436Y-71315097D01*
X309256435Y-70381826D01*
X309180887Y-69397141D01*
X309089390Y-68327506D01*
X309042660Y-67809748D01*
X308661463Y-64293398D01*
X308161214Y-60749537D01*
X307552877Y-57251151D01*
X307170198Y-55344418D01*
X307049093Y-54750964D01*
X306945997Y-54208735D01*
X306865772Y-53746480D01*
X306813275Y-53392950D01*
X306793368Y-53176892D01*
X306796285Y-53132380D01*
X306912138Y-52958077D01*
X307120654Y-52818693D01*
X307122232Y-52818036D01*
X307348004Y-52752242D01*
X307528671Y-52795175D01*
G37*
G36*
X202489979Y-38467004D02*
G01*
X203450279Y-38484873D01*
X204341705Y-38515881D01*
X205128731Y-38560041D01*
X205775831Y-38617369D01*
X205890726Y-38631096D01*
X208578153Y-39052659D01*
X211167607Y-39626895D01*
X213666968Y-40356713D01*
X216084112Y-41245022D01*
X218426918Y-42294733D01*
X220703264Y-43508753D01*
X222921027Y-44889994D01*
X223023058Y-44958474D01*
X223462070Y-45256853D01*
X223866934Y-45537122D01*
X224204109Y-45775688D01*
X224440056Y-45948955D01*
X224513131Y-46006694D01*
X224722541Y-46274399D01*
X224781305Y-46563683D01*
X224697588Y-46829433D01*
X224479555Y-47026537D01*
X224317690Y-47086475D01*
X224192608Y-47091045D01*
X224030079Y-47039621D01*
X223802861Y-46917737D01*
X223483711Y-46710929D01*
X223079784Y-46429182D01*
X220923473Y-45007492D01*
X218688270Y-43749363D01*
X216371956Y-42653942D01*
X213972308Y-41720380D01*
X211487107Y-40947825D01*
X208914133Y-40335429D01*
X206251164Y-39882340D01*
X205844878Y-39828200D01*
X205200125Y-39763562D01*
X204409456Y-39713517D01*
X203509764Y-39678074D01*
X202537947Y-39657244D01*
X201530899Y-39651034D01*
X200525516Y-39659456D01*
X199558694Y-39682517D01*
X198667328Y-39720228D01*
X197888313Y-39772599D01*
X197362928Y-39826029D01*
X194823143Y-40218205D01*
X192380078Y-40754561D01*
X190008678Y-41442145D01*
X187683891Y-42288007D01*
X185926623Y-43043894D01*
X185507233Y-43231933D01*
X185217040Y-43347785D01*
X185021158Y-43401178D01*
X184884703Y-43401843D01*
X184780414Y-43363596D01*
X184545977Y-43196484D01*
X184447671Y-42981431D01*
X184435091Y-42813671D01*
X184458836Y-42645011D01*
X184548823Y-42494411D01*
X184729910Y-42342035D01*
X185026959Y-42168051D01*
X185464829Y-41952625D01*
X185584112Y-41896965D01*
X187818953Y-40954990D01*
X190164646Y-40147626D01*
X192601920Y-39480252D01*
X195111502Y-38958247D01*
X197271232Y-38634816D01*
X197898746Y-38574182D01*
X198670538Y-38526594D01*
X199551083Y-38492067D01*
X200504855Y-38470616D01*
X201496329Y-38462256D01*
X202489979Y-38467004D01*
G37*
G36*
X157489861Y-95694826D02*
G01*
X157643293Y-95832865D01*
X157820283Y-96081375D01*
X158034257Y-96455381D01*
X158298643Y-96969904D01*
X158555242Y-97492316D01*
X159837980Y-99956861D01*
X161242275Y-102315396D01*
X162786583Y-104596350D01*
X164489360Y-106828153D01*
X165092404Y-107562545D01*
X165477881Y-108007239D01*
X165969049Y-108548318D01*
X166537754Y-109156796D01*
X167155841Y-109803686D01*
X167795156Y-110460000D01*
X168427545Y-111096750D01*
X169024852Y-111684950D01*
X169558923Y-112195613D01*
X169876827Y-112488494D01*
X170231620Y-112836028D01*
X170436772Y-113114434D01*
X170500790Y-113347445D01*
X170432177Y-113558796D01*
X170312387Y-113703972D01*
X170070472Y-113860855D01*
X169800642Y-113860936D01*
X169484440Y-113700689D01*
X169232901Y-113497791D01*
X167173515Y-111557269D01*
X165278593Y-109580425D01*
X163529675Y-107544064D01*
X161908302Y-105424990D01*
X160396015Y-103200006D01*
X158974354Y-100845917D01*
X158524972Y-100042294D01*
X158185831Y-99409828D01*
X157858718Y-98772747D01*
X157554601Y-98154956D01*
X157284446Y-97580361D01*
X157059222Y-97072867D01*
X156889896Y-96656380D01*
X156787435Y-96354804D01*
X156761704Y-96198961D01*
X156850856Y-95992082D01*
X157030859Y-95797669D01*
X157036633Y-95793324D01*
X157199958Y-95690078D01*
X157346558Y-95652238D01*
X157489861Y-95694826D01*
G37*
G36*
X168250200Y-32772755D02*
G01*
X168439706Y-32978754D01*
X168516928Y-33250361D01*
X168499201Y-33399873D01*
X168416004Y-33511968D01*
X168214104Y-33714530D01*
X167918666Y-33984296D01*
X167554855Y-34298002D01*
X167292851Y-34515091D01*
X166041294Y-35575568D01*
X164762523Y-36733178D01*
X163484888Y-37958783D01*
X162236742Y-39223243D01*
X161046435Y-40497419D01*
X159942319Y-41752171D01*
X158952745Y-42958361D01*
X158483326Y-43569433D01*
X158224041Y-43908222D01*
X157986318Y-44204954D01*
X157802821Y-44419551D01*
X157728280Y-44495849D01*
X157460982Y-44634754D01*
X157174085Y-44638941D01*
X156934162Y-44511828D01*
X156884012Y-44452522D01*
X156786918Y-44278675D01*
X156760358Y-44104223D01*
X156815170Y-43898361D01*
X156962193Y-43630282D01*
X157212268Y-43269181D01*
X157379765Y-43043551D01*
X158802288Y-41248316D01*
X160377753Y-39439800D01*
X162080353Y-37645718D01*
X163884276Y-35893785D01*
X164902278Y-34965358D01*
X165237709Y-34672998D01*
X165632042Y-34339940D01*
X166057731Y-33988262D01*
X166487230Y-33640043D01*
X166892995Y-33317361D01*
X167247481Y-33042296D01*
X167523141Y-32836925D01*
X167692430Y-32723327D01*
X167712355Y-32712984D01*
X167992915Y-32671215D01*
X168250200Y-32772755D01*
G37*
G36*
X66831305Y-48123518D02*
G01*
X67008716Y-48225779D01*
X67124659Y-48360850D01*
X67182256Y-48557098D01*
X67184632Y-48842891D01*
X67134911Y-49246597D01*
X67036215Y-49796583D01*
X67023014Y-49864604D01*
X66449451Y-53044088D01*
X65946149Y-56342066D01*
X65511609Y-59770803D01*
X65144331Y-63342562D01*
X64842815Y-67069609D01*
X64750086Y-68451625D01*
X64722160Y-69008421D01*
X64698038Y-69725182D01*
X64677719Y-70578518D01*
X64661205Y-71545040D01*
X64648495Y-72601358D01*
X64639592Y-73724083D01*
X64634495Y-74889825D01*
X64633205Y-76075196D01*
X64635724Y-77256805D01*
X64642052Y-78411264D01*
X64652190Y-79515183D01*
X64666138Y-80545171D01*
X64683897Y-81477841D01*
X64705469Y-82289803D01*
X64730854Y-82957666D01*
X64749592Y-83306499D01*
X64979244Y-86539561D01*
X65252414Y-89620573D01*
X65572417Y-92576419D01*
X65942569Y-95433981D01*
X66366185Y-98220143D01*
X66846581Y-100961788D01*
X67071785Y-102135490D01*
X67194432Y-102764171D01*
X67282987Y-103238785D01*
X67340179Y-103584925D01*
X67368735Y-103828184D01*
X67371384Y-103994155D01*
X67350852Y-104108432D01*
X67309867Y-104196606D01*
X67294124Y-104221592D01*
X67163701Y-104381577D01*
X67067231Y-104442600D01*
X66909843Y-104468698D01*
X66863027Y-104482293D01*
X66690554Y-104476146D01*
X66537505Y-104423733D01*
X66441501Y-104363985D01*
X66359943Y-104271138D01*
X66285553Y-104121678D01*
X66211052Y-103892093D01*
X66129161Y-103558869D01*
X66032602Y-103098494D01*
X65914095Y-102487454D01*
X65876285Y-102287726D01*
X65216114Y-98532663D01*
X64660064Y-94804636D01*
X64202125Y-91054818D01*
X63836288Y-87234382D01*
X63573839Y-83581589D01*
X63537026Y-82857451D01*
X63504537Y-81978500D01*
X63476585Y-80973271D01*
X63453384Y-79870298D01*
X63435145Y-78698116D01*
X63422082Y-77485260D01*
X63414409Y-76260265D01*
X63412337Y-75051664D01*
X63416080Y-73887993D01*
X63425851Y-72797787D01*
X63441863Y-71809579D01*
X63464329Y-70951905D01*
X63476994Y-70606499D01*
X63641754Y-67334752D01*
X63865309Y-64189597D01*
X64152761Y-61122268D01*
X64509210Y-58083998D01*
X64939757Y-55026023D01*
X65409774Y-52129603D01*
X65568641Y-51210001D01*
X65701569Y-50454000D01*
X65812705Y-49844291D01*
X65906198Y-49363569D01*
X65986195Y-48994524D01*
X66056845Y-48719849D01*
X66122295Y-48522237D01*
X66186694Y-48384380D01*
X66254189Y-48288969D01*
X66328928Y-48218698D01*
X66351156Y-48201589D01*
X66552268Y-48081818D01*
X66723606Y-48081758D01*
X66831305Y-48123518D01*
G37*
%TD*%
M02*
