%TF.GenerationSoftware,KiCad,Pcbnew,(5.99.0-11177-g6c67dfa032)*%
%TF.CreationDate,2021-09-17T12:13:23+03:00*%
%TF.ProjectId,SunsetterR2_Solder,53756e73-6574-4746-9572-52325f536f6c,rev?*%
%TF.SameCoordinates,Original*%
%TF.FileFunction,Soldermask,Bot*%
%TF.FilePolarity,Negative*%
%FSLAX46Y46*%
G04 Gerber Fmt 4.6, Leading zero omitted, Abs format (unit mm)*
G04 Created by KiCad (PCBNEW (5.99.0-11177-g6c67dfa032)) date 2021-09-17 12:13:23*
%MOMM*%
%LPD*%
G01*
G04 APERTURE LIST*
G04 Aperture macros list*
%AMRoundRect*
0 Rectangle with rounded corners*
0 $1 Rounding radius*
0 $2 $3 $4 $5 $6 $7 $8 $9 X,Y pos of 4 corners*
0 Add a 4 corners polygon primitive as box body*
4,1,4,$2,$3,$4,$5,$6,$7,$8,$9,$2,$3,0*
0 Add four circle primitives for the rounded corners*
1,1,$1+$1,$2,$3*
1,1,$1+$1,$4,$5*
1,1,$1+$1,$6,$7*
1,1,$1+$1,$8,$9*
0 Add four rect primitives between the rounded corners*
20,1,$1+$1,$2,$3,$4,$5,0*
20,1,$1+$1,$4,$5,$6,$7,0*
20,1,$1+$1,$6,$7,$8,$9,0*
20,1,$1+$1,$8,$9,$2,$3,0*%
%AMRotRect*
0 Rectangle, with rotation*
0 The origin of the aperture is its center*
0 $1 length*
0 $2 width*
0 $3 Rotation angle, in degrees counterclockwise*
0 Add horizontal line*
21,1,$1,$2,0,0,$3*%
G04 Aperture macros list end*
%ADD10C,4.000000*%
%ADD11C,1.700000*%
%ADD12C,2.200000*%
%ADD13C,3.987800*%
%ADD14C,3.048000*%
%ADD15C,3.050000*%
%ADD16R,1.500000X1.000000*%
%ADD17RoundRect,0.200000X-0.275000X0.200000X-0.275000X-0.200000X0.275000X-0.200000X0.275000X0.200000X0*%
%ADD18RoundRect,0.225000X0.250000X-0.225000X0.250000X0.225000X-0.250000X0.225000X-0.250000X-0.225000X0*%
%ADD19RoundRect,0.150000X-0.150000X0.587500X-0.150000X-0.587500X0.150000X-0.587500X0.150000X0.587500X0*%
%ADD20RoundRect,0.225000X0.225000X0.250000X-0.225000X0.250000X-0.225000X-0.250000X0.225000X-0.250000X0*%
%ADD21R,1.700000X1.000000*%
%ADD22RoundRect,0.225000X-0.250000X0.225000X-0.250000X-0.225000X0.250000X-0.225000X0.250000X0.225000X0*%
%ADD23R,1.400000X1.200000*%
%ADD24R,0.375000X0.500000*%
%ADD25R,0.300000X0.650000*%
%ADD26R,1.700000X1.700000*%
%ADD27O,1.700000X1.700000*%
%ADD28RoundRect,0.243750X-0.456250X0.243750X-0.456250X-0.243750X0.456250X-0.243750X0.456250X0.243750X0*%
%ADD29C,0.650000*%
%ADD30R,0.600000X1.450000*%
%ADD31R,0.300000X1.450000*%
%ADD32O,1.000000X2.100000*%
%ADD33O,1.000000X1.600000*%
%ADD34RoundRect,0.200000X0.275000X-0.200000X0.275000X0.200000X-0.275000X0.200000X-0.275000X-0.200000X0*%
%ADD35RoundRect,0.225000X-0.225000X-0.250000X0.225000X-0.250000X0.225000X0.250000X-0.225000X0.250000X0*%
%ADD36RoundRect,0.200000X0.200000X0.275000X-0.200000X0.275000X-0.200000X-0.275000X0.200000X-0.275000X0*%
%ADD37RotRect,1.500000X0.550000X315.000000*%
%ADD38RotRect,1.500000X0.550000X225.000000*%
%ADD39RoundRect,0.200000X-0.200000X-0.275000X0.200000X-0.275000X0.200000X0.275000X-0.200000X0.275000X0*%
%ADD40RoundRect,0.218750X-0.381250X0.218750X-0.381250X-0.218750X0.381250X-0.218750X0.381250X0.218750X0*%
G04 APERTURE END LIST*
%TO.C,G\u002A\u002A\u002A*%
G36*
X311299163Y-110428049D02*
G01*
X311299246Y-110588510D01*
X311299781Y-110886123D01*
X311301081Y-111138895D01*
X311303484Y-111351405D01*
X311307329Y-111528236D01*
X311312955Y-111673966D01*
X311320699Y-111793178D01*
X311330899Y-111890451D01*
X311343895Y-111970367D01*
X311360023Y-112037505D01*
X311379622Y-112096447D01*
X311403030Y-112151774D01*
X311430587Y-112208065D01*
X311433366Y-112213438D01*
X311515520Y-112337429D01*
X311626917Y-112461738D01*
X311751376Y-112570298D01*
X311872716Y-112647042D01*
X312057760Y-112717066D01*
X312295016Y-112762358D01*
X312543601Y-112767553D01*
X312790762Y-112731479D01*
X312878928Y-112708037D01*
X313062253Y-112635411D01*
X313210607Y-112535077D01*
X313329482Y-112401472D01*
X313424367Y-112229032D01*
X313500756Y-112012194D01*
X313509830Y-111979134D01*
X313520074Y-111935380D01*
X313528682Y-111886635D01*
X313535841Y-111828235D01*
X313541739Y-111755518D01*
X313546563Y-111663819D01*
X313550502Y-111548475D01*
X313553743Y-111404822D01*
X313556474Y-111228198D01*
X313558882Y-111013939D01*
X313561155Y-110757381D01*
X313563481Y-110453862D01*
X313573586Y-109079319D01*
X314525407Y-109079319D01*
X314525407Y-110216707D01*
X314525067Y-110452742D01*
X314522932Y-110800738D01*
X314518627Y-111104194D01*
X314511910Y-111367494D01*
X314502538Y-111595020D01*
X314490268Y-111791154D01*
X314474857Y-111960280D01*
X314456064Y-112106780D01*
X314433646Y-112235037D01*
X314407359Y-112349433D01*
X314308973Y-112647756D01*
X314178693Y-112906390D01*
X314016457Y-113124573D01*
X313821927Y-113302613D01*
X313594761Y-113440824D01*
X313334618Y-113539516D01*
X313041159Y-113599001D01*
X313029912Y-113600381D01*
X312896580Y-113609745D01*
X312736146Y-113611572D01*
X312564327Y-113606578D01*
X312396837Y-113595480D01*
X312249391Y-113578994D01*
X312137704Y-113557834D01*
X311984191Y-113509449D01*
X311718398Y-113385938D01*
X311474909Y-113220415D01*
X311298781Y-113078110D01*
X311298781Y-113570782D01*
X310369513Y-113570782D01*
X310369513Y-109079319D01*
X311298781Y-109079319D01*
X311299163Y-110428049D01*
G37*
G36*
X307518763Y-109058130D02*
G01*
X307799946Y-109114122D01*
X308059252Y-109204863D01*
X308289726Y-109328420D01*
X308484410Y-109482861D01*
X308514694Y-109511167D01*
X308565289Y-109553221D01*
X308594116Y-109569766D01*
X308599315Y-109561406D01*
X308606987Y-109512605D01*
X308612265Y-109429914D01*
X308614228Y-109324543D01*
X308614228Y-109079319D01*
X309543496Y-109079319D01*
X309543496Y-113570782D01*
X308614228Y-113570782D01*
X308614228Y-112176066D01*
X308614226Y-112098456D01*
X308614119Y-111805623D01*
X308613740Y-111558783D01*
X308612933Y-111353396D01*
X308611540Y-111184919D01*
X308609403Y-111048810D01*
X308606366Y-110940527D01*
X308602272Y-110855529D01*
X308596964Y-110789273D01*
X308590285Y-110737217D01*
X308582077Y-110694820D01*
X308572184Y-110657539D01*
X308560448Y-110620832D01*
X308506685Y-110484730D01*
X308390305Y-110288589D01*
X308237864Y-110127712D01*
X308046347Y-109998449D01*
X307947917Y-109955117D01*
X307771561Y-109908583D01*
X307573676Y-109884511D01*
X307367929Y-109882767D01*
X307167983Y-109903219D01*
X306987506Y-109945733D01*
X306840162Y-110010178D01*
X306729722Y-110084645D01*
X306617060Y-110190278D01*
X306528473Y-110317863D01*
X306457453Y-110477224D01*
X306397488Y-110678187D01*
X306386982Y-110721300D01*
X306376441Y-110770625D01*
X306367717Y-110823008D01*
X306360637Y-110883306D01*
X306355032Y-110956374D01*
X306350729Y-111047071D01*
X306347557Y-111160252D01*
X306345346Y-111300775D01*
X306343925Y-111473496D01*
X306343121Y-111683273D01*
X306342764Y-111934962D01*
X306342683Y-112233420D01*
X306342683Y-113570782D01*
X305382694Y-113570782D01*
X305394532Y-112196240D01*
X305395582Y-112076249D01*
X305398311Y-111787848D01*
X305401076Y-111544174D01*
X305404075Y-111340201D01*
X305407507Y-111170904D01*
X305411571Y-111031258D01*
X305416468Y-110916237D01*
X305422395Y-110820816D01*
X305429552Y-110739970D01*
X305438139Y-110668674D01*
X305448354Y-110601901D01*
X305460397Y-110534628D01*
X305467770Y-110496286D01*
X305528506Y-110235953D01*
X305602243Y-110015779D01*
X305693484Y-109826184D01*
X305806732Y-109657590D01*
X305946488Y-109500416D01*
X305964959Y-109482135D01*
X306126855Y-109341080D01*
X306294752Y-109232738D01*
X306479636Y-109152208D01*
X306692488Y-109094584D01*
X306944293Y-109054964D01*
X307222659Y-109038819D01*
X307518763Y-109058130D01*
G37*
G36*
X317318010Y-109037741D02*
G01*
X317616312Y-109067903D01*
X317907637Y-109130532D01*
X318163217Y-109225246D01*
X318386486Y-109353345D01*
X318580878Y-109516131D01*
X318638199Y-109575823D01*
X318773134Y-109748240D01*
X318867258Y-109929939D01*
X318928067Y-110134269D01*
X318957284Y-110322058D01*
X318959354Y-110577769D01*
X318914707Y-110813263D01*
X318824193Y-111026715D01*
X318688658Y-111216299D01*
X318508951Y-111380190D01*
X318285919Y-111516565D01*
X318237122Y-111540303D01*
X318153833Y-111577159D01*
X318066473Y-111609977D01*
X317968329Y-111640418D01*
X317852688Y-111670149D01*
X317712838Y-111700831D01*
X317542064Y-111734130D01*
X317333654Y-111771708D01*
X317080895Y-111815231D01*
X317064624Y-111817999D01*
X316839718Y-111858240D01*
X316659583Y-111895710D01*
X316518069Y-111933115D01*
X316409031Y-111973157D01*
X316326319Y-112018541D01*
X316263788Y-112071969D01*
X316215288Y-112136145D01*
X316174673Y-112213773D01*
X316146465Y-112284562D01*
X316129839Y-112375608D01*
X316143649Y-112468162D01*
X316188634Y-112581759D01*
X316273699Y-112713795D01*
X316404865Y-112827691D01*
X316574681Y-112910112D01*
X316781327Y-112960197D01*
X317022984Y-112977083D01*
X317095735Y-112975617D01*
X317329569Y-112949057D01*
X317535098Y-112890627D01*
X317704789Y-112802257D01*
X317752410Y-112764841D01*
X317842902Y-112672402D01*
X317926415Y-112563446D01*
X317991479Y-112453767D01*
X318026625Y-112359155D01*
X318042429Y-112280132D01*
X319067206Y-112280132D01*
X319052286Y-112364024D01*
X319040527Y-112425655D01*
X318983001Y-112640221D01*
X318901979Y-112825551D01*
X318790857Y-112997647D01*
X318711225Y-113090479D01*
X318587248Y-113209326D01*
X318450576Y-113320110D01*
X318319919Y-113406583D01*
X318269382Y-113432927D01*
X318130988Y-113491937D01*
X317967409Y-113548893D01*
X317796440Y-113597902D01*
X317635874Y-113633073D01*
X317503907Y-113651328D01*
X317288873Y-113667263D01*
X317053743Y-113672235D01*
X316816160Y-113666391D01*
X316593770Y-113649878D01*
X316404219Y-113622841D01*
X316184527Y-113572992D01*
X315899784Y-113479514D01*
X315658359Y-113360701D01*
X315458568Y-113215248D01*
X315298724Y-113041850D01*
X315177145Y-112839200D01*
X315092146Y-112605994D01*
X315072529Y-112523620D01*
X315043985Y-112285680D01*
X315055051Y-112051976D01*
X315103576Y-111830224D01*
X315187409Y-111628136D01*
X315304401Y-111453429D01*
X315452399Y-111313815D01*
X315479792Y-111294026D01*
X315562658Y-111238849D01*
X315648949Y-111190128D01*
X315744599Y-111145982D01*
X315855545Y-111104531D01*
X315987721Y-111063896D01*
X316147062Y-111022195D01*
X316339505Y-110977549D01*
X316570985Y-110928078D01*
X316847436Y-110871900D01*
X317062658Y-110827752D01*
X317255541Y-110784728D01*
X317409683Y-110745030D01*
X317531510Y-110706303D01*
X317627449Y-110666192D01*
X317703925Y-110622343D01*
X317767363Y-110572402D01*
X317824190Y-110514014D01*
X317899329Y-110398621D01*
X317930817Y-110271985D01*
X317915350Y-110145496D01*
X317854726Y-110024820D01*
X317750742Y-109915624D01*
X317605195Y-109823575D01*
X317598035Y-109820052D01*
X317526198Y-109785895D01*
X317466527Y-109762782D01*
X317406265Y-109748576D01*
X317332652Y-109741142D01*
X317232931Y-109738342D01*
X317094344Y-109738042D01*
X317003262Y-109738431D01*
X316886915Y-109740890D01*
X316802378Y-109747144D01*
X316737316Y-109758952D01*
X316679389Y-109778076D01*
X316616261Y-109806276D01*
X316536866Y-109848554D01*
X316388742Y-109962411D01*
X316283627Y-110103091D01*
X316219330Y-110273171D01*
X316202269Y-110344156D01*
X315725220Y-110344156D01*
X315684099Y-110344190D01*
X315519119Y-110344425D01*
X315398919Y-110342277D01*
X315317874Y-110334337D01*
X315270355Y-110317199D01*
X315250736Y-110287458D01*
X315253390Y-110241705D01*
X315272691Y-110176535D01*
X315303011Y-110088540D01*
X315328951Y-110015854D01*
X315410477Y-109836361D01*
X315513308Y-109681226D01*
X315649892Y-109530419D01*
X315799249Y-109401984D01*
X316037346Y-109254931D01*
X316309871Y-109144508D01*
X316615224Y-109071186D01*
X316951803Y-109035440D01*
X317318010Y-109037741D01*
G37*
%TD*%
D10*
%TO.C,K21*%
X109537500Y-57150000D03*
D11*
X104457500Y-57150000D03*
X114617500Y-57150000D03*
D12*
X112077500Y-52070000D03*
X105727500Y-54610000D03*
%TD*%
D11*
%TO.C,K80*%
X371792500Y-95250000D03*
X361632500Y-95250000D03*
D10*
X366712500Y-95250000D03*
D12*
X369252500Y-90170000D03*
X362902500Y-92710000D03*
%TD*%
D10*
%TO.C,K35*%
X38100000Y-76200000D03*
D11*
X43180000Y-76200000D03*
X33020000Y-76200000D03*
D12*
X40640000Y-71120000D03*
X34290000Y-73660000D03*
%TD*%
D11*
%TO.C,K30*%
X286067500Y-57150000D03*
D10*
X280987500Y-57150000D03*
D11*
X275907500Y-57150000D03*
D12*
X283527500Y-52070000D03*
X277177500Y-54610000D03*
%TD*%
D11*
%TO.C,K31*%
X305117500Y-57150000D03*
D10*
X300037500Y-57150000D03*
D11*
X294957500Y-57150000D03*
D12*
X302577500Y-52070000D03*
X296227500Y-54610000D03*
%TD*%
D11*
%TO.C,K33*%
X337820000Y-57150000D03*
D10*
X342900000Y-57150000D03*
D11*
X347980000Y-57150000D03*
D12*
X340360000Y-62230000D03*
X346710000Y-59690000D03*
%TD*%
D11*
%TO.C,K73*%
X169386250Y-114300000D03*
X159226250Y-114300000D03*
D10*
X164306250Y-114300000D03*
D12*
X166846250Y-109220000D03*
X160496250Y-111760000D03*
%TD*%
D11*
%TO.C,K51*%
X43180000Y-95250000D03*
D10*
X38100000Y-95250000D03*
D11*
X33020000Y-95250000D03*
D12*
X40640000Y-90170000D03*
X34290000Y-92710000D03*
%TD*%
D11*
%TO.C,K78*%
X352742500Y-114300000D03*
D10*
X347662500Y-114300000D03*
D11*
X342582500Y-114300000D03*
D12*
X350202500Y-109220000D03*
X343852500Y-111760000D03*
%TD*%
D10*
%TO.C,K23*%
X147637500Y-57150000D03*
D11*
X152717500Y-57150000D03*
X142557500Y-57150000D03*
D12*
X150177500Y-52070000D03*
X143827500Y-54610000D03*
%TD*%
D10*
%TO.C,K58*%
X180975000Y-95250000D03*
D11*
X186055000Y-95250000D03*
X175895000Y-95250000D03*
D12*
X183515000Y-90170000D03*
X177165000Y-92710000D03*
%TD*%
D11*
%TO.C,K56*%
X147955000Y-95250000D03*
X137795000Y-95250000D03*
D10*
X142875000Y-95250000D03*
D12*
X145415000Y-90170000D03*
X139065000Y-92710000D03*
%TD*%
D10*
%TO.C,K9*%
X195262500Y-38100000D03*
D11*
X200342500Y-38100000D03*
X190182500Y-38100000D03*
D12*
X197802500Y-33020000D03*
X191452500Y-35560000D03*
%TD*%
D10*
%TO.C,K10*%
X214312500Y-38100000D03*
D11*
X219392500Y-38100000D03*
X209232500Y-38100000D03*
D12*
X216852500Y-33020000D03*
X210502500Y-35560000D03*
%TD*%
D11*
%TO.C,K6*%
X143192500Y-38100000D03*
X133032500Y-38100000D03*
D10*
X138112500Y-38100000D03*
D12*
X140652500Y-33020000D03*
X134302500Y-35560000D03*
%TD*%
D10*
%TO.C,K25*%
X185737500Y-57150000D03*
D11*
X190817500Y-57150000D03*
X180657500Y-57150000D03*
D12*
X188277500Y-52070000D03*
X181927500Y-54610000D03*
%TD*%
D11*
%TO.C,K67*%
X352742500Y-95250000D03*
X342582500Y-95250000D03*
D10*
X347662500Y-95250000D03*
D12*
X350202500Y-90170000D03*
X343852500Y-92710000D03*
%TD*%
D11*
%TO.C,K46*%
X261620000Y-76200000D03*
X271780000Y-76200000D03*
D10*
X266700000Y-76200000D03*
D12*
X269240000Y-71120000D03*
X262890000Y-73660000D03*
%TD*%
D10*
%TO.C,K49*%
X335756250Y-76200000D03*
D11*
X340836250Y-76200000D03*
X330676250Y-76200000D03*
D12*
X338296250Y-71120000D03*
X331946250Y-73660000D03*
%TD*%
D10*
%TO.C,K11*%
X233362500Y-38100000D03*
D11*
X228282500Y-38100000D03*
X238442500Y-38100000D03*
D12*
X235902500Y-33020000D03*
X229552500Y-35560000D03*
%TD*%
D10*
%TO.C,K14*%
X290512500Y-38100000D03*
D11*
X285432500Y-38100000D03*
X295592500Y-38100000D03*
D12*
X293052500Y-33020000D03*
X286702500Y-35560000D03*
%TD*%
D10*
%TO.C,K49A1*%
X323850000Y-76200000D03*
D11*
X318770000Y-76200000D03*
X328930000Y-76200000D03*
D12*
X326390000Y-71120000D03*
X320040000Y-73660000D03*
%TD*%
D11*
%TO.C,K18*%
X33020000Y-57150000D03*
D10*
X38100000Y-57150000D03*
D11*
X43180000Y-57150000D03*
D12*
X40640000Y-52070000D03*
X34290000Y-54610000D03*
%TD*%
D10*
%TO.C,K66*%
X366712500Y-76200000D03*
D11*
X361632500Y-76200000D03*
X371792500Y-76200000D03*
D12*
X369252500Y-71120000D03*
X362902500Y-73660000D03*
%TD*%
D11*
%TO.C,K36*%
X52070000Y-76200000D03*
X62230000Y-76200000D03*
D10*
X57150000Y-76200000D03*
D12*
X59690000Y-71120000D03*
X53340000Y-73660000D03*
%TD*%
D11*
%TO.C,K32*%
X314007500Y-57150000D03*
X324167500Y-57150000D03*
D10*
X319087500Y-57150000D03*
D12*
X321627500Y-52070000D03*
X315277500Y-54610000D03*
%TD*%
D13*
%TO.C,>NAME*%
X176244250Y-106045000D03*
D14*
X152368250Y-121285000D03*
X176244250Y-121285000D03*
D13*
X152368250Y-106045000D03*
%TD*%
D11*
%TO.C,K8*%
X171132500Y-38100000D03*
D10*
X176212500Y-38100000D03*
D11*
X181292500Y-38100000D03*
D12*
X178752500Y-33020000D03*
X172402500Y-35560000D03*
%TD*%
D13*
%TO.C,>NAME*%
X252450500Y-106045000D03*
D14*
X152374500Y-121285000D03*
D13*
X152374500Y-106045000D03*
D14*
X252450500Y-121285000D03*
%TD*%
D13*
%TO.C,>NAME*%
X247681750Y-106045000D03*
D14*
X247681750Y-121285000D03*
X223805750Y-121285000D03*
D13*
X223805750Y-106045000D03*
%TD*%
D11*
%TO.C,K72*%
X125888750Y-114300000D03*
D10*
X130968750Y-114300000D03*
D11*
X136048750Y-114300000D03*
D12*
X133508750Y-109220000D03*
X127158750Y-111760000D03*
%TD*%
D10*
%TO.C,K63*%
X276225000Y-95250000D03*
D11*
X271145000Y-95250000D03*
X281305000Y-95250000D03*
D12*
X278765000Y-90170000D03*
X272415000Y-92710000D03*
%TD*%
D10*
%TO.C,K53*%
X83343750Y-95250000D03*
D11*
X88423750Y-95250000D03*
X78263750Y-95250000D03*
D12*
X85883750Y-90170000D03*
X79533750Y-92710000D03*
%TD*%
D11*
%TO.C,K22*%
X123507500Y-57150000D03*
X133667500Y-57150000D03*
D10*
X128587500Y-57150000D03*
D12*
X131127500Y-52070000D03*
X124777500Y-54610000D03*
%TD*%
D10*
%TO.C,K7*%
X157162500Y-38100000D03*
D11*
X152082500Y-38100000D03*
X162242500Y-38100000D03*
D12*
X159702500Y-33020000D03*
X153352500Y-35560000D03*
%TD*%
D11*
%TO.C,K13*%
X276542500Y-38100000D03*
X266382500Y-38100000D03*
D10*
X271462500Y-38100000D03*
D12*
X274002500Y-33020000D03*
X267652500Y-35560000D03*
%TD*%
D11*
%TO.C,K74A1*%
X197332500Y-114300000D03*
D10*
X202412500Y-114300000D03*
D11*
X207492500Y-114300000D03*
D12*
X204952500Y-109220000D03*
X198602500Y-111760000D03*
%TD*%
D10*
%TO.C,K27*%
X223837500Y-57150000D03*
D11*
X228917500Y-57150000D03*
X218757500Y-57150000D03*
D12*
X226377500Y-52070000D03*
X220027500Y-54610000D03*
%TD*%
D11*
%TO.C,K43*%
X204470000Y-76200000D03*
D10*
X209550000Y-76200000D03*
D11*
X214630000Y-76200000D03*
D12*
X212090000Y-71120000D03*
X205740000Y-73660000D03*
%TD*%
D13*
%TO.C,>NAME*%
X323818250Y-84455000D03*
D14*
X347694250Y-69215000D03*
X323818250Y-69215000D03*
D13*
X347694250Y-84455000D03*
%TD*%
D11*
%TO.C,K71*%
X112236250Y-114300000D03*
D10*
X107156250Y-114300000D03*
D11*
X102076250Y-114300000D03*
D12*
X109696250Y-109220000D03*
X103346250Y-111760000D03*
%TD*%
D10*
%TO.C,K16A1*%
X338131250Y-38100000D03*
D11*
X333051250Y-38100000D03*
X343211250Y-38100000D03*
D12*
X340671250Y-33020000D03*
X334321250Y-35560000D03*
%TD*%
D11*
%TO.C,K29*%
X256857500Y-57150000D03*
D10*
X261937500Y-57150000D03*
D11*
X267017500Y-57150000D03*
D12*
X264477500Y-52070000D03*
X258127500Y-54610000D03*
%TD*%
D10*
%TO.C,K69*%
X57150000Y-114300000D03*
D11*
X52070000Y-114300000D03*
X62230000Y-114300000D03*
D12*
X59690000Y-109220000D03*
X53340000Y-111760000D03*
%TD*%
D11*
%TO.C,K59*%
X194945000Y-95250000D03*
D10*
X200025000Y-95250000D03*
D11*
X205105000Y-95250000D03*
D12*
X202565000Y-90170000D03*
X196215000Y-92710000D03*
%TD*%
D10*
%TO.C,K1*%
X38100000Y-38100000D03*
D11*
X33020000Y-38100000D03*
X43180000Y-38100000D03*
D12*
X40640000Y-33020000D03*
X34290000Y-35560000D03*
%TD*%
D10*
%TO.C,K77*%
X328612500Y-114300000D03*
D11*
X333692500Y-114300000D03*
X323532500Y-114300000D03*
D12*
X331152500Y-109220000D03*
X324802500Y-111760000D03*
%TD*%
D11*
%TO.C,K20*%
X90805000Y-57150000D03*
X80645000Y-57150000D03*
D10*
X85725000Y-57150000D03*
D12*
X88265000Y-52070000D03*
X81915000Y-54610000D03*
%TD*%
D11*
%TO.C,K76*%
X276542500Y-114300000D03*
X266382500Y-114300000D03*
D10*
X271462500Y-114300000D03*
D12*
X274002500Y-109220000D03*
X267652500Y-111760000D03*
%TD*%
D11*
%TO.C,K45*%
X252730000Y-76200000D03*
X242570000Y-76200000D03*
D10*
X247650000Y-76200000D03*
D12*
X250190000Y-71120000D03*
X243840000Y-73660000D03*
%TD*%
D11*
%TO.C,K42*%
X185420000Y-76200000D03*
X195580000Y-76200000D03*
D10*
X190500000Y-76200000D03*
D12*
X193040000Y-71120000D03*
X186690000Y-73660000D03*
%TD*%
D11*
%TO.C,K16*%
X323532500Y-38100000D03*
D10*
X328612500Y-38100000D03*
D11*
X333692500Y-38100000D03*
D12*
X331152500Y-33020000D03*
X324802500Y-35560000D03*
%TD*%
D10*
%TO.C,K44*%
X228600000Y-76200000D03*
D11*
X223520000Y-76200000D03*
X233680000Y-76200000D03*
D12*
X231140000Y-71120000D03*
X224790000Y-73660000D03*
%TD*%
D11*
%TO.C,K3*%
X75882500Y-38100000D03*
D10*
X80962500Y-38100000D03*
D11*
X86042500Y-38100000D03*
D12*
X83502500Y-33020000D03*
X77152500Y-35560000D03*
%TD*%
D11*
%TO.C,K34*%
X361632500Y-38100000D03*
X371792500Y-38100000D03*
D10*
X366712500Y-38100000D03*
D12*
X369252500Y-33020000D03*
X362902500Y-35560000D03*
%TD*%
D10*
%TO.C,K55*%
X123825000Y-95250000D03*
D11*
X118745000Y-95250000D03*
X128905000Y-95250000D03*
D12*
X126365000Y-90170000D03*
X120015000Y-92710000D03*
%TD*%
D11*
%TO.C,K4*%
X94932500Y-38100000D03*
X105092500Y-38100000D03*
D10*
X100012500Y-38100000D03*
D12*
X102552500Y-33020000D03*
X96202500Y-35560000D03*
%TD*%
D11*
%TO.C,K70*%
X78263750Y-114300000D03*
X88423750Y-114300000D03*
D10*
X83343750Y-114300000D03*
D12*
X85883750Y-109220000D03*
X79533750Y-111760000D03*
%TD*%
D11*
%TO.C,K62*%
X252095000Y-95250000D03*
X262255000Y-95250000D03*
D10*
X257175000Y-95250000D03*
D12*
X259715000Y-90170000D03*
X253365000Y-92710000D03*
%TD*%
D10*
%TO.C,K15*%
X309562500Y-38100000D03*
D11*
X314642500Y-38100000D03*
X304482500Y-38100000D03*
D12*
X312102500Y-33020000D03*
X305752500Y-35560000D03*
%TD*%
D10*
%TO.C,K61*%
X238125000Y-95250000D03*
D11*
X243205000Y-95250000D03*
X233045000Y-95250000D03*
D12*
X240665000Y-90170000D03*
X234315000Y-92710000D03*
%TD*%
D11*
%TO.C,K53A1*%
X87788750Y-95250000D03*
X97948750Y-95250000D03*
D10*
X92868750Y-95250000D03*
D12*
X95408750Y-90170000D03*
X89058750Y-92710000D03*
%TD*%
D11*
%TO.C,K38*%
X119380000Y-76200000D03*
D10*
X114300000Y-76200000D03*
D11*
X109220000Y-76200000D03*
D12*
X116840000Y-71120000D03*
X110490000Y-73660000D03*
%TD*%
D10*
%TO.C,K17*%
X347662500Y-38100000D03*
D11*
X352742500Y-38100000D03*
X342582500Y-38100000D03*
D12*
X350202500Y-33020000D03*
X343852500Y-35560000D03*
%TD*%
D11*
%TO.C,K68*%
X33020000Y-114300000D03*
D10*
X38100000Y-114300000D03*
D11*
X43180000Y-114300000D03*
D12*
X40640000Y-109220000D03*
X34290000Y-111760000D03*
%TD*%
D11*
%TO.C,K64*%
X290195000Y-95250000D03*
X300355000Y-95250000D03*
D10*
X295275000Y-95250000D03*
D12*
X297815000Y-90170000D03*
X291465000Y-92710000D03*
%TD*%
D11*
%TO.C,K65*%
X316388750Y-95250000D03*
X326548750Y-95250000D03*
D10*
X321468750Y-95250000D03*
D12*
X324008750Y-90170000D03*
X317658750Y-92710000D03*
%TD*%
D11*
%TO.C,K37A1*%
X88423750Y-76200000D03*
X78263750Y-76200000D03*
D10*
X83343750Y-76200000D03*
D12*
X85883750Y-71120000D03*
X79533750Y-73660000D03*
%TD*%
D11*
%TO.C,K28*%
X247967500Y-57150000D03*
X237807500Y-57150000D03*
D10*
X242887500Y-57150000D03*
D12*
X245427500Y-52070000D03*
X239077500Y-54610000D03*
%TD*%
D11*
%TO.C,K2*%
X62230000Y-38100000D03*
X52070000Y-38100000D03*
D10*
X57150000Y-38100000D03*
D12*
X59690000Y-33020000D03*
X53340000Y-35560000D03*
%TD*%
D11*
%TO.C,K50*%
X361632500Y-57150000D03*
X371792500Y-57150000D03*
D10*
X366712500Y-57150000D03*
D12*
X369252500Y-52070000D03*
X362902500Y-54610000D03*
%TD*%
D11*
%TO.C,K12*%
X257492500Y-38100000D03*
X247332500Y-38100000D03*
D10*
X252412500Y-38100000D03*
D12*
X254952500Y-33020000D03*
X248602500Y-35560000D03*
%TD*%
D13*
%TO.C,>NAME*%
X104806750Y-103505000D03*
D14*
X80930750Y-88265000D03*
X104806750Y-88265000D03*
D13*
X80930750Y-103505000D03*
%TD*%
D11*
%TO.C,K41*%
X166370000Y-76200000D03*
X176530000Y-76200000D03*
D10*
X171450000Y-76200000D03*
D12*
X173990000Y-71120000D03*
X167640000Y-73660000D03*
%TD*%
D11*
%TO.C,K75*%
X240823750Y-114300000D03*
X230663750Y-114300000D03*
D10*
X235743750Y-114300000D03*
D12*
X238283750Y-109220000D03*
X231933750Y-111760000D03*
%TD*%
D10*
%TO.C,K74*%
X197643750Y-114300000D03*
D11*
X202723750Y-114300000D03*
X192563750Y-114300000D03*
D12*
X200183750Y-109220000D03*
X193833750Y-111760000D03*
%TD*%
D11*
%TO.C,K57*%
X167005000Y-95250000D03*
X156845000Y-95250000D03*
D10*
X161925000Y-95250000D03*
D12*
X164465000Y-90170000D03*
X158115000Y-92710000D03*
%TD*%
D11*
%TO.C,K24*%
X171767500Y-57150000D03*
D10*
X166687500Y-57150000D03*
D11*
X161607500Y-57150000D03*
D12*
X169227500Y-52070000D03*
X162877500Y-54610000D03*
%TD*%
D11*
%TO.C,K60*%
X213995000Y-95250000D03*
D10*
X219075000Y-95250000D03*
D11*
X224155000Y-95250000D03*
D12*
X221615000Y-90170000D03*
X215265000Y-92710000D03*
%TD*%
D11*
%TO.C,K52*%
X52070000Y-95250000D03*
X62230000Y-95250000D03*
D10*
X57150000Y-95250000D03*
D12*
X59690000Y-90170000D03*
X53340000Y-92710000D03*
%TD*%
D10*
%TO.C,K26*%
X204787500Y-57150000D03*
D11*
X209867500Y-57150000D03*
X199707500Y-57150000D03*
D12*
X207327500Y-52070000D03*
X200977500Y-54610000D03*
%TD*%
D10*
%TO.C,K39*%
X133350000Y-76200000D03*
D11*
X128270000Y-76200000D03*
X138430000Y-76200000D03*
D12*
X135890000Y-71120000D03*
X129540000Y-73660000D03*
%TD*%
D11*
%TO.C,K47*%
X280670000Y-76200000D03*
D10*
X285750000Y-76200000D03*
D11*
X290830000Y-76200000D03*
D12*
X288290000Y-71120000D03*
X281940000Y-73660000D03*
%TD*%
D11*
%TO.C,K5*%
X124142500Y-38100000D03*
D10*
X119062500Y-38100000D03*
D11*
X113982500Y-38100000D03*
D12*
X121602500Y-33020000D03*
X115252500Y-35560000D03*
%TD*%
D11*
%TO.C,K37*%
X93186250Y-76200000D03*
D10*
X88106250Y-76200000D03*
D11*
X83026250Y-76200000D03*
D12*
X90646250Y-71120000D03*
X84296250Y-73660000D03*
%TD*%
D11*
%TO.C,K19*%
X52070000Y-57150000D03*
D10*
X57150000Y-57150000D03*
D11*
X62230000Y-57150000D03*
D12*
X59690000Y-52070000D03*
X53340000Y-54610000D03*
%TD*%
D11*
%TO.C,K54*%
X99695000Y-95250000D03*
D10*
X104775000Y-95250000D03*
D11*
X109855000Y-95250000D03*
D12*
X107315000Y-90170000D03*
X100965000Y-92710000D03*
%TD*%
D10*
%TO.C,K33A1*%
X345281250Y-66675000D03*
D15*
X338281250Y-54775000D03*
D10*
X353521250Y-78575000D03*
D15*
X338281250Y-78575000D03*
D11*
X350361250Y-66675000D03*
X340201250Y-66675000D03*
D10*
X353521250Y-54775000D03*
D12*
X347821250Y-61595000D03*
X341471250Y-64135000D03*
%TD*%
D11*
%TO.C,K48*%
X309880000Y-76200000D03*
X299720000Y-76200000D03*
D10*
X304800000Y-76200000D03*
D12*
X307340000Y-71120000D03*
X300990000Y-73660000D03*
%TD*%
D10*
%TO.C,K79*%
X366712500Y-114300000D03*
D11*
X361632500Y-114300000D03*
X371792500Y-114300000D03*
D12*
X369252500Y-109220000D03*
X362902500Y-111760000D03*
%TD*%
D13*
%TO.C,ST72*%
X350075500Y-46355000D03*
X326199500Y-46355000D03*
D14*
X326199500Y-31115000D03*
X350075500Y-31115000D03*
%TD*%
D10*
%TO.C,K40*%
X152400000Y-76200000D03*
D11*
X147320000Y-76200000D03*
X157480000Y-76200000D03*
D12*
X154940000Y-71120000D03*
X148590000Y-73660000D03*
%TD*%
D16*
%TO.C,RGB5*%
X345350000Y-46025000D03*
X345350000Y-49225000D03*
X340450000Y-49225000D03*
X340450000Y-46025000D03*
%TD*%
%TO.C,RGB8*%
X199956250Y-106375000D03*
X199956250Y-103175000D03*
X204856250Y-103175000D03*
X204856250Y-106375000D03*
%TD*%
D17*
%TO.C,R6*%
X67792600Y-38494200D03*
X67792600Y-40144200D03*
%TD*%
D18*
%TO.C,C4*%
X74803000Y-55131000D03*
X74803000Y-53581000D03*
%TD*%
D19*
%TO.C,KD20*%
X99062500Y-77643750D03*
X100962500Y-77643750D03*
X100012500Y-79518750D03*
%TD*%
D17*
%TO.C,R2*%
X70586600Y-32576000D03*
X70586600Y-34226000D03*
%TD*%
D19*
%TO.C,KD4*%
X165737500Y-39543750D03*
X167637500Y-39543750D03*
X166687500Y-41418750D03*
%TD*%
D20*
%TO.C,C10*%
X344945000Y-44069000D03*
X343395000Y-44069000D03*
%TD*%
D19*
%TO.C,KD13*%
X175262500Y-58593750D03*
X177162500Y-58593750D03*
X176212500Y-60468750D03*
%TD*%
D18*
%TO.C,C6*%
X66167000Y-47575000D03*
X66167000Y-46025000D03*
%TD*%
D19*
%TO.C,KD30*%
X170500000Y-96693750D03*
X172400000Y-96693750D03*
X171450000Y-98568750D03*
%TD*%
D21*
%TO.C,SW1*%
X103162500Y-49525000D03*
X96862500Y-49525000D03*
X96862500Y-45725000D03*
X103162500Y-45725000D03*
%TD*%
D22*
%TO.C,C2*%
X69494400Y-70675200D03*
X69494400Y-72225200D03*
%TD*%
D19*
%TO.C,KD9*%
X356237500Y-39543750D03*
X358137500Y-39543750D03*
X357187500Y-41418750D03*
%TD*%
%TO.C,KD25*%
X294325000Y-77643750D03*
X296225000Y-77643750D03*
X295275000Y-79518750D03*
%TD*%
D16*
%TO.C,RGB1*%
X64362500Y-46025000D03*
X64362500Y-49225000D03*
X59462500Y-49225000D03*
X59462500Y-46025000D03*
%TD*%
D19*
%TO.C,KD18*%
X356237500Y-46687500D03*
X358137500Y-46687500D03*
X357187500Y-48562500D03*
%TD*%
%TO.C,KD41*%
X356237500Y-115743750D03*
X358137500Y-115743750D03*
X357187500Y-117618750D03*
%TD*%
%TO.C,KD17*%
X327662500Y-58593750D03*
X329562500Y-58593750D03*
X328612500Y-60468750D03*
%TD*%
%TO.C,KD31*%
X208600000Y-96693750D03*
X210500000Y-96693750D03*
X209550000Y-98568750D03*
%TD*%
D16*
%TO.C,RGB4*%
X275103125Y-46025000D03*
X275103125Y-49225000D03*
X270203125Y-49225000D03*
X270203125Y-46025000D03*
%TD*%
D22*
%TO.C,C17*%
X72263000Y-50279000D03*
X72263000Y-51829000D03*
%TD*%
D19*
%TO.C,KD39*%
X215743750Y-115743750D03*
X217643750Y-115743750D03*
X216693750Y-117618750D03*
%TD*%
D23*
%TO.C,Y1*%
X74084000Y-50204000D03*
X76284000Y-50204000D03*
X76284000Y-51904000D03*
X74084000Y-51904000D03*
%TD*%
D19*
%TO.C,KD19*%
X46675000Y-77643750D03*
X48575000Y-77643750D03*
X47625000Y-79518750D03*
%TD*%
%TO.C,KD28*%
X96681250Y-99075000D03*
X98581250Y-99075000D03*
X97631250Y-100950000D03*
%TD*%
%TO.C,KD40*%
X278450000Y-115743750D03*
X280350000Y-115743750D03*
X279400000Y-117618750D03*
%TD*%
D24*
%TO.C,U1*%
X67991700Y-32601800D03*
D25*
X68529200Y-32526800D03*
D24*
X69066700Y-32601800D03*
X69066700Y-34301800D03*
D25*
X68529200Y-34376800D03*
D24*
X67991700Y-34301800D03*
%TD*%
D17*
%TO.C,R7*%
X73533000Y-70549000D03*
X73533000Y-72199000D03*
%TD*%
D19*
%TO.C,KD26*%
X344331250Y-77643750D03*
X346231250Y-77643750D03*
X345281250Y-79518750D03*
%TD*%
D16*
%TO.C,RGB7*%
X270203125Y-106375000D03*
X270203125Y-103175000D03*
X275103125Y-103175000D03*
X275103125Y-106375000D03*
%TD*%
D26*
%TO.C,LED1*%
X82053750Y-81280000D03*
D27*
X84593750Y-81280000D03*
%TD*%
D28*
%TO.C,F1*%
X66116200Y-36730700D03*
X66116200Y-38605700D03*
%TD*%
D19*
%TO.C,KD1*%
X46675000Y-39543750D03*
X48575000Y-39543750D03*
X47625000Y-41418750D03*
%TD*%
D18*
%TO.C,C7*%
X136398000Y-47575000D03*
X136398000Y-46025000D03*
%TD*%
D19*
%TO.C,KD22*%
X180025000Y-77643750D03*
X181925000Y-77643750D03*
X180975000Y-79518750D03*
%TD*%
D18*
%TO.C,C9*%
X276987000Y-47638000D03*
X276987000Y-46088000D03*
%TD*%
D16*
%TO.C,RGB3*%
X204856250Y-46025000D03*
X204856250Y-49225000D03*
X199956250Y-49225000D03*
X199956250Y-46025000D03*
%TD*%
D19*
%TO.C,KD32*%
X246700000Y-96693750D03*
X248600000Y-96693750D03*
X247650000Y-98568750D03*
%TD*%
%TO.C,KD6*%
X241937500Y-39543750D03*
X243837500Y-39543750D03*
X242887500Y-41418750D03*
%TD*%
%TO.C,KD36*%
X46675000Y-115743750D03*
X48575000Y-115743750D03*
X47625000Y-117618750D03*
%TD*%
D20*
%TO.C,C1*%
X63055800Y-64262000D03*
X61505800Y-64262000D03*
%TD*%
D19*
%TO.C,KD2*%
X89537500Y-39543750D03*
X91437500Y-39543750D03*
X90487500Y-41418750D03*
%TD*%
D18*
%TO.C,C16*%
X78105000Y-51829000D03*
X78105000Y-50279000D03*
%TD*%
D16*
%TO.C,RGB6*%
X340450000Y-106375000D03*
X340450000Y-103175000D03*
X345350000Y-103175000D03*
X345350000Y-106375000D03*
%TD*%
D19*
%TO.C,KD15*%
X251462500Y-58593750D03*
X253362500Y-58593750D03*
X252412500Y-60468750D03*
%TD*%
D16*
%TO.C,RGB2*%
X134609375Y-46025000D03*
X134609375Y-49225000D03*
X129709375Y-49225000D03*
X129709375Y-46025000D03*
%TD*%
D29*
%TO.C,J1*%
X71946250Y-28577600D03*
X66166250Y-28577600D03*
D30*
X65806250Y-30022600D03*
X66606250Y-30022600D03*
D31*
X67806250Y-30022600D03*
X68806250Y-30022600D03*
X69306250Y-30022600D03*
X70306250Y-30022600D03*
D30*
X71506250Y-30022600D03*
X72306250Y-30022600D03*
X72306250Y-30022600D03*
X71506250Y-30022600D03*
D31*
X70806250Y-30022600D03*
X69806250Y-30022600D03*
X68306250Y-30022600D03*
X67306250Y-30022600D03*
D30*
X66606250Y-30022600D03*
X65806250Y-30022600D03*
D32*
X73376250Y-29107600D03*
D33*
X64736250Y-24927600D03*
X73376250Y-24927600D03*
D32*
X64736250Y-29107600D03*
%TD*%
D19*
%TO.C,KD34*%
X330043750Y-96693750D03*
X331943750Y-96693750D03*
X330993750Y-98568750D03*
%TD*%
%TO.C,KD12*%
X137162500Y-58593750D03*
X139062500Y-58593750D03*
X138112500Y-60468750D03*
%TD*%
D26*
%TO.C,LED1a1*%
X86816250Y-81280000D03*
D27*
X89356250Y-81280000D03*
%TD*%
D19*
%TO.C,KD16*%
X289562500Y-58593750D03*
X291462500Y-58593750D03*
X290512500Y-60468750D03*
%TD*%
D22*
%TO.C,C15*%
X57658000Y-104889000D03*
X57658000Y-106439000D03*
%TD*%
D34*
%TO.C,R5*%
X69265800Y-40144200D03*
X69265800Y-38494200D03*
%TD*%
D35*
%TO.C,C3*%
X79616000Y-64643000D03*
X81166000Y-64643000D03*
%TD*%
D19*
%TO.C,KD29*%
X132400000Y-96693750D03*
X134300000Y-96693750D03*
X133350000Y-98568750D03*
%TD*%
D16*
%TO.C,RGB10*%
X59462500Y-106375000D03*
X59462500Y-103175000D03*
X64362500Y-103175000D03*
X64362500Y-106375000D03*
%TD*%
D19*
%TO.C,KD23*%
X218125000Y-77643750D03*
X220025000Y-77643750D03*
X219075000Y-79518750D03*
%TD*%
%TO.C,KD42*%
X356301000Y-100789500D03*
X358201000Y-100789500D03*
X357251000Y-102664500D03*
%TD*%
%TO.C,KD7*%
X280037500Y-39543750D03*
X281937500Y-39543750D03*
X280987500Y-41418750D03*
%TD*%
D22*
%TO.C,C14*%
X127889000Y-104762000D03*
X127889000Y-106312000D03*
%TD*%
D19*
%TO.C,KD10*%
X46675000Y-58593750D03*
X48575000Y-58593750D03*
X47625000Y-60468750D03*
%TD*%
%TO.C,KD14*%
X213362500Y-58593750D03*
X215262500Y-58593750D03*
X214312500Y-60468750D03*
%TD*%
D36*
%TO.C,R3*%
X85407000Y-49022000D03*
X83757000Y-49022000D03*
%TD*%
D16*
%TO.C,RGB9*%
X129709375Y-106375000D03*
X129709375Y-103175000D03*
X134609375Y-103175000D03*
X134609375Y-106375000D03*
%TD*%
D19*
%TO.C,KD27*%
X46675000Y-96693750D03*
X48575000Y-96693750D03*
X47625000Y-98568750D03*
%TD*%
%TO.C,KD21*%
X141925000Y-77643750D03*
X143825000Y-77643750D03*
X142875000Y-79518750D03*
%TD*%
D18*
%TO.C,C5*%
X67767200Y-55131000D03*
X67767200Y-53581000D03*
%TD*%
D22*
%TO.C,C18*%
X66294000Y-55511400D03*
X66294000Y-57061400D03*
%TD*%
%TO.C,C11*%
X338582000Y-104889000D03*
X338582000Y-106439000D03*
%TD*%
%TO.C,C13*%
X198120000Y-104762000D03*
X198120000Y-106312000D03*
%TD*%
D18*
%TO.C,C8*%
X206756000Y-47638000D03*
X206756000Y-46088000D03*
%TD*%
D19*
%TO.C,KD37*%
X94300000Y-115743750D03*
X96200000Y-115743750D03*
X95250000Y-117618750D03*
%TD*%
%TO.C,KD11*%
X96681250Y-58593750D03*
X98581250Y-58593750D03*
X97631250Y-60468750D03*
%TD*%
%TO.C,KD5*%
X203837500Y-39543750D03*
X205737500Y-39543750D03*
X204787500Y-41418750D03*
%TD*%
%TO.C,KD35*%
X337187500Y-96693750D03*
X339087500Y-96693750D03*
X338137500Y-98568750D03*
%TD*%
D17*
%TO.C,R1*%
X66421000Y-32576000D03*
X66421000Y-34226000D03*
%TD*%
D19*
%TO.C,KD38*%
X144306250Y-115743750D03*
X146206250Y-115743750D03*
X145256250Y-117618750D03*
%TD*%
D37*
%TO.C,U2*%
X64578564Y-61027918D03*
X65144250Y-60462233D03*
X65709935Y-59896548D03*
X66275620Y-59330862D03*
X66841306Y-58765177D03*
X67406991Y-58199491D03*
X67972677Y-57633806D03*
X68538362Y-57068120D03*
X69104048Y-56502435D03*
X69669733Y-55936750D03*
X70235418Y-55371064D03*
D38*
X72639582Y-55371064D03*
X73205267Y-55936750D03*
X73770952Y-56502435D03*
X74336638Y-57068120D03*
X74902323Y-57633806D03*
X75468009Y-58199491D03*
X76033694Y-58765177D03*
X76599380Y-59330862D03*
X77165065Y-59896548D03*
X77730750Y-60462233D03*
X78296436Y-61027918D03*
D37*
X78296436Y-63432082D03*
X77730750Y-63997767D03*
X77165065Y-64563452D03*
X76599380Y-65129138D03*
X76033694Y-65694823D03*
X75468009Y-66260509D03*
X74902323Y-66826194D03*
X74336638Y-67391880D03*
X73770952Y-67957565D03*
X73205267Y-68523250D03*
X72639582Y-69088936D03*
D38*
X70235418Y-69088936D03*
X69669733Y-68523250D03*
X69104048Y-67957565D03*
X68538362Y-67391880D03*
X67972677Y-66826194D03*
X67406991Y-66260509D03*
X66841306Y-65694823D03*
X66275620Y-65129138D03*
X65709935Y-64563452D03*
X65144250Y-63997767D03*
X64578564Y-63432082D03*
%TD*%
D39*
%TO.C,R4*%
X78067400Y-81255000D03*
X79717400Y-81255000D03*
%TD*%
D19*
%TO.C,KD33*%
X284800000Y-96693750D03*
X286700000Y-96693750D03*
X285750000Y-98568750D03*
%TD*%
D26*
%TO.C,ISP1*%
X87949800Y-46350000D03*
D27*
X87949800Y-48890000D03*
X90489800Y-46350000D03*
X90489800Y-48890000D03*
X93029800Y-46350000D03*
X93029800Y-48890000D03*
%TD*%
D19*
%TO.C,KD8*%
X318137500Y-39543750D03*
X320037500Y-39543750D03*
X319087500Y-41418750D03*
%TD*%
%TO.C,KD24*%
X256225000Y-77643750D03*
X258125000Y-77643750D03*
X257175000Y-79518750D03*
%TD*%
D22*
%TO.C,C12*%
X268351000Y-104889000D03*
X268351000Y-106439000D03*
%TD*%
D19*
%TO.C,KD3*%
X127637500Y-39543750D03*
X129537500Y-39543750D03*
X128587500Y-41418750D03*
%TD*%
D40*
%TO.C,FB1*%
X73710800Y-31220900D03*
X73710800Y-33345900D03*
%TD*%
M02*
