%TF.GenerationSoftware,KiCad,Pcbnew,(5.99.0-11177-g6c67dfa032)*%
%TF.CreationDate,2021-09-17T12:13:23+03:00*%
%TF.ProjectId,SunsetterR2_Solder,53756e73-6574-4746-9572-52325f536f6c,rev?*%
%TF.SameCoordinates,Original*%
%TF.FileFunction,Soldermask,Top*%
%TF.FilePolarity,Negative*%
%FSLAX46Y46*%
G04 Gerber Fmt 4.6, Leading zero omitted, Abs format (unit mm)*
G04 Created by KiCad (PCBNEW (5.99.0-11177-g6c67dfa032)) date 2021-09-17 12:13:23*
%MOMM*%
%LPD*%
G01*
G04 APERTURE LIST*
%ADD10C,4.000000*%
%ADD11C,1.700000*%
%ADD12C,2.200000*%
%ADD13C,3.987800*%
%ADD14C,3.048000*%
%ADD15C,3.050000*%
%ADD16R,1.700000X1.700000*%
%ADD17O,1.700000X1.700000*%
%ADD18C,0.650000*%
%ADD19O,1.000000X2.100000*%
%ADD20O,1.000000X1.600000*%
G04 APERTURE END LIST*
%TO.C,G\u002A\u002A\u002A*%
G36*
X211483147Y-64028486D02*
G01*
X211581227Y-64319602D01*
X211672418Y-64641278D01*
X211935666Y-65412637D01*
X212260004Y-66026004D01*
X212659608Y-66500680D01*
X213148655Y-66855965D01*
X213386935Y-66975479D01*
X213618307Y-67100586D01*
X213757958Y-67217711D01*
X213776647Y-67259567D01*
X213700019Y-67358982D01*
X213505929Y-67485145D01*
X213386935Y-67543655D01*
X212882654Y-67830754D01*
X212469543Y-68211164D01*
X212127453Y-68710772D01*
X211836235Y-69355461D01*
X211722023Y-69682535D01*
X211609791Y-69985574D01*
X211501221Y-70210372D01*
X211421058Y-70307262D01*
X211336800Y-70243905D01*
X211230152Y-70025109D01*
X211125803Y-69717609D01*
X210934498Y-69198466D01*
X210688675Y-68710654D01*
X210419276Y-68309987D01*
X210237273Y-68114794D01*
X210067603Y-67990489D01*
X209798228Y-67818642D01*
X209522050Y-67656310D01*
X209248457Y-67489914D01*
X209051780Y-67347290D01*
X208974741Y-67259567D01*
X209047285Y-67173235D01*
X209240939Y-67047842D01*
X209423922Y-66953791D01*
X209938370Y-66651002D01*
X210354141Y-66261091D01*
X210690176Y-65758118D01*
X210965418Y-65116142D01*
X211112644Y-64641278D01*
X211233612Y-64221491D01*
X211325147Y-63979430D01*
X211403056Y-63915095D01*
X211483147Y-64028486D01*
G37*
G36*
X191234754Y-70639138D02*
G01*
X191342596Y-70844825D01*
X191466654Y-71130777D01*
X191802247Y-71730136D01*
X192288077Y-72224900D01*
X192556111Y-72413877D01*
X192663674Y-72496357D01*
X192654409Y-72576449D01*
X192516379Y-72709375D01*
X192486717Y-72734815D01*
X192237331Y-72936683D01*
X192003951Y-73110540D01*
X191837877Y-73279611D01*
X191644393Y-73552720D01*
X191491658Y-73821190D01*
X191341275Y-74097376D01*
X191213598Y-74293420D01*
X191137668Y-74366065D01*
X191059169Y-74290332D01*
X190931805Y-74092576D01*
X190795125Y-73838809D01*
X190453039Y-73318918D01*
X190073566Y-72969278D01*
X189828978Y-72777211D01*
X189652435Y-72621168D01*
X189588195Y-72544754D01*
X189644584Y-72456210D01*
X189818823Y-72318450D01*
X189969713Y-72222854D01*
X190199944Y-72065040D01*
X190386791Y-71870033D01*
X190568966Y-71589889D01*
X190737522Y-71271926D01*
X190906382Y-70952366D01*
X191050452Y-70707192D01*
X191146955Y-70574083D01*
X191167474Y-70560650D01*
X191234754Y-70639138D01*
G37*
%TD*%
D10*
%TO.C,K21*%
X109537500Y-57150000D03*
D11*
X104457500Y-57150000D03*
X114617500Y-57150000D03*
D12*
X112077500Y-52070000D03*
X105727500Y-54610000D03*
%TD*%
D11*
%TO.C,K80*%
X371792500Y-95250000D03*
X361632500Y-95250000D03*
D10*
X366712500Y-95250000D03*
D12*
X369252500Y-90170000D03*
X362902500Y-92710000D03*
%TD*%
D10*
%TO.C,K35*%
X38100000Y-76200000D03*
D11*
X43180000Y-76200000D03*
X33020000Y-76200000D03*
D12*
X40640000Y-71120000D03*
X34290000Y-73660000D03*
%TD*%
D11*
%TO.C,K30*%
X286067500Y-57150000D03*
D10*
X280987500Y-57150000D03*
D11*
X275907500Y-57150000D03*
D12*
X283527500Y-52070000D03*
X277177500Y-54610000D03*
%TD*%
D11*
%TO.C,K31*%
X305117500Y-57150000D03*
D10*
X300037500Y-57150000D03*
D11*
X294957500Y-57150000D03*
D12*
X302577500Y-52070000D03*
X296227500Y-54610000D03*
%TD*%
D11*
%TO.C,K33*%
X337820000Y-57150000D03*
D10*
X342900000Y-57150000D03*
D11*
X347980000Y-57150000D03*
D12*
X340360000Y-62230000D03*
X346710000Y-59690000D03*
%TD*%
D11*
%TO.C,K73*%
X169386250Y-114300000D03*
X159226250Y-114300000D03*
D10*
X164306250Y-114300000D03*
D12*
X166846250Y-109220000D03*
X160496250Y-111760000D03*
%TD*%
D11*
%TO.C,K51*%
X43180000Y-95250000D03*
D10*
X38100000Y-95250000D03*
D11*
X33020000Y-95250000D03*
D12*
X40640000Y-90170000D03*
X34290000Y-92710000D03*
%TD*%
D11*
%TO.C,K78*%
X352742500Y-114300000D03*
D10*
X347662500Y-114300000D03*
D11*
X342582500Y-114300000D03*
D12*
X350202500Y-109220000D03*
X343852500Y-111760000D03*
%TD*%
D10*
%TO.C,K23*%
X147637500Y-57150000D03*
D11*
X152717500Y-57150000D03*
X142557500Y-57150000D03*
D12*
X150177500Y-52070000D03*
X143827500Y-54610000D03*
%TD*%
D10*
%TO.C,K58*%
X180975000Y-95250000D03*
D11*
X186055000Y-95250000D03*
X175895000Y-95250000D03*
D12*
X183515000Y-90170000D03*
X177165000Y-92710000D03*
%TD*%
D11*
%TO.C,K56*%
X147955000Y-95250000D03*
X137795000Y-95250000D03*
D10*
X142875000Y-95250000D03*
D12*
X145415000Y-90170000D03*
X139065000Y-92710000D03*
%TD*%
D10*
%TO.C,K9*%
X195262500Y-38100000D03*
D11*
X200342500Y-38100000D03*
X190182500Y-38100000D03*
D12*
X197802500Y-33020000D03*
X191452500Y-35560000D03*
%TD*%
D10*
%TO.C,K10*%
X214312500Y-38100000D03*
D11*
X219392500Y-38100000D03*
X209232500Y-38100000D03*
D12*
X216852500Y-33020000D03*
X210502500Y-35560000D03*
%TD*%
D11*
%TO.C,K6*%
X143192500Y-38100000D03*
X133032500Y-38100000D03*
D10*
X138112500Y-38100000D03*
D12*
X140652500Y-33020000D03*
X134302500Y-35560000D03*
%TD*%
D10*
%TO.C,K25*%
X185737500Y-57150000D03*
D11*
X190817500Y-57150000D03*
X180657500Y-57150000D03*
D12*
X188277500Y-52070000D03*
X181927500Y-54610000D03*
%TD*%
D11*
%TO.C,K67*%
X352742500Y-95250000D03*
X342582500Y-95250000D03*
D10*
X347662500Y-95250000D03*
D12*
X350202500Y-90170000D03*
X343852500Y-92710000D03*
%TD*%
D11*
%TO.C,K46*%
X261620000Y-76200000D03*
X271780000Y-76200000D03*
D10*
X266700000Y-76200000D03*
D12*
X269240000Y-71120000D03*
X262890000Y-73660000D03*
%TD*%
D10*
%TO.C,K49*%
X335756250Y-76200000D03*
D11*
X340836250Y-76200000D03*
X330676250Y-76200000D03*
D12*
X338296250Y-71120000D03*
X331946250Y-73660000D03*
%TD*%
D10*
%TO.C,K11*%
X233362500Y-38100000D03*
D11*
X228282500Y-38100000D03*
X238442500Y-38100000D03*
D12*
X235902500Y-33020000D03*
X229552500Y-35560000D03*
%TD*%
D10*
%TO.C,K14*%
X290512500Y-38100000D03*
D11*
X285432500Y-38100000D03*
X295592500Y-38100000D03*
D12*
X293052500Y-33020000D03*
X286702500Y-35560000D03*
%TD*%
D10*
%TO.C,K49A1*%
X323850000Y-76200000D03*
D11*
X318770000Y-76200000D03*
X328930000Y-76200000D03*
D12*
X326390000Y-71120000D03*
X320040000Y-73660000D03*
%TD*%
D11*
%TO.C,K18*%
X33020000Y-57150000D03*
D10*
X38100000Y-57150000D03*
D11*
X43180000Y-57150000D03*
D12*
X40640000Y-52070000D03*
X34290000Y-54610000D03*
%TD*%
D10*
%TO.C,K66*%
X366712500Y-76200000D03*
D11*
X361632500Y-76200000D03*
X371792500Y-76200000D03*
D12*
X369252500Y-71120000D03*
X362902500Y-73660000D03*
%TD*%
D11*
%TO.C,K36*%
X52070000Y-76200000D03*
X62230000Y-76200000D03*
D10*
X57150000Y-76200000D03*
D12*
X59690000Y-71120000D03*
X53340000Y-73660000D03*
%TD*%
D11*
%TO.C,K32*%
X314007500Y-57150000D03*
X324167500Y-57150000D03*
D10*
X319087500Y-57150000D03*
D12*
X321627500Y-52070000D03*
X315277500Y-54610000D03*
%TD*%
D13*
%TO.C,>NAME*%
X176244250Y-106045000D03*
D14*
X152368250Y-121285000D03*
X176244250Y-121285000D03*
D13*
X152368250Y-106045000D03*
%TD*%
D11*
%TO.C,K8*%
X171132500Y-38100000D03*
D10*
X176212500Y-38100000D03*
D11*
X181292500Y-38100000D03*
D12*
X178752500Y-33020000D03*
X172402500Y-35560000D03*
%TD*%
D13*
%TO.C,>NAME*%
X252450500Y-106045000D03*
D14*
X152374500Y-121285000D03*
D13*
X152374500Y-106045000D03*
D14*
X252450500Y-121285000D03*
%TD*%
D13*
%TO.C,>NAME*%
X247681750Y-106045000D03*
D14*
X247681750Y-121285000D03*
X223805750Y-121285000D03*
D13*
X223805750Y-106045000D03*
%TD*%
D11*
%TO.C,K72*%
X125888750Y-114300000D03*
D10*
X130968750Y-114300000D03*
D11*
X136048750Y-114300000D03*
D12*
X133508750Y-109220000D03*
X127158750Y-111760000D03*
%TD*%
D10*
%TO.C,K63*%
X276225000Y-95250000D03*
D11*
X271145000Y-95250000D03*
X281305000Y-95250000D03*
D12*
X278765000Y-90170000D03*
X272415000Y-92710000D03*
%TD*%
D10*
%TO.C,K53*%
X83343750Y-95250000D03*
D11*
X88423750Y-95250000D03*
X78263750Y-95250000D03*
D12*
X85883750Y-90170000D03*
X79533750Y-92710000D03*
%TD*%
D11*
%TO.C,K22*%
X123507500Y-57150000D03*
X133667500Y-57150000D03*
D10*
X128587500Y-57150000D03*
D12*
X131127500Y-52070000D03*
X124777500Y-54610000D03*
%TD*%
D10*
%TO.C,K7*%
X157162500Y-38100000D03*
D11*
X152082500Y-38100000D03*
X162242500Y-38100000D03*
D12*
X159702500Y-33020000D03*
X153352500Y-35560000D03*
%TD*%
D11*
%TO.C,K13*%
X276542500Y-38100000D03*
X266382500Y-38100000D03*
D10*
X271462500Y-38100000D03*
D12*
X274002500Y-33020000D03*
X267652500Y-35560000D03*
%TD*%
D11*
%TO.C,K74A1*%
X197332500Y-114300000D03*
D10*
X202412500Y-114300000D03*
D11*
X207492500Y-114300000D03*
D12*
X204952500Y-109220000D03*
X198602500Y-111760000D03*
%TD*%
D10*
%TO.C,K27*%
X223837500Y-57150000D03*
D11*
X228917500Y-57150000D03*
X218757500Y-57150000D03*
D12*
X226377500Y-52070000D03*
X220027500Y-54610000D03*
%TD*%
D11*
%TO.C,K43*%
X204470000Y-76200000D03*
D10*
X209550000Y-76200000D03*
D11*
X214630000Y-76200000D03*
D12*
X212090000Y-71120000D03*
X205740000Y-73660000D03*
%TD*%
D13*
%TO.C,>NAME*%
X323818250Y-84455000D03*
D14*
X347694250Y-69215000D03*
X323818250Y-69215000D03*
D13*
X347694250Y-84455000D03*
%TD*%
D11*
%TO.C,K71*%
X112236250Y-114300000D03*
D10*
X107156250Y-114300000D03*
D11*
X102076250Y-114300000D03*
D12*
X109696250Y-109220000D03*
X103346250Y-111760000D03*
%TD*%
D10*
%TO.C,K16A1*%
X338131250Y-38100000D03*
D11*
X333051250Y-38100000D03*
X343211250Y-38100000D03*
D12*
X340671250Y-33020000D03*
X334321250Y-35560000D03*
%TD*%
D11*
%TO.C,K29*%
X256857500Y-57150000D03*
D10*
X261937500Y-57150000D03*
D11*
X267017500Y-57150000D03*
D12*
X264477500Y-52070000D03*
X258127500Y-54610000D03*
%TD*%
D10*
%TO.C,K69*%
X57150000Y-114300000D03*
D11*
X52070000Y-114300000D03*
X62230000Y-114300000D03*
D12*
X59690000Y-109220000D03*
X53340000Y-111760000D03*
%TD*%
D11*
%TO.C,K59*%
X194945000Y-95250000D03*
D10*
X200025000Y-95250000D03*
D11*
X205105000Y-95250000D03*
D12*
X202565000Y-90170000D03*
X196215000Y-92710000D03*
%TD*%
D10*
%TO.C,K1*%
X38100000Y-38100000D03*
D11*
X33020000Y-38100000D03*
X43180000Y-38100000D03*
D12*
X40640000Y-33020000D03*
X34290000Y-35560000D03*
%TD*%
D10*
%TO.C,K77*%
X328612500Y-114300000D03*
D11*
X333692500Y-114300000D03*
X323532500Y-114300000D03*
D12*
X331152500Y-109220000D03*
X324802500Y-111760000D03*
%TD*%
D11*
%TO.C,K20*%
X90805000Y-57150000D03*
X80645000Y-57150000D03*
D10*
X85725000Y-57150000D03*
D12*
X88265000Y-52070000D03*
X81915000Y-54610000D03*
%TD*%
D11*
%TO.C,K76*%
X276542500Y-114300000D03*
X266382500Y-114300000D03*
D10*
X271462500Y-114300000D03*
D12*
X274002500Y-109220000D03*
X267652500Y-111760000D03*
%TD*%
D11*
%TO.C,K45*%
X252730000Y-76200000D03*
X242570000Y-76200000D03*
D10*
X247650000Y-76200000D03*
D12*
X250190000Y-71120000D03*
X243840000Y-73660000D03*
%TD*%
D11*
%TO.C,K42*%
X185420000Y-76200000D03*
X195580000Y-76200000D03*
D10*
X190500000Y-76200000D03*
D12*
X193040000Y-71120000D03*
X186690000Y-73660000D03*
%TD*%
D11*
%TO.C,K16*%
X323532500Y-38100000D03*
D10*
X328612500Y-38100000D03*
D11*
X333692500Y-38100000D03*
D12*
X331152500Y-33020000D03*
X324802500Y-35560000D03*
%TD*%
D10*
%TO.C,K44*%
X228600000Y-76200000D03*
D11*
X223520000Y-76200000D03*
X233680000Y-76200000D03*
D12*
X231140000Y-71120000D03*
X224790000Y-73660000D03*
%TD*%
D11*
%TO.C,K3*%
X75882500Y-38100000D03*
D10*
X80962500Y-38100000D03*
D11*
X86042500Y-38100000D03*
D12*
X83502500Y-33020000D03*
X77152500Y-35560000D03*
%TD*%
D11*
%TO.C,K34*%
X361632500Y-38100000D03*
X371792500Y-38100000D03*
D10*
X366712500Y-38100000D03*
D12*
X369252500Y-33020000D03*
X362902500Y-35560000D03*
%TD*%
D10*
%TO.C,K55*%
X123825000Y-95250000D03*
D11*
X118745000Y-95250000D03*
X128905000Y-95250000D03*
D12*
X126365000Y-90170000D03*
X120015000Y-92710000D03*
%TD*%
D11*
%TO.C,K4*%
X94932500Y-38100000D03*
X105092500Y-38100000D03*
D10*
X100012500Y-38100000D03*
D12*
X102552500Y-33020000D03*
X96202500Y-35560000D03*
%TD*%
D11*
%TO.C,K70*%
X78263750Y-114300000D03*
X88423750Y-114300000D03*
D10*
X83343750Y-114300000D03*
D12*
X85883750Y-109220000D03*
X79533750Y-111760000D03*
%TD*%
D11*
%TO.C,K62*%
X252095000Y-95250000D03*
X262255000Y-95250000D03*
D10*
X257175000Y-95250000D03*
D12*
X259715000Y-90170000D03*
X253365000Y-92710000D03*
%TD*%
D10*
%TO.C,K15*%
X309562500Y-38100000D03*
D11*
X314642500Y-38100000D03*
X304482500Y-38100000D03*
D12*
X312102500Y-33020000D03*
X305752500Y-35560000D03*
%TD*%
D10*
%TO.C,K61*%
X238125000Y-95250000D03*
D11*
X243205000Y-95250000D03*
X233045000Y-95250000D03*
D12*
X240665000Y-90170000D03*
X234315000Y-92710000D03*
%TD*%
D11*
%TO.C,K53A1*%
X87788750Y-95250000D03*
X97948750Y-95250000D03*
D10*
X92868750Y-95250000D03*
D12*
X95408750Y-90170000D03*
X89058750Y-92710000D03*
%TD*%
D11*
%TO.C,K38*%
X119380000Y-76200000D03*
D10*
X114300000Y-76200000D03*
D11*
X109220000Y-76200000D03*
D12*
X116840000Y-71120000D03*
X110490000Y-73660000D03*
%TD*%
D10*
%TO.C,K17*%
X347662500Y-38100000D03*
D11*
X352742500Y-38100000D03*
X342582500Y-38100000D03*
D12*
X350202500Y-33020000D03*
X343852500Y-35560000D03*
%TD*%
D11*
%TO.C,K68*%
X33020000Y-114300000D03*
D10*
X38100000Y-114300000D03*
D11*
X43180000Y-114300000D03*
D12*
X40640000Y-109220000D03*
X34290000Y-111760000D03*
%TD*%
D11*
%TO.C,K64*%
X290195000Y-95250000D03*
X300355000Y-95250000D03*
D10*
X295275000Y-95250000D03*
D12*
X297815000Y-90170000D03*
X291465000Y-92710000D03*
%TD*%
D11*
%TO.C,K65*%
X316388750Y-95250000D03*
X326548750Y-95250000D03*
D10*
X321468750Y-95250000D03*
D12*
X324008750Y-90170000D03*
X317658750Y-92710000D03*
%TD*%
D11*
%TO.C,K37A1*%
X88423750Y-76200000D03*
X78263750Y-76200000D03*
D10*
X83343750Y-76200000D03*
D12*
X85883750Y-71120000D03*
X79533750Y-73660000D03*
%TD*%
D11*
%TO.C,K28*%
X247967500Y-57150000D03*
X237807500Y-57150000D03*
D10*
X242887500Y-57150000D03*
D12*
X245427500Y-52070000D03*
X239077500Y-54610000D03*
%TD*%
D11*
%TO.C,K2*%
X62230000Y-38100000D03*
X52070000Y-38100000D03*
D10*
X57150000Y-38100000D03*
D12*
X59690000Y-33020000D03*
X53340000Y-35560000D03*
%TD*%
D11*
%TO.C,K50*%
X361632500Y-57150000D03*
X371792500Y-57150000D03*
D10*
X366712500Y-57150000D03*
D12*
X369252500Y-52070000D03*
X362902500Y-54610000D03*
%TD*%
D11*
%TO.C,K12*%
X257492500Y-38100000D03*
X247332500Y-38100000D03*
D10*
X252412500Y-38100000D03*
D12*
X254952500Y-33020000D03*
X248602500Y-35560000D03*
%TD*%
D13*
%TO.C,>NAME*%
X104806750Y-103505000D03*
D14*
X80930750Y-88265000D03*
X104806750Y-88265000D03*
D13*
X80930750Y-103505000D03*
%TD*%
D11*
%TO.C,K41*%
X166370000Y-76200000D03*
X176530000Y-76200000D03*
D10*
X171450000Y-76200000D03*
D12*
X173990000Y-71120000D03*
X167640000Y-73660000D03*
%TD*%
D11*
%TO.C,K75*%
X240823750Y-114300000D03*
X230663750Y-114300000D03*
D10*
X235743750Y-114300000D03*
D12*
X238283750Y-109220000D03*
X231933750Y-111760000D03*
%TD*%
D10*
%TO.C,K74*%
X197643750Y-114300000D03*
D11*
X202723750Y-114300000D03*
X192563750Y-114300000D03*
D12*
X200183750Y-109220000D03*
X193833750Y-111760000D03*
%TD*%
D11*
%TO.C,K57*%
X167005000Y-95250000D03*
X156845000Y-95250000D03*
D10*
X161925000Y-95250000D03*
D12*
X164465000Y-90170000D03*
X158115000Y-92710000D03*
%TD*%
D11*
%TO.C,K24*%
X171767500Y-57150000D03*
D10*
X166687500Y-57150000D03*
D11*
X161607500Y-57150000D03*
D12*
X169227500Y-52070000D03*
X162877500Y-54610000D03*
%TD*%
D11*
%TO.C,K60*%
X213995000Y-95250000D03*
D10*
X219075000Y-95250000D03*
D11*
X224155000Y-95250000D03*
D12*
X221615000Y-90170000D03*
X215265000Y-92710000D03*
%TD*%
D11*
%TO.C,K52*%
X52070000Y-95250000D03*
X62230000Y-95250000D03*
D10*
X57150000Y-95250000D03*
D12*
X59690000Y-90170000D03*
X53340000Y-92710000D03*
%TD*%
D10*
%TO.C,K26*%
X204787500Y-57150000D03*
D11*
X209867500Y-57150000D03*
X199707500Y-57150000D03*
D12*
X207327500Y-52070000D03*
X200977500Y-54610000D03*
%TD*%
D10*
%TO.C,K39*%
X133350000Y-76200000D03*
D11*
X128270000Y-76200000D03*
X138430000Y-76200000D03*
D12*
X135890000Y-71120000D03*
X129540000Y-73660000D03*
%TD*%
D11*
%TO.C,K47*%
X280670000Y-76200000D03*
D10*
X285750000Y-76200000D03*
D11*
X290830000Y-76200000D03*
D12*
X288290000Y-71120000D03*
X281940000Y-73660000D03*
%TD*%
D11*
%TO.C,K5*%
X124142500Y-38100000D03*
D10*
X119062500Y-38100000D03*
D11*
X113982500Y-38100000D03*
D12*
X121602500Y-33020000D03*
X115252500Y-35560000D03*
%TD*%
D11*
%TO.C,K37*%
X93186250Y-76200000D03*
D10*
X88106250Y-76200000D03*
D11*
X83026250Y-76200000D03*
D12*
X90646250Y-71120000D03*
X84296250Y-73660000D03*
%TD*%
D11*
%TO.C,K19*%
X52070000Y-57150000D03*
D10*
X57150000Y-57150000D03*
D11*
X62230000Y-57150000D03*
D12*
X59690000Y-52070000D03*
X53340000Y-54610000D03*
%TD*%
D11*
%TO.C,K54*%
X99695000Y-95250000D03*
D10*
X104775000Y-95250000D03*
D11*
X109855000Y-95250000D03*
D12*
X107315000Y-90170000D03*
X100965000Y-92710000D03*
%TD*%
D10*
%TO.C,K33A1*%
X345281250Y-66675000D03*
D15*
X338281250Y-54775000D03*
D10*
X353521250Y-78575000D03*
D15*
X338281250Y-78575000D03*
D11*
X350361250Y-66675000D03*
X340201250Y-66675000D03*
D10*
X353521250Y-54775000D03*
D12*
X347821250Y-61595000D03*
X341471250Y-64135000D03*
%TD*%
D11*
%TO.C,K48*%
X309880000Y-76200000D03*
X299720000Y-76200000D03*
D10*
X304800000Y-76200000D03*
D12*
X307340000Y-71120000D03*
X300990000Y-73660000D03*
%TD*%
D10*
%TO.C,K79*%
X366712500Y-114300000D03*
D11*
X361632500Y-114300000D03*
X371792500Y-114300000D03*
D12*
X369252500Y-109220000D03*
X362902500Y-111760000D03*
%TD*%
D13*
%TO.C,ST72*%
X350075500Y-46355000D03*
X326199500Y-46355000D03*
D14*
X326199500Y-31115000D03*
X350075500Y-31115000D03*
%TD*%
D10*
%TO.C,K40*%
X152400000Y-76200000D03*
D11*
X147320000Y-76200000D03*
X157480000Y-76200000D03*
D12*
X154940000Y-71120000D03*
X148590000Y-73660000D03*
%TD*%
D16*
%TO.C,LED1*%
X82053750Y-81280000D03*
D17*
X84593750Y-81280000D03*
%TD*%
D18*
%TO.C,J1*%
X71946250Y-28577600D03*
X66166250Y-28577600D03*
D19*
X73376250Y-29107600D03*
D20*
X64736250Y-24927600D03*
X73376250Y-24927600D03*
D19*
X64736250Y-29107600D03*
%TD*%
D16*
%TO.C,LED1a1*%
X86816250Y-81280000D03*
D17*
X89356250Y-81280000D03*
%TD*%
D16*
%TO.C,ISP1*%
X87949800Y-46350000D03*
D17*
X87949800Y-48890000D03*
X90489800Y-46350000D03*
X90489800Y-48890000D03*
X93029800Y-46350000D03*
X93029800Y-48890000D03*
%TD*%
M02*
