M48
; DRILL file {KiCad (5.99.0-11177-g6c67dfa032)} date Friday, September 17, 2021 at 12:13:28 PM
; FORMAT={-:-/ absolute / inch / decimal}
; #@! TF.CreationDate,2021-09-17T12:13:28+03:00
; #@! TF.GenerationSoftware,Kicad,Pcbnew,(5.99.0-11177-g6c67dfa032)
; #@! TF.FileFunction,NonPlated,1,2,NPTH
FMAT,2
INCH
; #@! TA.AperFunction,NonPlated,NPTH,ComponentDrill
T1C0.0256
; #@! TA.AperFunction,NonPlated,NPTH,ComponentDrill
T2C0.0669
; #@! TA.AperFunction,NonPlated,NPTH,ComponentDrill
T3C0.1200
; #@! TA.AperFunction,NonPlated,NPTH,ComponentDrill
T4C0.1201
; #@! TA.AperFunction,NonPlated,NPTH,ComponentDrill
T5C0.1570
; #@! TA.AperFunction,NonPlated,NPTH,ComponentDrill
T6C0.1575
%
G90
G05
T1
X2.605Y-1.1251
X2.8325Y-1.1251
T2
X1.3Y-1.5
X1.3Y-2.25
X1.3Y-3.0
X1.3Y-3.75
X1.3Y-4.5
X1.7Y-1.5
X1.7Y-2.25
X1.7Y-3.0
X1.7Y-3.75
X1.7Y-4.5
X2.05Y-1.5
X2.05Y-2.25
X2.05Y-3.0
X2.05Y-3.75
X2.05Y-4.5
X2.45Y-1.5
X2.45Y-2.25
X2.45Y-3.0
X2.45Y-3.75
X2.45Y-4.5
X2.9875Y-1.5
X3.0812Y-3.0
X3.0812Y-3.75
X3.0812Y-4.5
X3.175Y-2.25
X3.2687Y-3.0
X3.3875Y-1.5
X3.4562Y-3.75
X3.4812Y-3.0
X3.4812Y-3.75
X3.4812Y-4.5
X3.575Y-2.25
X3.6687Y-3.0
X3.7375Y-1.5
X3.8562Y-3.75
X3.925Y-3.75
X4.0187Y-4.5
X4.1125Y-2.25
X4.1375Y-1.5
X4.3Y-3.0
X4.325Y-3.75
X4.4188Y-4.5
X4.4875Y-1.5
X4.5125Y-2.25
X4.675Y-3.75
X4.7Y-3.0
X4.8625Y-2.25
X4.8875Y-1.5
X4.9562Y-4.5
X5.05Y-3.0
X5.075Y-3.75
X5.2375Y-1.5
X5.2625Y-2.25
X5.3563Y-4.5
X5.425Y-3.75
X5.45Y-3.0
X5.6125Y-2.25
X5.6375Y-1.5
X5.8Y-3.0
X5.825Y-3.75
X5.9875Y-1.5
X6.0125Y-2.25
X6.175Y-3.75
X6.2Y-3.0
X6.2687Y-4.5
X6.3625Y-2.25
X6.3875Y-1.5
X6.55Y-3.0
X6.575Y-3.75
X6.6688Y-4.5
X6.7375Y-1.5
X6.7625Y-2.25
X6.925Y-3.75
X6.95Y-3.0
X7.1125Y-2.25
X7.1375Y-1.5
X7.3Y-3.0
X7.325Y-3.75
X7.4875Y-1.5
X7.5125Y-2.25
X7.5812Y-4.5
X7.675Y-3.75
X7.7Y-3.0
X7.769Y-4.5
X7.8625Y-2.25
X7.8875Y-1.5
X7.9813Y-4.5
X8.05Y-3.0
X8.075Y-3.75
X8.169Y-4.5
X8.2375Y-1.5
X8.2625Y-2.25
X8.425Y-3.75
X8.45Y-3.0
X8.6125Y-2.25
X8.6375Y-1.5
X8.8Y-3.0
X8.825Y-3.75
X8.9875Y-1.5
X9.0125Y-2.25
X9.0812Y-4.5
X9.175Y-3.75
X9.2Y-3.0
X9.3625Y-2.25
X9.3875Y-1.5
X9.4812Y-4.5
X9.55Y-3.0
X9.575Y-3.75
X9.7375Y-1.5
X9.7625Y-2.25
X9.925Y-3.75
X9.95Y-3.0
X10.1125Y-2.25
X10.1375Y-1.5
X10.3Y-3.0
X10.325Y-3.75
X10.4875Y-1.5
X10.4875Y-4.5
X10.5125Y-2.25
X10.675Y-3.75
X10.7Y-3.0
X10.8625Y-2.25
X10.8875Y-1.5
X10.8875Y-4.5
X11.05Y-3.0
X11.075Y-3.75
X11.2375Y-1.5
X11.2625Y-2.25
X11.425Y-3.75
X11.45Y-3.0
X11.6125Y-2.25
X11.6375Y-1.5
X11.8Y-3.0
X11.825Y-3.75
X11.9875Y-1.5
X12.0125Y-2.25
X12.2Y-3.0
X12.3625Y-2.25
X12.3875Y-1.5
X12.4562Y-3.75
X12.55Y-3.0
X12.7375Y-1.5
X12.7375Y-4.5
X12.7625Y-2.25
X12.8562Y-3.75
X12.95Y-3.0
X13.0187Y-3.0
X13.1123Y-1.5
X13.1375Y-1.5
X13.1375Y-4.5
X13.3Y-2.25
X13.3937Y-2.625
X13.4187Y-3.0
X13.4875Y-1.5
X13.4875Y-3.75
X13.4875Y-4.5
X13.5123Y-1.5
X13.7Y-2.25
X13.7937Y-2.625
X13.8875Y-1.5
X13.8875Y-3.75
X13.8875Y-4.5
X14.2375Y-1.5
X14.2375Y-2.25
X14.2375Y-3.0
X14.2375Y-3.75
X14.2375Y-4.5
X14.6375Y-1.5
X14.6375Y-2.25
X14.6375Y-3.0
X14.6375Y-3.75
X14.6375Y-4.5
T3
X3.1862Y-3.475
X4.1262Y-3.475
X5.9988Y-4.775
X5.999Y-4.775
X6.9387Y-4.775
X8.8112Y-4.775
X9.7513Y-4.775
X9.939Y-4.775
X12.7487Y-2.725
X12.8425Y-1.225
X13.6887Y-2.725
X13.7825Y-1.225
T4
X13.3182Y-2.1565
X13.3182Y-3.0935
T5
X3.1862Y-4.075
X4.1262Y-4.075
X5.9988Y-4.175
X5.999Y-4.175
X6.9387Y-4.175
X8.8112Y-4.175
X9.7513Y-4.175
X9.939Y-4.175
X12.7487Y-3.325
X12.8425Y-1.825
X13.6887Y-3.325
X13.7825Y-1.825
T6
X1.5Y-1.5
X1.5Y-2.25
X1.5Y-3.0
X1.5Y-3.75
X1.5Y-4.5
X2.25Y-1.5
X2.25Y-2.25
X2.25Y-3.0
X2.25Y-3.75
X2.25Y-4.5
X3.1875Y-1.5
X3.2812Y-3.0
X3.2812Y-3.75
X3.2812Y-4.5
X3.375Y-2.25
X3.4688Y-3.0
X3.6562Y-3.75
X3.9375Y-1.5
X4.125Y-3.75
X4.2188Y-4.5
X4.3125Y-2.25
X4.5Y-3.0
X4.6875Y-1.5
X4.875Y-3.75
X5.0625Y-2.25
X5.1562Y-4.5
X5.25Y-3.0
X5.4375Y-1.5
X5.625Y-3.75
X5.8125Y-2.25
X6.0Y-3.0
X6.1875Y-1.5
X6.375Y-3.75
X6.4688Y-4.5
X6.5625Y-2.25
X6.75Y-3.0
X6.9375Y-1.5
X7.125Y-3.75
X7.3125Y-2.25
X7.5Y-3.0
X7.6875Y-1.5
X7.7812Y-4.5
X7.875Y-3.75
X7.969Y-4.5
X8.0625Y-2.25
X8.25Y-3.0
X8.4375Y-1.5
X8.625Y-3.75
X8.8125Y-2.25
X9.0Y-3.0
X9.1875Y-1.5
X9.2812Y-4.5
X9.375Y-3.75
X9.5625Y-2.25
X9.75Y-3.0
X9.9375Y-1.5
X10.125Y-3.75
X10.3125Y-2.25
X10.5Y-3.0
X10.6875Y-1.5
X10.6875Y-4.5
X10.875Y-3.75
X11.0625Y-2.25
X11.25Y-3.0
X11.4375Y-1.5
X11.625Y-3.75
X11.8125Y-2.25
X12.0Y-3.0
X12.1875Y-1.5
X12.5625Y-2.25
X12.6562Y-3.75
X12.75Y-3.0
X12.9375Y-1.5
X12.9375Y-4.5
X13.2188Y-3.0
X13.3123Y-1.5
X13.5Y-2.25
X13.5938Y-2.625
X13.6875Y-1.5
X13.6875Y-3.75
X13.6875Y-4.5
X13.9182Y-2.1565
X13.9182Y-3.0935
X14.4375Y-1.5
X14.4375Y-2.25
X14.4375Y-3.0
X14.4375Y-3.75
X14.4375Y-4.5
T0
M30
