M48
; DRILL file {KiCad (5.99.0-11177-g6c67dfa032)} date Friday, September 17, 2021 at 12:13:28 PM
; FORMAT={-:-/ absolute / inch / decimal}
; #@! TF.CreationDate,2021-09-17T12:13:28+03:00
; #@! TF.GenerationSoftware,Kicad,Pcbnew,(5.99.0-11177-g6c67dfa032)
; #@! TF.FileFunction,Plated,1,2,PTH
FMAT,2
INCH
; #@! TA.AperFunction,Plated,PTH,ViaDrill
T1C0.0157
; #@! TA.AperFunction,Plated,PTH,ComponentDrill
T2C0.0236
; #@! TA.AperFunction,Plated,PTH,ComponentDrill
T3C0.0394
; #@! TA.AperFunction,Plated,PTH,ComponentDrill
T4C0.0591
%
G90
G05
T1
X1.37Y-2.625
X2.022Y-3.14
X2.215Y-4.125
X2.285Y-1.99
X2.35Y-2.66
X2.396Y-2.582
X2.48Y-4.27
X2.5197Y-2.3353
X2.52Y-2.465
X2.5295Y-3.9961
X2.54Y-1.875
X2.548Y-3.148
X2.55Y-2.762
X2.56Y-1.234
X2.603Y-1.938
X2.61Y-1.6875
X2.614Y-2.486
X2.615Y-1.389
X2.655Y-1.72
X2.68Y-2.428
X2.6969Y-3.0709
X2.6969Y-3.9375
X2.7461Y-3.0709
X2.7461Y-4.6875
X2.748Y-2.296
X2.765Y-1.72
X2.766Y-2.644
X2.77Y-1.815
X2.779Y-1.389
X2.808Y-2.556
X2.81Y-1.6875
X2.81Y-2.126
X2.812Y-2.248
X2.812Y-2.766
X2.874Y-3.144
X2.89Y-2.302
X2.893Y-2.096
X2.92Y-1.75
X2.934Y-3.286
X3.004Y-2.42
X3.126Y-2.454
X3.1336Y-3.1
X3.134Y-1.982
X3.204Y-3.338
X3.248Y-2.358
X3.25Y-1.83
X3.26Y-1.72
X3.398Y-3.338
X3.4625Y-1.6875
X3.78Y-4.29
X3.8438Y-2.2037
X3.92Y-2.805
X4.115Y-3.09
X4.69Y-4.57
X4.82Y-2.83
X4.9148Y-2.4715
X4.975Y-4.12
X5.05Y-2.01
X5.375Y-3.105
X5.375Y-4.03
X5.43Y-1.875
X5.435Y-2.465
X5.75Y-4.315
X5.9125Y-2.475
X5.99Y-4.515
X6.185Y-2.48
X6.415Y-2.475
X6.525Y-4.745
X6.87Y-3.13
X6.935Y-2.48
X7.115Y-2.825
X7.235Y-4.54
X7.24Y-4.265
X7.36Y-3.115
X7.4125Y-2.475
X7.44Y-4.755
X7.68Y-2.48
X7.745Y-4.095
X7.79Y-1.94
X7.825Y-2.84
X7.915Y-2.48
X8.06Y-1.73
X8.135Y-4.03
X8.212Y-1.824
X8.24Y-4.605
X8.3Y-4.41
X8.375Y-3.11
X8.435Y-2.48
X8.455Y-4.755
X8.63Y-2.845
X8.9125Y-2.48
X9.19Y-2.495
X9.205Y-4.74
X9.335Y-3.115
X9.4148Y-2.48
X9.565Y-1.72
X9.865Y-3.115
X9.935Y-2.495
X10.245Y-4.395
X10.4125Y-2.48
X10.505Y-4.1
X10.56Y-1.94
X10.685Y-2.495
X10.86Y-3.055
X10.905Y-4.03
X10.915Y-2.48
X10.965Y-1.875
X10.97Y-4.28
X11.06Y-1.72
X11.44Y-2.5
X11.86Y-3.12
X11.9125Y-2.475
X12.19Y-2.51
X12.376Y-3.122
X12.376Y-3.246
X12.415Y-2.475
X12.565Y-1.72
X12.804Y-3.442
X12.94Y-2.515
X13.201Y-2.405
X13.25Y-4.125
X13.32Y-1.935
X13.66Y-1.745
X13.66Y-2.0
X13.69Y-4.03
X13.8Y-1.595
X13.8144Y-2.7794
X13.9688Y-3.4688
X13.9744Y-2.0
X14.0794Y-2.5144
X14.295Y-1.88
X14.355Y-1.68
X14.538Y-2.944
X14.636Y-2.846
T3
X3.2305Y-3.2
X3.3305Y-3.2
X3.418Y-3.2
X3.4626Y-1.8248
X3.4626Y-1.9248
X3.518Y-3.2
X3.5626Y-1.8248
X3.5626Y-1.9248
X3.6626Y-1.8248
X3.6626Y-1.9248
T4
X1.35Y-1.4
X1.35Y-2.15
X1.35Y-2.9
X1.35Y-3.65
X1.35Y-4.4
X1.6Y-1.3
X1.6Y-2.05
X1.6Y-2.8
X1.6Y-3.55
X1.6Y-4.3
X2.1Y-1.4
X2.1Y-2.15
X2.1Y-2.9
X2.1Y-3.65
X2.1Y-4.4
X2.35Y-1.3
X2.35Y-2.05
X2.35Y-2.8
X2.35Y-3.55
X2.35Y-4.3
X3.0375Y-1.4
X3.1313Y-2.9
X3.1313Y-3.65
X3.1313Y-4.4
X3.225Y-2.15
X3.2875Y-1.3
X3.3188Y-2.9
X3.3813Y-2.8
X3.3813Y-3.55
X3.3813Y-4.3
X3.475Y-2.05
X3.5063Y-3.65
X3.5688Y-2.8
X3.7563Y-3.55
X3.7875Y-1.4
X3.975Y-3.65
X4.0375Y-1.3
X4.0687Y-4.4
X4.1625Y-2.15
X4.225Y-3.55
X4.3187Y-4.3
X4.35Y-2.9
X4.4125Y-2.05
X4.5375Y-1.4
X4.6Y-2.8
X4.725Y-3.65
X4.7875Y-1.3
X4.9125Y-2.15
X4.975Y-3.55
X5.0062Y-4.4
X5.1Y-2.9
X5.1625Y-2.05
X5.2562Y-4.3
X5.2875Y-1.4
X5.35Y-2.8
X5.475Y-3.65
X5.5375Y-1.3
X5.6625Y-2.15
X5.725Y-3.55
X5.85Y-2.9
X5.9125Y-2.05
X6.0375Y-1.4
X6.1Y-2.8
X6.225Y-3.65
X6.2875Y-1.3
X6.3187Y-4.4
X6.4125Y-2.15
X6.475Y-3.55
X6.5687Y-4.3
X6.6Y-2.9
X6.6625Y-2.05
X6.7875Y-1.4
X6.85Y-2.8
X6.975Y-3.65
X7.0375Y-1.3
X7.1625Y-2.15
X7.225Y-3.55
X7.35Y-2.9
X7.4125Y-2.05
X7.5375Y-1.4
X7.6Y-2.8
X7.6312Y-4.4
X7.725Y-3.65
X7.7875Y-1.3
X7.819Y-4.4
X7.8812Y-4.3
X7.9125Y-2.15
X7.975Y-3.55
X8.069Y-4.3
X8.1Y-2.9
X8.1625Y-2.05
X8.2875Y-1.4
X8.35Y-2.8
X8.475Y-3.65
X8.5375Y-1.3
X8.6625Y-2.15
X8.725Y-3.55
X8.85Y-2.9
X8.9125Y-2.05
X9.0375Y-1.4
X9.1Y-2.8
X9.1312Y-4.4
X9.225Y-3.65
X9.2875Y-1.3
X9.3812Y-4.3
X9.4125Y-2.15
X9.475Y-3.55
X9.6Y-2.9
X9.6625Y-2.05
X9.7875Y-1.4
X9.85Y-2.8
X9.975Y-3.65
X10.0375Y-1.3
X10.1625Y-2.15
X10.225Y-3.55
X10.35Y-2.9
X10.4125Y-2.05
X10.5375Y-1.4
X10.5375Y-4.4
X10.6Y-2.8
X10.725Y-3.65
X10.7875Y-1.3
X10.7875Y-4.3
X10.9125Y-2.15
X10.975Y-3.55
X11.1Y-2.9
X11.1625Y-2.05
X11.2875Y-1.4
X11.35Y-2.8
X11.475Y-3.65
X11.5375Y-1.3
X11.6625Y-2.15
X11.725Y-3.55
X11.85Y-2.9
X11.9125Y-2.05
X12.0375Y-1.4
X12.1Y-2.8
X12.2875Y-1.3
X12.4125Y-2.15
X12.5062Y-3.65
X12.6Y-2.9
X12.6625Y-2.05
X12.7562Y-3.55
X12.7875Y-1.4
X12.7875Y-4.4
X12.85Y-2.8
X13.0375Y-1.3
X13.0375Y-4.3
X13.0687Y-2.9
X13.1623Y-1.4
X13.3187Y-2.8
X13.4Y-2.45
X13.4123Y-1.3
X13.4437Y-2.525
X13.5375Y-1.4
X13.5375Y-3.65
X13.5375Y-4.4
X13.65Y-2.35
X13.6937Y-2.425
X13.7875Y-1.3
X13.7875Y-3.55
X13.7875Y-4.3
X14.2875Y-1.4
X14.2875Y-2.15
X14.2875Y-2.9
X14.2875Y-3.65
X14.2875Y-4.4
X14.5375Y-1.3
X14.5375Y-2.05
X14.5375Y-2.8
X14.5375Y-3.55
X14.5375Y-4.3
T2
G00X2.5487Y-0.9696
M15
G01X2.5487Y-0.9932
M16
G05
G00X2.5487Y-1.1243
M15
G01X2.5487Y-1.1676
M16
G05
G00X2.8888Y-0.9696
M15
G01X2.8888Y-0.9932
M16
G05
G00X2.8888Y-1.1243
M15
G01X2.8888Y-1.1676
M16
G05
T0
M30
